<svg viewBox="0 0 37 30" fill="none" xmlns="http://www.w3.org/2000/svg">
<g id="database-logo">
<g id="Group 238">
<path id="Vector" d="M11.8899 24.0725L6.92859 15.4789C6.66345 15.0199 6.66345 14.4539 6.92859 13.9949L11.8899 5.40164C12.1547 4.94299 12.6436 4.66038 13.1728 4.65967L23.1001 4.65967C23.6276 4.66216 24.114 4.94477 24.3777 5.40164L29.3383 13.9949C29.6035 14.4539 29.6035 15.0199 29.3383 15.4789L24.377 24.0725C24.1122 24.5312 23.6233 24.8138 23.0941 24.8145L13.1693 24.8145C12.6408 24.8127 12.1536 24.5301 11.8889 24.0725L11.8899 24.0725Z" fill="#4386FA"/>
<path id="Vector_2" opacity="0.1" d="M21.2311 11.9653C21.2311 11.9653 22.6103 15.2736 20.7301 17.1488C18.8499 19.0241 15.4263 17.8238 15.4263 17.8238L22.3904 24.8073L23.0974 24.8073C23.627 24.8066 24.1159 24.5236 24.3803 24.0653L27.6646 18.3783L21.2311 11.9653Z" fill="black"/>
<path id="Vector_3" d="M22.8631 18.7367L21.3425 17.2125C21.326 17.1955 21.307 17.1811 21.2862 17.1697C21.933 16.3365 22.2379 15.2881 22.1386 14.238C22.0394 13.1879 21.5435 12.2152 20.752 11.518C19.9606 10.8208 18.9331 10.4516 17.8789 10.4856C16.8247 10.5195 15.8231 10.9542 15.0782 11.7009C14.3333 12.4477 13.9012 13.4504 13.8698 14.5047C13.8384 15.559 14.2101 16.5856 14.9092 17.3753C15.6084 18.1651 16.5823 18.6586 17.6326 18.7552C18.6829 18.8519 19.7305 18.5445 20.5621 17.8956C20.5729 17.9153 20.5865 17.9333 20.6024 17.9491L22.1265 19.4733C22.1713 19.518 22.232 19.5432 22.2953 19.5432C22.3586 19.5432 22.4192 19.518 22.464 19.4733L22.8631 19.0742C22.9079 19.0294 22.933 18.9687 22.933 18.9054C22.933 18.8421 22.9079 18.7815 22.8631 18.7367ZM18.0069 17.751C17.3902 17.751 16.7873 17.5682 16.2744 17.2256C15.7616 16.883 15.3619 16.396 15.1258 15.8261C14.8898 15.2563 14.828 14.6293 14.9483 14.0244C15.0686 13.4195 15.3656 12.8638 15.8017 12.4277C16.2378 11.9916 16.7934 11.6946 17.3983 11.5743C18.0033 11.454 18.6302 11.5158 19.2 11.7518C19.7698 11.9879 20.2568 12.3876 20.5994 12.9005C20.942 13.4133 21.1249 14.0163 21.1248 14.633C21.1247 15.4599 20.7962 16.2529 20.2115 16.8376C19.6268 17.4223 18.8338 17.7509 18.0069 17.751ZM16.0138 14.4666L16.0138 15.7552C16.2123 16.1056 16.4995 16.3978 16.847 16.6016L16.847 14.4588L16.0138 14.4666ZM17.5729 13.3982L17.5729 16.8807C17.8483 16.9314 18.1307 16.9314 18.4061 16.8807L18.4061 13.3982L17.5729 13.3982ZM19.9834 15.7524L19.9834 14.989L19.1509 14.989L19.1509 16.5927C19.4978 16.3894 19.7852 16.0984 19.9841 15.7488L19.9834 15.7524Z" fill="white"/>
</g>
</g>
</svg>
