<svg viewBox="0 0 37 30" fill="none" xmlns="http://www.w3.org/2000/svg">
<g id="database-logo">
<g id="Group 240">
<path id="Vector" d="M3.30298 22.854L6.48537 22.854L6.48537 25.705L3.30298 25.705L3.30298 22.854Z" fill="#FF0000"/>
<path id="Vector_2" d="M3.3042 2.89844L6.4866 2.89844L6.4866 22.8555L3.3042 22.8555L3.3042 2.89844ZM9.66899 2.89844L12.8514 2.89844L12.8514 25.7065L9.66899 25.7065L9.66899 2.89844ZM16.0338 2.89844L19.2162 2.89844L19.2162 25.7065L16.0338 25.7065L16.0338 2.89844ZM22.3986 2.89844L25.581 2.89844L25.581 25.7065L22.3986 25.7065L22.3986 2.89844ZM28.7634 12.1642L31.9458 12.1642L31.9458 16.4407L28.7634 16.4407L28.7634 12.1642Z" fill="#FFCC00"/>
</g>
</g>
</svg>
