<svg viewBox="0 0 37 30" fill="none" xmlns="http://www.w3.org/2000/svg">
<g id="database-logo">
<path id="Vector" d="M27.7465 13.0451L18.3429 18.3758L8.35245 12.6977L7.88527 12.9493L7.88527 17.0701L18.3549 23.0356L27.7584 17.7049L27.7584 19.8971L18.3549 25.2278L8.35245 19.5497L7.88527 19.8013L7.88527 20.496L18.3549 26.4616L28.8605 20.496L28.8605 16.3753L28.3933 16.1237L18.3429 21.8018L8.97536 16.4711L8.97536 14.3149L18.3429 19.6096L28.8485 13.6441L28.8485 9.58317L28.3095 9.29568L18.3429 14.9378L9.47848 9.89463L18.3429 4.8874L25.6621 9.00818L26.321 8.66079L26.321 8.15767L18.3429 3.65356L7.87329 9.59515L7.87329 10.23L18.3429 16.1956L27.7465 10.8649L27.7465 13.0451Z" fill="#FF3621"/>
</g>
</svg>
