<svg viewBox="0 0 37 30" fill="none" xmlns="http://www.w3.org/2000/svg">
<g id="database-logo">
<g id="Group">
<g id="Group_2">
<path id="Vector" fill-rule="evenodd" clip-rule="evenodd" d="M29.9674 3.97404C29.7892 3.76022 29.3259 3.76022 28.7201 4.04532L21.3075 7.8229L21.2719 7.78726C21.1293 7.64471 21.0224 7.5378 20.8798 7.39524C20.666 7.21706 20.274 6.96759 20.0245 6.86068C18.4209 6.04102 16.5321 6.1123 14.8571 6.61122C12.9683 7.18142 11.1864 8.32182 9.83221 9.74733C9.22637 10.3888 8.69181 11.1372 8.26416 11.9212C7.7296 12.9191 7.40886 13.9882 7.30195 15.093C7.12376 17.2668 7.7296 20.0822 9.22637 21.7215C9.58275 22.1492 9.97476 22.5056 10.3668 22.8976C10.6519 23.1827 10.9726 23.4678 11.2577 23.7885C11.7923 24.43 12.0774 25.0715 12.3268 25.8911L12.3625 25.998L12.4694 25.9268C14.0018 24.822 14.572 23.3609 13.4672 21.7215C14.1087 21.187 14.4295 20.4386 14.4295 19.6189C14.4295 18.8349 14.1087 17.9796 13.4316 17.5163C13.7167 17.4094 14.1444 17.1956 14.4295 17.0887C14.4295 17.3381 14.2156 17.7301 14.3938 17.837C14.7502 18.0509 16.1044 17.4807 16.5677 16.269C16.9954 16.1264 17.2448 16.0195 17.7081 15.8413C19.4543 15.1286 21.3788 14.1307 22.4479 12.8834C22.8043 12.4558 23.5527 11.2085 22.733 10.8877C23.0181 10.567 23.1963 10.0324 23.0894 9.67605L29.4329 5.04317C29.8961 4.75807 30.1812 4.22351 29.9674 3.97404ZM10.4737 19.7615C10.3311 18.9775 11.6854 18.3003 12.3981 17.9796C12.2199 18.5498 11.8636 19.12 11.4359 19.5476C11.2221 19.7258 10.6875 20.2248 10.4737 19.7615Z" fill="#393C42"/>
</g>
<path id="Vector_2" fill-rule="evenodd" clip-rule="evenodd" d="M22.3768 11.9569C22.8401 11.3511 22.5194 10.9947 22.1986 11.3511C21.5572 12.0282 20.5593 12.242 19.6684 12.0995C18.3498 11.8857 18.3142 11.6718 18.528 11.4936C20.0604 12.0638 21.8423 11.3154 22.5907 10.1038C22.9114 9.64048 21.8423 9.28411 21.2008 8.42881C18.1716 4.33049 8.62074 7.89424 7.7298 15.093C7.4447 17.2669 8.05054 19.6546 9.54732 21.3296C10.6521 22.5769 11.8638 23.1115 12.5409 25.1072C13.8595 23.9668 13.6813 22.6838 12.6834 21.5434C14.3584 20.6881 14.1089 18.443 12.9329 17.7302C12.3983 19.7259 10.4383 21.2227 9.97497 19.7972C9.68987 18.336 12.0776 17.3738 15.8908 15.9483C19.0982 14.701 21.1652 13.7032 22.3768 11.9569Z" fill="#55BFCE"/>
<path id="Vector_3" fill-rule="evenodd" clip-rule="evenodd" d="M22.3767 11.9567C22.84 11.3509 22.5193 10.9945 22.1985 11.3509C21.6283 11.9211 20.8087 12.1705 20.0246 12.1349C18.7061 12.028 17.6726 11.7785 16.7104 11.8854C14.8216 12.0636 12.9684 13.2753 11.9706 14.2731C10.2956 15.9837 8.47809 19.5475 10.3312 20.2246C10.1887 20.1533 10.0818 19.9752 10.0105 19.7613C9.7254 18.3002 12.1131 17.338 15.9263 15.9125C19.0981 14.7008 21.1651 13.7029 22.3767 11.9567Z" fill="white"/>
<path id="Vector_4" fill-rule="evenodd" clip-rule="evenodd" d="M14.18 14.7363C15.1778 15.1996 14.964 16.9102 14.8214 17.3379C16.6746 16.8033 16.14 14.0592 16.9953 13.2039C15.9262 13.1683 13.8949 14.2374 14.18 14.7363Z" fill="#55BFCE"/>
<path id="Vector_5" fill-rule="evenodd" clip-rule="evenodd" d="M17.3519 9.74762C17.6014 9.60507 17.9577 9.71198 18.1003 9.96145C18.2428 10.2109 18.1359 10.5316 17.8865 10.7098C17.637 10.8524 17.2806 10.7455 17.1381 10.496C16.9955 10.2109 17.1024 9.89017 17.3519 9.74762Z" fill="#393C42"/>
<path id="Vector_6" fill-rule="evenodd" clip-rule="evenodd" d="M21.8776 9.96081L29.3615 4.75773C29.5754 4.61518 29.8605 4.29444 29.7179 4.11625C29.611 3.9737 29.2903 4.04497 29.0052 4.18752L20.9154 8.57094C20.666 9.1055 21.2005 10.2459 21.8776 9.96081Z" fill="#55BFCE"/>
<path id="Vector_7" fill-rule="evenodd" clip-rule="evenodd" d="M21.2362 8.92818L29.0408 4.33094C29.3972 4.11711 29.5041 4.11711 29.718 4.11711C29.611 3.97456 29.2903 4.08147 29.0052 4.18838L20.9155 8.5718C20.7017 8.99945 20.9868 9.74784 21.4144 9.96167C21.2719 9.60529 21.1649 9.24892 21.2362 8.92818Z" fill="white"/>
<path id="Vector_8" fill-rule="evenodd" clip-rule="evenodd" d="M9.68961 10.9949C9.93907 10.9593 10.1529 11.1375 10.1529 11.3869C10.1529 11.6364 9.93907 11.8858 9.68961 11.9215C9.44014 11.9571 9.22632 11.7789 9.26196 11.5295C9.22632 11.28 9.44014 11.0305 9.68961 10.9949Z" fill="#25ABAD"/>
<path id="Vector_9" fill-rule="evenodd" clip-rule="evenodd" d="M11.2221 9.32019C11.4359 9.28455 11.6141 9.4271 11.6141 9.67657C11.6141 9.92603 11.4359 10.1399 11.1864 10.1755C10.9726 10.2111 10.7944 10.0686 10.7944 9.81911C10.7944 9.56965 11.0083 9.35583 11.2221 9.32019Z" fill="#25ABAD"/>
<path id="Vector_10" fill-rule="evenodd" clip-rule="evenodd" d="M15.8193 7.11027C16.0331 7.11027 16.1757 7.3241 16.1401 7.53792C16.0688 7.75175 15.855 7.92993 15.6411 7.92993C15.4273 7.92993 15.2848 7.71611 15.3204 7.50228C15.356 7.25282 15.5699 7.07463 15.8193 7.11027Z" fill="#25ABAD"/>
<path id="Vector_11" fill-rule="evenodd" clip-rule="evenodd" d="M17.2092 6.86073C17.3874 6.89637 17.4943 7.07456 17.4231 7.25274C17.3518 7.43093 17.138 7.53784 16.9598 7.5022C16.7816 7.46657 16.6747 7.28838 16.746 7.1102C16.8172 6.93201 17.0311 6.82509 17.2092 6.86073Z" fill="#25ABAD"/>
<path id="Vector_12" fill-rule="evenodd" clip-rule="evenodd" d="M11.2221 10.3534C11.4003 10.3178 11.5072 10.4603 11.5072 10.6029C11.5072 10.781 11.3647 10.9236 11.1865 10.9592C11.0083 10.9949 10.9014 10.888 10.9014 10.7098C10.937 10.5672 11.0796 10.389 11.2221 10.3534Z" fill="#25ABAD"/>
<path id="Vector_13" fill-rule="evenodd" clip-rule="evenodd" d="M8.87005 12.3137C9.04824 12.278 9.19079 12.4206 9.19079 12.5988C9.19079 12.777 9.04824 12.9552 8.87005 12.9908C8.69187 13.0264 8.54932 12.8839 8.54932 12.7413C8.54932 12.5275 8.69187 12.3493 8.87005 12.3137Z" fill="#25ABAD"/>
<path id="Vector_14" fill-rule="evenodd" clip-rule="evenodd" d="M22.8757 7.96552C22.84 7.78733 22.84 7.64478 22.84 7.50223L22.4836 7.68042C22.4836 7.82297 22.5193 7.96552 22.5906 8.10807C22.7331 8.50008 23.0182 8.85646 23.232 8.92773C23.0895 8.67827 22.9469 8.3219 22.8757 7.96552ZM24.7288 6.86076C24.7288 6.71821 24.6932 6.61129 24.7288 6.50438L24.4437 6.68257C24.4437 6.78948 24.4793 6.8964 24.515 7.00331C24.6575 7.35968 24.907 7.68042 25.0495 7.68042C24.907 7.53787 24.8001 7.18149 24.7288 6.86076ZM26.582 5.79163C26.582 5.68472 26.5463 5.61345 26.582 5.50653L26.3325 5.64908C26.3325 5.72036 26.3325 5.82727 26.3681 5.89854C26.4394 6.14801 26.582 6.39747 26.7958 6.43311C26.7245 6.29056 26.6176 6.07673 26.582 5.79163ZM28.3638 4.75814C28.3638 4.68687 28.3282 4.61559 28.3638 4.57996L28.2213 4.65123L28.15 4.68687C28.15 4.72251 28.1857 4.79378 28.2213 4.86506C28.2926 5.04324 28.4351 5.25707 28.542 5.32835C28.4708 5.1858 28.3995 4.97197 28.3638 4.75814Z" fill="#25ABAD"/>
</g>
</g>
</svg>
