<svg viewBox="0 0 37 30" fill="none" xmlns="http://www.w3.org/2000/svg">
<g id="database-logo">
<g id="Group 241">
<path id="Vector" d="M18.5629 2.94437C20.5472 2.94437 22.5316 2.93424 24.5151 2.94437C28.3149 2.96801 31.8014 5.39314 33.128 8.93288C33.6997 10.4612 33.8238 12.0428 33.6608 13.6666C33.4219 16.0512 32.71 18.2644 31.3615 20.2479C29.2809 23.3097 26.3483 25.0112 22.7165 25.5778C21.4854 25.7694 20.25 25.7466 19.013 25.7466C18.4996 25.7466 18.2251 25.5119 18.1947 25.0872C18.1618 24.632 18.448 24.2824 18.9547 24.252C19.5154 24.2174 20.0803 24.2461 20.6435 24.2309C24.0625 24.138 27.023 22.9601 29.3679 20.4311C31.0111 18.6579 31.8437 16.4979 32.1257 14.1175C32.3216 12.4659 32.3005 10.8243 31.6478 9.25966C30.6463 6.86578 28.8519 5.39821 26.3812 4.71762C25.422 4.45332 24.4391 4.4035 23.4554 4.39759C19.783 4.37563 16.109 4.38914 12.4376 4.3883C12.2831 4.3883 12.1268 4.39421 11.9732 4.3807C11.7969 4.36439 11.6324 4.28536 11.5095 4.15797C11.3866 4.03059 11.3135 3.86332 11.3036 3.6866C11.301 3.51602 11.3589 3.35005 11.4671 3.21818C11.5754 3.0863 11.7268 2.99707 11.8946 2.96632C12.0624 2.9431 12.232 2.93491 12.4013 2.94184C14.4554 2.94184 16.5101 2.94184 18.5654 2.94184L18.5629 2.94437Z" fill="#29F1FB"/>
<path id="Vector_2" d="M14.802 20.5073L8.21563 20.5073C8.07484 20.5135 7.9338 20.5104 7.79342 20.498C7.4126 20.4465 7.17279 20.2278 7.13563 19.8427C7.09848 19.4577 7.27918 19.1942 7.64228 19.0591C7.8728 18.9747 8.1143 18.9924 8.35242 18.9924C12.6851 18.9924 17.0185 18.9992 21.3512 18.9848C22.8711 18.9797 24.1833 18.4165 25.2261 17.3019C26.1204 16.346 26.589 15.1909 26.7283 13.8905C26.8381 12.8705 26.6929 11.9324 26.0596 11.0998C25.3553 10.1709 24.4037 9.70481 23.2595 9.69975C19.1658 9.68202 15.0688 9.69299 10.9785 9.68708C10.5436 9.68708 10.1079 9.65162 9.67475 9.61109C9.30068 9.57647 9.09381 9.35101 9.06847 8.97441C9.04061 8.56403 9.25086 8.26848 9.62325 8.19671C9.74795 8.17899 9.87404 8.17305 9.99985 8.17898C14.3907 8.17898 18.7816 8.17898 23.1725 8.17898C25.3857 8.1832 27.2991 9.52158 27.9966 11.614C28.4914 13.0993 28.315 14.5964 27.7602 16.0362C26.6945 18.7999 24.1858 20.4997 21.2169 20.5073C19.0789 20.5132 16.94 20.5073 14.802 20.5073Z" fill="#29F1FB"/>
<path id="Vector_3" d="M4.97982 9.61498C4.47317 9.61498 3.96653 9.62173 3.45989 9.61498C3.03769 9.60738 2.71344 9.32957 2.66531 8.95128C2.61718 8.57298 2.85445 8.24789 3.31128 8.155C3.56076 8.11454 3.81353 8.09786 4.06617 8.10518C4.75521 8.09927 5.44508 8.09758 6.13412 8.10518C6.34453 8.10487 6.55424 8.12924 6.75897 8.1778C7.13136 8.27238 7.33486 8.58987 7.29095 8.97576C7.24704 9.36166 7.01398 9.59387 6.62387 9.60653C6.07585 9.62511 5.52615 9.6116 4.97813 9.6116L4.97982 9.61498Z" fill="#29F1FB"/>
<path id="Vector_4" d="M14.2216 25.7437C13.7437 25.7437 13.2658 25.7522 12.7862 25.7437C12.3319 25.7336 12.0262 25.476 11.9797 25.0961C11.9621 24.8962 12.0242 24.6975 12.1525 24.5433C12.2808 24.3891 12.4649 24.2918 12.6646 24.2728C13.6869 24.1924 14.7139 24.191 15.7365 24.2686C15.833 24.2727 15.9276 24.2964 16.0146 24.3384C16.1015 24.3804 16.179 24.4397 16.2422 24.5126C16.3055 24.5856 16.3532 24.6707 16.3824 24.7628C16.4116 24.8548 16.4217 24.9519 16.412 25.0479C16.3808 25.4701 16.0835 25.7285 15.6141 25.7471L14.2216 25.7471L14.2216 25.7437Z" fill="#29F1FB"/>
</g>
</g>
</svg>
