<svg viewBox="0 0 37 30" fill="none" xmlns="http://www.w3.org/2000/svg">
<g id="database-logo">
<g id="Group 242">
<path id="Vector" d="M23.8676 11.064L17.3555 11.064C17.3866 11.2065 17.4489 11.3491 17.4801 11.4631C17.6982 12.1473 17.8228 12.8601 17.8852 13.6014C17.9163 13.8865 17.9163 14.2001 17.9163 14.4852C17.9163 14.7703 17.9163 15.0839 17.8852 15.369C17.8228 16.1102 17.6982 16.823 17.4801 17.5072C17.4489 17.6498 17.3866 17.7923 17.3555 17.9064L23.8676 17.9064C25.9241 17.9064 27.5755 16.3668 27.5755 14.4852C27.5755 12.6035 25.9241 11.064 23.8676 11.064Z" fill="#00A9E5"/>
<path id="Vector_2" d="M17.8852 15.369C17.9164 15.0839 17.9164 14.7703 17.9164 14.4852C17.9164 14.2001 17.9164 13.8865 17.8852 13.6014C17.8229 12.8601 17.6983 12.1473 17.4802 11.4631C17.449 11.3206 17.3867 11.178 17.3555 11.064L7.29132 11.064C6.91742 12.1473 6.73047 13.2877 6.73047 14.4852C6.73047 15.6826 6.91742 16.823 7.29132 17.9064L17.3555 17.9064C17.3867 17.7638 17.449 17.6213 17.4802 17.5072C17.6983 16.823 17.8229 16.1102 17.8852 15.369Z" fill="#353535"/>
<path id="Vector_3" d="M24.9894 19.0469L16.8882 19.0469C16.6389 19.5601 16.3585 20.0447 16.0469 20.5009C15.5795 21.2136 15.0187 21.8409 14.3955 22.4396C14.1774 22.6391 13.9593 22.8102 13.7412 23.0098C13.3049 23.3804 12.8064 23.694 12.3079 24.0076C14.2708 25.205 16.6389 25.8893 19.1627 25.8893C23.4938 25.8893 27.2951 23.8651 29.5385 20.8145C28.3857 19.7311 26.7654 19.0469 24.9894 19.0469Z" fill="#00BFB3"/>
<path id="Vector_4" d="M16.0467 20.5009C16.3583 20.0447 16.6387 19.5601 16.888 19.0469L7.75854 19.0469C8.72446 21.0711 10.3135 22.8102 12.3388 24.0076C12.8374 23.694 13.3048 23.3804 13.7721 23.0098C13.9902 22.8387 14.2084 22.6391 14.4265 22.4396C15.0185 21.8694 15.5793 21.2136 16.0467 20.5009Z" fill="#019B8F"/>
<path id="Vector_5" d="M14.3955 6.53094C14.1774 6.33137 13.9592 6.16031 13.7411 5.96074C13.3049 5.59011 12.8064 5.2765 12.3078 4.96289C10.3137 6.16031 8.72461 7.89942 7.72754 9.92364L16.857 9.92364C16.6077 9.41046 16.3273 8.92579 16.0157 8.46963C15.5795 7.75687 15.0186 7.10114 14.3955 6.53094Z" fill="#F9B110"/>
<path id="Vector_6" d="M19.1627 3.08154C16.6389 3.08154 14.2708 3.76578 12.3079 4.9632C12.8064 5.27682 13.2738 5.59043 13.7412 5.96106C13.9593 6.13212 14.1774 6.33169 14.3955 6.53126C15.0187 7.12997 15.5795 7.75719 16.0469 8.46994C16.3585 8.9261 16.6389 9.41077 16.8882 9.92395L24.9894 9.92395C26.7654 9.92395 28.3857 9.23971 29.5385 8.15633C27.2951 5.10576 23.4938 3.08154 19.1627 3.08154Z" fill="#FED10A"/>
</g>
</g>
</svg>
