<svg viewBox="0 0 37 30" fill="none" xmlns="http://www.w3.org/2000/svg">
<g id="database-logo">
<g id="Group 246">
<path id="Vector" d="M7.58824 13.8191L11.3896 13.8191L7.23047 3.51074C7.23047 3.51074 14.7213 3.51074 18.6345 3.51074C24.9402 3.51074 30.0385 8.60901 30.0385 14.9148C30.0385 21.2205 24.9402 26.3188 18.6345 26.3188C17.427 26.3188 12.5076 26.3188 12.5076 26.3188L7.58824 13.8191Z" fill="#F72A30"/>
<path id="Vector_2" d="M18.8133 11.2471L18.8133 13.6844C18.8133 13.7515 18.8803 13.8185 18.9474 13.8185L22.2792 13.8185C22.3686 13.8185 22.4133 13.8856 22.4133 13.9527L22.4133 16.4124C22.4133 16.4795 22.3463 16.5466 22.2792 16.5466L18.9698 16.5466C18.8803 16.5466 18.8356 16.6136 18.8356 16.6807L18.8356 21.8461C18.8356 21.9132 18.7685 21.9802 18.7015 21.9802L16.0629 21.9802C15.9734 21.9802 15.9287 21.9132 15.9287 21.8461L15.9287 8.54139C15.9287 8.47431 15.9958 8.40723 16.0629 8.40723L23.0171 8.40723C23.1065 8.40723 23.1513 8.47431 23.1513 8.54139L23.1513 10.9787C23.1513 11.0458 23.0842 11.1129 23.0171 11.1129L18.9698 11.1129C18.8803 11.1129 18.8133 11.18 18.8133 11.2471Z" fill="white"/>
<path id="Vector_3" d="M18.8133 11.2471L18.8133 13.6844C18.8133 13.7515 18.8803 13.8185 18.9474 13.8185L22.2792 13.8185C22.3686 13.8185 22.4133 13.8856 22.4133 13.9527L22.4133 16.4124C22.4133 16.4795 22.3463 16.5466 22.2792 16.5466L18.9698 16.5466C18.8803 16.5466 18.8356 16.6136 18.8356 16.6807L18.8356 21.8461C18.8356 21.9132 18.7685 21.9802 18.7015 21.9802L16.0629 21.9802C15.9734 21.9802 15.9287 21.9132 15.9287 21.8461L15.9287 8.54139C15.9287 8.47431 15.9958 8.40723 16.0629 8.40723L23.0171 8.40723C23.1065 8.40723 23.1513 8.47431 23.1513 8.54139L23.1513 10.9787C23.1513 11.0458 23.0842 11.1129 23.0171 11.1129L18.9698 11.1129C18.8803 11.1129 18.8133 11.18 18.8133 11.2471Z" fill="url(#paint0_linear_1203_30320)"/>
</g>
</g>
<defs>
<linearGradient id="paint0_linear_1203_30320" x1="19.5394" y1="8.39763" x2="19.5394" y2="21.9738" gradientUnits="userSpaceOnUse">
<stop stop-color="white"/>
<stop offset="1" stop-color="white" stop-opacity="0"/>
</linearGradient>
</defs>
</svg>
