<svg viewBox="0 0 37 30" fill="none" xmlns="http://www.w3.org/2000/svg">
<g id="database-logo">
<g id="KSQL-|-Home">
<g id="illustration">
<g id="Group-71">
<path id="img-rocket" fill-rule="evenodd" clip-rule="evenodd" d="M21.4995 25.3471L21.5221 25.3939L21.9172 26.3271C22.0266 26.5851 21.9062 26.8826 21.6488 26.9917C21.4072 27.0944 21.131 26.9948 21.0076 26.7697L20.985 26.723L20.5895 25.7894C20.4805 25.5313 20.6009 25.2339 20.8583 25.1248C21.0995 25.0225 21.3761 25.1217 21.4995 25.3471ZM23.1203 24.7156C23.2293 24.9732 23.1093 25.2711 22.8516 25.3802C22.5942 25.4893 22.2972 25.3692 22.1878 25.1111C22.0788 24.8535 22.1992 24.5557 22.4565 24.4465C22.7139 24.3374 23.0113 24.4576 23.1203 24.7156ZM18.2583 8.82316C19.8984 10.6487 21.5928 13.0128 22.8182 15.9075L24.5539 20.0081L24.8396 20.6825C25.0737 21.2348 24.8156 21.8722 24.2643 22.1066C23.7122 22.3406 23.0755 22.0826 22.8414 21.5303L22.6439 21.0634C22.5349 20.8054 22.2378 20.6853 21.98 20.7944C21.7227 20.9039 21.6023 21.2013 21.7117 21.4594L22.2142 22.6463L22.5022 23.3263C22.6112 23.5839 22.4908 23.8813 22.2334 23.9905C21.9761 24.1 21.6786 23.9794 21.5696 23.7218L21.2875 23.0552C21.2095 22.8713 20.9971 22.7854 20.8133 22.8634C20.6295 22.941 20.5437 23.1537 20.6217 23.3377L20.9038 24.0046C21.0128 24.2623 20.8928 24.5597 20.635 24.6688C20.3777 24.778 20.0806 24.6578 19.9712 24.3998L19.6836 23.7202L19.1811 22.5329C19.0717 22.2752 18.7746 22.1547 18.5172 22.2642C18.2595 22.3733 18.1395 22.6711 18.2485 22.9288L18.446 23.3956C18.6801 23.9479 18.4224 24.5853 17.8707 24.8193C17.3186 25.0537 16.6819 24.7953 16.4482 24.2434L16.1625 23.5689L14.4264 19.4684C13.201 16.5736 12.682 13.7112 12.5124 11.2613L18.2583 8.82316ZM19.3562 16.9164C19.146 16.4196 18.5727 16.1872 18.0761 16.3979C17.5795 16.6087 17.3477 17.1823 17.5583 17.6795C17.7684 18.177 18.3417 18.4086 18.8383 18.1979C19.3349 17.9875 19.5671 17.4135 19.3562 16.9164ZM18.3098 14.4444C18.0993 13.9472 17.526 13.7148 17.0294 13.9259C16.5332 14.1367 16.301 14.7103 16.5116 15.2074C16.7221 15.7046 17.295 15.9366 17.7916 15.7263C18.2882 15.5155 18.52 14.9415 18.3098 14.4444ZM17.2631 11.9724C17.0526 11.4752 16.4793 11.2428 15.9831 11.4535C15.4861 11.6643 15.2543 12.2379 15.4648 12.7354C15.6754 13.2326 16.2483 13.4646 16.7453 13.2543C17.2415 13.0431 17.4737 12.4691 17.2631 11.9724ZM12.9222 4.22412C12.9222 4.22412 15.1244 5.53777 17.6171 8.1331L17.7323 8.25379L12.4701 10.4867C12.3154 6.79974 12.9222 4.22412 12.9222 4.22412Z" fill="#EF5862"/>
</g>
</g>
</g>
</g>
</svg>
