<svg viewBox="0 0 33 23" fill="none" xmlns="http://www.w3.org/2000/svg">
<g id="database-logo" clip-path="url(#clip0_1203_30401)">
<g id="Clip path group">
<mask id="mask0_1203_30401" style="mask-type:luminance" maskUnits="userSpaceOnUse" x="0" y="0" width="33" height="23">
<g id="Frame_clip0-16-34">
<path id="Vector" d="M32.75 0.0507812L0.75 0.0507812L0.75 22.8588L32.75 22.8588L32.75 0.0507812Z" fill="white"/>
</g>
</mask>
<g mask="url(#mask0_1203_30401)">
<g id="Group">
<path id="Vector_2" opacity="0.7" d="M32.8784 -0.108899L32.8784 3.23211L32.8726 23.0122L26.5793 23.0122L26.5793 1.83646L28.5517 0.123782C28.635 0.0470087 28.7367 -0.0135138 28.85 -0.0536722C28.9632 -0.0938307 29.0852 -0.112687 29.2077 -0.108899L32.8784 -0.108899Z" fill="#472F85"/>
<path id="Vector_3" opacity="0.7" fill-rule="evenodd" clip-rule="evenodd" d="M23.2536 15.4871C22.8096 15.0016 22.3667 14.5174 21.9321 14.1467C21.128 13.4635 20.3297 12.7754 19.5319 12.0879C19.1338 11.7448 18.7358 11.4018 18.3374 11.0596L18.3374 8.67986L18.3387 8.67493C18.3352 8.57042 18.3581 8.46652 18.4059 8.37028C18.4377 8.30625 18.4801 8.24663 18.5316 8.19315L24.6323 3.20923L24.6323 3.47531L24.6323 16.2133C24.6319 16.2313 24.6327 16.2933 24.6337 16.3728C24.6359 16.5574 24.6394 16.8364 24.6323 16.8776C24.1767 16.4965 23.7145 15.9911 23.2536 15.4871Z" fill="#472F85"/>
<path id="Vector_4" d="M0.585693 6.06567L0.585693 13.5729L11.6933 23.0123L20.5266 23.0123L0.585693 6.06567Z" fill="#472F85"/>
<path id="Vector_5" d="M0.585693 23.0122L8.75033 23.0122L0.585693 16.0752L0.585693 23.0122Z" fill="#472F85"/>
<path id="Vector_6" d="M23.5045 23.0123L32.2511 23.0123L5.87147 0.124027C5.78818 0.0473355 5.68649 -0.0131461 5.5733 -0.0532638C5.4601 -0.0933815 5.33807 -0.112198 5.21557 -0.10841L0.594482 -0.10841L0.594482 3.22914L23.5045 23.0123Z" fill="#472F85"/>
</g>
</g>
</g>
</g>
<defs>
<clipPath id="clip0_1203_30401">
<rect width="32" height="22.808" fill="white" transform="translate(0.75 0.0507812)"/>
</clipPath>
</defs>
</svg>
