<svg viewBox="0 0 37 30" fill="none" xmlns="http://www.w3.org/2000/svg">
<g id="database-logo">
<g id="Group 237">
<path id="Vector" d="M18.5635 3.39062L19.1722 4.53388C19.3091 4.74485 19.4573 4.93159 19.6319 5.1055C20.1415 5.61512 20.6255 6.14897 21.0603 6.7206C22.0916 8.07482 22.7873 9.57873 23.2841 11.2052C23.582 12.1988 23.7438 13.218 23.7559 14.2487C23.8058 17.3299 22.7495 19.9756 20.6198 22.1745C20.272 22.5223 19.8999 22.8444 19.5008 23.131C19.2898 23.131 19.19 22.9692 19.1031 22.8202C18.9413 22.5472 18.8422 22.2358 18.7923 21.9257C18.7175 21.5529 18.6683 21.1802 18.6925 20.7953L18.6925 20.6214C18.6754 20.5843 18.4894 3.47829 18.5635 3.39062Z" fill="#599636"/>
<path id="Vector_2" d="M18.5638 3.35265C18.5388 3.30275 18.5139 3.34053 18.4889 3.36476C18.5011 3.61423 18.4141 3.8366 18.278 4.049C18.1283 4.25998 17.9301 4.42177 17.7313 4.59568C16.6265 5.55219 15.757 6.70756 15.0606 7.99978C14.134 9.73889 13.6565 11.6027 13.5211 13.5649C13.459 14.2727 13.7449 16.7702 13.968 17.4908C14.5766 19.4038 15.67 21.0068 17.0862 22.3981C17.4341 22.7331 17.8061 23.0438 18.191 23.3425C18.3029 23.3425 18.315 23.2427 18.3407 23.1685C18.3897 23.0099 18.4271 22.8479 18.4526 22.6839L18.702 20.8207L18.5638 3.35265Z" fill="#6CAC48"/>
<path id="Vector_3" d="M19.1724 23.8882C19.1973 23.6031 19.3342 23.3664 19.4831 23.1305C19.3335 23.0685 19.2223 22.9452 19.1353 22.8076C19.0605 22.6836 18.9985 22.5346 18.95 22.3978C18.7761 21.8761 18.739 21.3287 18.6891 20.7955L18.6891 20.4727C18.6271 20.5225 18.6143 20.9445 18.6143 21.0072C18.578 21.5707 18.5032 22.131 18.3905 22.6843C18.3534 22.9081 18.3285 23.1312 18.1909 23.3301C18.1909 23.355 18.1909 23.38 18.203 23.417C18.4268 24.0756 18.4881 24.7463 18.5259 25.4298L18.5259 25.6793C18.5259 25.9772 18.5138 25.9145 18.7611 26.0143C18.8609 26.0514 18.9721 26.0642 19.0719 26.1383C19.1467 26.1383 19.1588 26.0763 19.1588 26.0264L19.1218 25.6166L19.1218 24.4733C19.1097 24.2738 19.1467 24.0756 19.1717 23.8889L19.1724 23.8882Z" fill="#C2BFBF"/>
</g>
</g>
</svg>
