<svg viewBox="0 0 37 30" fill="none" xmlns="http://www.w3.org/2000/svg">
<g id="database-logo">
<g id="Group 239">
<path id="Vector" d="M21.4168 13.9761L16.3182 15.4676L11.8825 17.2214L10.6415 17.5149C10.3255 17.7842 9.99408 18.057 9.63567 18.3332C9.24258 18.637 8.87648 18.9133 8.5951 19.1135C8.28296 19.3344 7.8205 19.7487 7.58544 20.0111C7.23472 20.4046 6.95726 20.8224 6.83778 21.1435C6.6258 21.7236 6.72991 22.3105 7.1384 22.8525C7.66251 23.543 8.70692 24.2473 9.92468 24.7272C10.5452 24.9724 11.5896 25.2865 12.3757 25.4626C13.6821 25.7595 16.2103 26.0806 17.6015 26.129C17.8827 26.1393 18.2605 26.1393 18.2758 26.129C18.3067 26.1117 18.5225 25.7423 18.7731 25.2831C19.6286 23.7191 20.2452 22.2518 20.5805 20.9985C20.7808 20.239 20.9388 19.2274 21.0428 18.0294C21.0699 17.6945 21.0814 16.5725 21.0583 16.1927C21.0236 15.5712 20.9619 15.0672 20.8656 14.5735C20.8502 14.501 20.8463 14.4353 20.854 14.4319C20.8694 14.4216 20.9157 14.4078 21.5438 14.2454L21.4167 13.9762L21.4167 13.9761L21.4168 13.9761L21.4168 13.9761ZM20.2529 14.5872C20.2992 14.5872 20.4225 15.6471 20.4533 16.3169C20.461 16.4585 20.4571 16.5517 20.4494 16.5517C20.4186 16.5517 19.7981 16.2237 19.355 15.9752C18.9696 15.7576 18.2374 15.3226 18.1218 15.2398C18.0832 15.2156 18.087 15.2122 18.4031 15.1155C18.9387 14.9532 20.2106 14.5872 20.2529 14.5872ZM17.6555 15.3537C17.6902 15.3537 17.7787 15.3985 17.9907 15.5159C18.7846 15.9613 19.8637 16.4999 20.3261 16.6795C20.4687 16.7347 20.4841 16.714 20.1566 16.9142C19.4552 17.3423 18.5803 17.7635 17.5089 18.1882C17.3201 18.2641 17.1621 18.3228 17.1583 18.3228C17.1506 18.3228 17.1737 18.2366 17.2045 18.133C17.4627 17.2732 17.6092 16.4032 17.6169 15.7058C17.6208 15.3605 17.6208 15.3605 17.6555 15.3502C17.6477 15.3537 17.6516 15.3537 17.6555 15.3537ZM17.1198 15.5366C17.1428 15.5573 17.1275 16.3307 17.0966 16.5413C17.0273 17.0454 16.9194 17.5149 16.7421 18.0432C16.6997 18.1709 16.6611 18.278 16.6535 18.2848C16.638 18.3021 16.11 17.8394 15.9366 17.6599C15.636 17.3492 15.401 17.0385 15.2276 16.7347C15.1389 16.5793 15.0002 16.2755 15.0117 16.2651C15.0734 16.2271 17.1044 15.5229 17.1198 15.5366ZM14.5994 16.4239C14.6032 16.4239 14.607 16.4239 14.6109 16.4274C14.6186 16.4343 14.6457 16.4895 14.6688 16.5517C14.7921 16.852 15.0695 17.2939 15.3085 17.5771C15.5705 17.8878 15.9136 18.2192 16.1987 18.4367C16.2912 18.5058 16.3759 18.5714 16.3875 18.5817C16.4106 18.6025 16.4183 18.599 15.7901 18.8131C15.0619 19.0616 14.2679 19.3102 13.3584 19.5726C13.1411 19.6353 12.9241 19.6986 12.7072 19.7625C12.6725 19.7729 12.684 19.7556 12.7842 19.6141C13.2351 18.9822 13.9211 17.7428 14.3065 16.8658C14.372 16.7139 14.4375 16.562 14.4491 16.5275C14.4645 16.4791 14.4838 16.4619 14.5338 16.4377C14.5608 16.4309 14.5878 16.4239 14.5994 16.4239ZM13.8287 16.7105C13.8402 16.7174 13.6436 17.0868 13.451 17.4252C13.0771 18.0777 12.6686 18.7199 12.1214 19.5001C12.0289 19.6348 11.9403 19.7591 11.9287 19.7729C11.9095 19.7971 11.9017 19.7901 11.8401 19.6831C11.709 19.4518 11.6011 19.1549 11.5433 18.8821C11.4855 18.6128 11.4971 18.1433 11.5626 17.8533C11.6126 17.6392 11.6088 17.6427 11.7244 17.5909C12.2177 17.3665 13.8132 16.6967 13.8287 16.7105ZM20.4765 16.9522L20.4765 17.0972C20.4765 17.8671 20.384 18.9236 20.249 19.6935C20.2259 19.8281 20.2066 19.9386 20.2028 19.9421C20.2028 19.9421 20.091 19.9145 19.96 19.8799C19.382 19.7176 18.7538 19.4794 18.1873 19.1998C17.8134 19.0168 17.27 18.7164 17.2855 18.7026C17.2893 18.6992 17.4512 18.6232 17.64 18.5334C18.3954 18.1813 19.1199 17.8015 19.748 17.4252C19.9831 17.2836 20.3376 17.0558 20.4148 16.9936L20.4765 16.9522ZM10.919 17.9741C10.9344 17.9741 10.9305 18.0017 10.9074 18.126C10.892 18.2158 10.8727 18.3815 10.8651 18.4954C10.8342 18.9995 10.9267 19.3724 11.2042 19.8833C11.2813 20.0249 11.343 20.1423 11.3391 20.1457C11.3121 20.1664 8.76089 20.8362 7.95924 21.033C7.72032 21.0917 7.51226 21.1435 7.49676 21.1469C7.46983 21.1538 7.46596 21.1504 7.47751 21.0916C7.56614 20.5842 7.99779 19.9213 8.59896 19.3619C8.99977 18.9891 9.31966 18.7716 9.86689 18.4919C10.26 18.2917 10.865 17.9914 10.9113 17.9775C10.9113 17.9741 10.9151 17.9741 10.919 17.9741ZM16.9309 18.9373C16.9348 18.9339 17.0273 18.9788 17.139 19.0375C17.9637 19.4656 19.1122 19.8626 20.091 20.0663L20.1797 20.0836L20.0563 20.1457C19.5438 20.4012 17.8597 21.0295 16.1371 21.6061C15.8865 21.6889 15.6399 21.7718 15.5936 21.7891C15.5474 21.8063 15.505 21.8167 15.505 21.8133C15.505 21.8098 15.5744 21.6889 15.6629 21.5405C16.1447 20.7326 16.6303 19.7487 16.8769 19.0651C16.9078 18.9995 16.927 18.9408 16.9309 18.9373ZM16.3182 19.1169C16.3221 19.1204 16.2912 19.1928 16.2527 19.2757C15.9174 20.0042 15.478 20.7983 14.9154 21.689C14.7728 21.9169 14.6533 22.0999 14.6494 22.0999C14.6456 22.0999 14.53 22.0377 14.3913 21.9618C13.5742 21.5129 12.8497 20.9605 12.3757 20.4254L12.3063 20.3494L12.657 20.2631C13.9134 19.9559 14.9808 19.6244 16.0407 19.2171C16.191 19.1618 16.3143 19.1169 16.3182 19.1169ZM20.1258 20.308C20.1296 20.3874 19.933 21.0986 19.7712 21.613C19.6363 22.0446 19.5206 22.3829 19.3087 22.9802C19.2162 23.2426 19.1354 23.4601 19.1314 23.4601C19.1276 23.4601 19.1045 23.4566 19.0814 23.4498C17.9368 23.2633 16.9117 23.0044 15.9482 22.6591C15.6784 22.5624 15.2931 22.4071 15.2699 22.3898C15.2623 22.3829 15.4935 22.2862 15.7864 22.1723C17.5399 21.4853 19.3588 20.705 19.9831 20.3701C20.0563 20.3287 20.1142 20.308 20.1258 20.308ZM11.3352 20.5773C11.3429 20.5842 10.8535 21.216 10.1675 22.0757C9.92856 22.3761 9.65109 22.7282 9.54706 22.8594C9.44299 22.9906 9.285 23.1977 9.19636 23.322L9.03443 23.5465L8.861 23.4153C8.65673 23.2633 8.30223 22.9388 8.14422 22.7593C7.81277 22.3899 7.58929 21.9998 7.50065 21.6442C7.45825 21.4784 7.45825 21.3955 7.49674 21.3852C7.55453 21.3714 8.58351 21.1539 9.54702 20.9536C10.0827 20.8432 10.7031 20.712 10.9267 20.6636C11.1502 20.6152 11.3314 20.5773 11.3352 20.5773ZM11.8285 20.7465L11.9518 20.8708C12.5068 21.4266 13.0733 21.8375 13.7592 22.1965C13.8826 22.2587 13.9751 22.3139 13.9673 22.3174C13.9404 22.3347 11.5857 23.0838 10.4951 23.4221C9.88233 23.6155 9.37745 23.7708 9.37365 23.7708C9.36981 23.7708 9.3351 23.7501 9.2965 23.726L9.22717 23.6811L9.33892 23.5361C9.70116 23.0665 10.156 22.5521 11.1464 21.4819L11.8285 20.7465ZM14.9039 22.7178C14.9077 22.7144 15.0772 22.7696 15.2853 22.8387C15.7864 23.0079 16.1832 23.1149 16.7151 23.2357C17.3703 23.3842 18.3183 23.5292 18.8771 23.5706C18.9619 23.5775 19.0082 23.5844 18.9927 23.5948C18.9657 23.6086 18.3993 23.7778 17.983 23.8952C17.3201 24.0816 15.2969 24.6167 13.6475 25.0414C13.343 25.1208 13.081 25.1864 13.0656 25.1898C13.0271 25.1968 12.8998 25.1656 12.8998 25.1518C12.8998 25.145 12.9923 25.038 13.1041 24.9206C13.659 24.3267 14.2102 23.6639 14.6688 23.0355C14.7959 22.8628 14.9039 22.7213 14.9039 22.7178ZM14.2255 22.7351C14.2294 22.7386 13.9558 23.1321 13.478 23.8088C13.2737 24.0954 13.0463 24.4199 12.9653 24.5338C12.8883 24.6443 12.7727 24.817 12.7072 24.9136L12.5954 25.0897L12.5376 25.0759C12.3988 25.0414 11.4238 24.7341 11.1656 24.6409C10.8457 24.5269 10.5143 24.3889 10.2676 24.2715C9.95937 24.123 9.57402 23.902 9.60482 23.8952C9.61251 23.8917 10.1405 23.7639 10.7763 23.6086C12.4643 23.1977 13.4008 22.9595 14.0136 22.7869C14.1254 22.7558 14.2217 22.7316 14.2255 22.7351ZM19.0235 23.7432L19.0274 23.7432C19.0428 23.7778 18.4185 25.3314 18.1911 25.8216C18.141 25.9321 18.1218 25.9598 18.0948 25.9562C18.0293 25.9529 17.1237 25.8389 16.5725 25.7664C15.6129 25.6352 14.002 25.3831 13.5974 25.3003L13.5049 25.2831L14.0791 25.1656C15.3123 24.917 15.9058 24.7824 16.507 24.6167C17.2662 24.4095 18.0177 24.1506 18.7769 23.833C18.8963 23.7846 18.9966 23.7467 19.0235 23.7432Z" fill="url(#paint0_linear_1203_30260)"/>
<path id="Vector_2" d="M16.1592 3.32928C16.0744 3.31898 14.7062 3.76089 13.8237 4.08193C12.6329 4.517 11.708 4.93132 11.1376 5.29031C10.9257 5.42501 10.6597 5.6632 10.6174 5.7564C10.602 5.79093 10.5942 5.83236 10.5942 5.87379L11.1107 6.31226L12.34 6.66441L15.2651 7.13396L18.6101 7.6484L18.6448 7.38946C18.6333 7.38946 18.6256 7.38602 18.6141 7.38602L18.1747 7.32385L18.0861 7.18232C17.6313 6.46418 17.1303 5.57342 16.8374 4.97269C16.6101 4.50659 16.3943 3.96805 16.2748 3.58135C16.2092 3.34658 16.2016 3.33278 16.1592 3.32934L16.1592 3.32926L16.1592 3.32926L16.1592 3.32928ZM16.0974 3.50541L16.1014 3.50541C16.1052 3.50882 16.1206 3.60555 16.136 3.71942C16.2015 4.20284 16.321 4.66885 16.5099 5.17294C16.6524 5.55273 16.6524 5.53203 16.4867 5.48712C16.0936 5.39048 14.3325 5.11772 13.0569 4.95891C12.8526 4.93473 12.6792 4.91058 12.6792 4.90714C12.6638 4.89334 13.6002 4.45483 14.0126 4.28225C14.5405 4.06469 15.9896 3.52265 16.0974 3.50541ZM12.3824 5.05211L12.5327 5.09695C13.3497 5.34557 15.4037 5.69773 16.5368 5.78059C16.6639 5.79095 16.7719 5.80133 16.7757 5.80133C16.7795 5.80477 16.6717 5.85656 16.5329 5.91523C15.9857 6.16036 15.3845 6.46074 14.9683 6.69207C14.845 6.76108 14.7332 6.81636 14.7178 6.81636C14.7024 6.81636 14.6215 6.80254 14.5367 6.79218L14.3825 6.77143L13.9972 6.43307C13.3189 5.84272 12.7871 5.38701 12.5828 5.21435L12.3824 5.05211ZM12.2283 5.15912L12.7716 5.76678C13.0684 6.10168 13.369 6.42964 13.4345 6.50212C13.5 6.57467 13.554 6.63338 13.5501 6.63682C13.5347 6.64717 12.764 6.5125 12.3554 6.42968C11.9354 6.34334 11.762 6.30191 11.5038 6.22944L11.2918 6.16727L11.2918 6.1189C11.2956 5.88757 11.6232 5.54235 12.1782 5.19023L12.2283 5.15912ZM16.8451 5.98773C16.8606 5.98773 16.8798 6.01879 16.926 6.11201C17.057 6.37093 17.4656 7.06837 17.5657 7.203C17.5966 7.24793 17.6505 7.25136 17.1072 7.17195C15.8008 6.98202 15.3807 6.91994 15.3807 6.91303C15.3807 6.90959 15.4192 6.88541 15.4693 6.86122C15.874 6.66102 16.2824 6.40551 16.6447 6.13275C16.7334 6.06714 16.8143 6.005 16.8297 5.99462C16.8335 5.98773 16.8413 5.98429 16.8451 5.98773Z" fill="url(#paint1_linear_1203_30260)"/>
<path id="Vector_3" d="M10.6438 5.7085C10.6438 5.7085 10.559 5.82938 10.6399 6.00892C10.6901 6.11936 10.8365 6.25399 11.0022 6.39212C11.0022 6.39212 12.7171 7.89049 12.9252 8.10457C13.8732 9.08506 14.2856 10.0518 14.3242 11.3844C14.3473 12.2407 14.1661 12.9933 13.7153 13.8668C12.9137 15.4342 11.2218 17.164 8.61279 19.0836L8.99438 18.9696C9.24101 18.8039 9.5763 18.6278 10.3625 18.2411C12.1776 17.3503 14.2201 16.5321 16.7251 15.6897C20.3322 14.4744 26.2633 13.0519 29.6391 12.5894L29.9899 12.541L29.9359 12.465C29.6277 12.0369 29.4156 11.7711 29.1613 11.488C28.4214 10.6663 27.5235 9.99999 26.4251 9.44757C24.9144 8.69151 22.9605 8.10114 20.4864 7.66266C20.0201 7.57976 18.995 7.42097 18.1625 7.30704C16.3975 7.06197 15.2567 6.89276 14.0004 6.69942C13.5496 6.63034 12.8751 6.52679 12.4281 6.4405C12.1968 6.39557 11.7537 6.30237 11.4068 6.19535C11.1294 6.09863 10.7285 6.00196 10.6438 5.7085ZM11.6381 6.57166C11.6419 6.56825 11.7036 6.5889 11.7845 6.61308C11.931 6.65792 12.1198 6.70972 12.3434 6.765C12.5125 6.80668 12.6821 6.84696 12.8521 6.88582C13.0833 6.93758 13.2759 6.98593 13.2798 6.98593C13.3068 7.01012 13.6961 8.12519 13.8271 8.55332C13.8771 8.71563 13.9157 8.8537 13.9119 8.8537C13.9079 8.8572 13.8656 8.79847 13.8155 8.71907C13.3646 8.00784 12.6516 7.28628 11.8269 6.70624C11.7191 6.63725 11.6381 6.5751 11.6381 6.57166ZM13.5342 7.04119C13.5535 7.04119 13.6382 7.05156 13.7422 7.07225C14.3974 7.20344 15.5728 7.40369 16.3243 7.51764C16.4515 7.53488 16.5517 7.55564 16.5517 7.5625C16.5517 7.56944 16.5054 7.59356 16.4476 7.62122C16.3205 7.67989 15.8079 7.95261 15.6384 8.05621C15.2105 8.31169 14.8252 8.58788 14.5477 8.83645C14.436 8.93659 14.3396 9.01945 14.3396 9.01945C14.3396 9.01945 14.3165 8.96078 14.2972 8.88823C14.1585 8.40833 13.8694 7.6971 13.6074 7.19652C13.565 7.11714 13.5303 7.04462 13.5303 7.03774C13.5303 7.04463 13.5303 7.04119 13.5342 7.04119ZM16.8715 7.61085C16.8947 7.61773 16.9332 7.73513 17.0103 7.99405C17.1529 8.4947 17.2184 9.05399 17.1953 9.57532C17.1875 9.72033 17.1799 9.85495 17.1721 9.87226L17.1606 9.90674L16.9602 9.84808C16.5478 9.73069 15.8773 9.55458 15.3031 9.4096C14.9755 9.33019 14.7096 9.25768 14.7096 9.25079C14.7096 9.23005 15.1875 8.80195 15.3917 8.6397C15.7809 8.33239 16.8368 7.60047 16.8715 7.61085ZM17.1375 7.64534C17.149 7.63504 18.733 7.88011 19.4536 8.00442C19.9893 8.09762 20.7678 8.24264 20.814 8.25993C20.8371 8.26681 20.7562 8.30823 20.498 8.4118C19.4806 8.82268 18.7252 9.19204 17.9738 9.64091C17.7772 9.7583 17.6115 9.85495 17.6077 9.85495C17.6038 9.85495 17.6 9.75486 17.6 9.634C17.6 8.97805 17.4535 8.31516 17.1837 7.75586C17.1567 7.70062 17.1336 7.64884 17.1375 7.64534ZM21.234 8.3704C21.2456 8.38075 21.1955 8.66043 21.1493 8.82612C21.0105 9.34055 20.6367 10.1036 20.1782 10.8217C20.0972 10.9494 20.024 11.053 20.0162 11.0564C20.0086 11.0599 19.9045 11.0081 19.785 10.9459C19.338 10.7112 18.8293 10.4902 18.2743 10.283C18.1202 10.2244 17.9853 10.176 17.9815 10.1692C17.9544 10.1484 19.1954 9.41304 19.8505 9.06089C20.3708 8.7778 21.2186 8.35657 21.234 8.3704ZM21.5269 8.41181C21.5616 8.41181 22.263 8.58446 22.6291 8.68113C23.5348 8.92282 24.5753 9.2646 25.2535 9.54079L25.5348 9.65477L25.3383 9.69616C23.6813 10.0379 22.263 10.4316 20.8949 10.9287C20.7831 10.9701 20.6829 11.0047 20.6753 11.0047C20.6675 11.0047 20.7061 10.9253 20.7562 10.8286C21.1686 10.0449 21.4345 9.22662 21.4999 8.52918C21.5038 8.46357 21.5153 8.41181 21.5269 8.41181ZM14.5439 9.84808C14.5554 9.8377 15.0911 9.95166 15.3801 10.0241C15.8195 10.1346 16.752 10.4142 16.752 10.435C16.752 10.4384 16.648 10.5178 16.5248 10.6145C16.0199 10.9909 15.5343 11.3878 14.9523 11.8919C14.7789 12.0404 14.6325 12.1613 14.6248 12.1613C14.6171 12.1613 14.6133 12.1405 14.6171 12.1129C14.7057 11.5328 14.6865 10.7871 14.5631 10.031C14.5515 9.93433 14.54 9.85151 14.5439 9.84808ZM25.8008 9.85846C25.8085 9.86532 25.5542 10.2244 25.3923 10.4281C25.1611 10.725 24.8219 11.1186 24.055 11.9817C23.6504 12.4374 23.1956 12.9519 23.0454 13.1245C22.8911 13.2971 22.764 13.4421 22.7601 13.4421C22.7563 13.4421 22.7062 13.38 22.6523 13.304C22.2206 12.724 21.7042 12.2165 21.0914 11.7608C20.9758 11.6744 20.8487 11.5812 20.8063 11.5536C20.7639 11.526 20.7292 11.4983 20.7292 11.4949C20.7292 11.4846 21.3843 11.2325 21.8815 11.053C22.7525 10.7353 23.9393 10.3556 24.8296 10.1104C25.2959 9.97926 25.7931 9.85151 25.8008 9.85846ZM26.0976 9.92746C26.1129 9.92403 26.2055 9.96546 26.3172 10.0241C27.2537 10.504 28.1709 11.122 28.8954 11.7573C29.0997 11.9369 29.6045 12.4064 29.5968 12.4098C29.5968 12.4098 29.4195 12.4236 29.2114 12.4374C27.589 12.5479 25.5118 12.8552 23.5155 13.2867C23.3807 13.3143 23.2612 13.3385 23.2535 13.3385C23.2458 13.3385 23.3961 13.2039 23.5849 13.0416C24.7565 12.03 25.2922 11.3913 25.9242 10.252C26.0128 10.0828 26.0899 9.93784 26.0976 9.92746C26.0937 9.92746 26.0937 9.92746 26.0976 9.92746ZM17.5151 10.7147C17.5691 10.725 18.0701 10.9357 18.4478 11.1048C18.7946 11.2601 19.3149 11.5087 19.3419 11.5294C19.3457 11.5328 19.1607 11.6192 18.9334 11.7193C18.2088 12.0438 17.5884 12.3511 16.9409 12.7032C16.7559 12.8034 16.6018 12.8863 16.598 12.8863C16.5825 12.8863 16.5864 12.8724 16.6904 12.7032C17.0373 12.1371 17.3147 11.4604 17.4728 10.8009C17.4881 10.7492 17.5036 10.7147 17.5151 10.7147ZM17.0141 10.7975C17.0257 10.8079 16.8947 11.2325 16.8138 11.4638C16.6557 11.9023 16.3898 12.4512 16.1316 12.8655C16.0699 12.9622 15.9774 13.1037 15.9274 13.1831L15.831 13.3212L15.6152 13.1348C15.3647 12.9173 15.1604 12.7827 14.8984 12.6618C14.7943 12.6135 14.7134 12.572 14.7134 12.5652C14.7134 12.5376 15.3724 12.0024 15.8773 11.6157C16.2395 11.3361 17.0026 10.7871 17.0141 10.7975ZM20.078 11.9265L20.2668 12.0369C20.6983 12.289 21.207 12.6239 21.5963 12.9173C21.816 13.0795 22.2399 13.4214 22.3247 13.5043L22.3709 13.5492L22.0588 13.6286C20.2937 14.067 18.9295 14.4571 17.3378 14.9819C17.1606 15.0406 17.0103 15.0889 16.9987 15.0889C16.9756 15.0889 16.9563 15.1062 17.3533 14.7782C18.3707 13.9393 19.2725 13.014 19.943 12.1129L20.078 11.9265ZM19.2725 12.106C19.2802 12.1129 18.7522 12.7792 18.4362 13.1555C18.0585 13.6044 17.3879 14.357 16.9255 14.8472C16.7328 15.051 16.5672 15.2201 16.5594 15.2236C16.5478 15.227 16.544 15.1753 16.544 15.0958C16.544 14.678 16.4245 14.2327 16.2164 13.8529C16.1278 13.6941 16.1123 13.6561 16.1317 13.6389C16.2049 13.5802 17.3263 13.0071 18.0354 12.6653C18.5133 12.4374 19.2608 12.0991 19.2725 12.106ZM14.4012 13.1763C14.4128 13.1763 14.5015 13.2177 14.6017 13.266C14.8483 13.3869 15.068 13.5215 15.2645 13.6665C15.2722 13.6734 15.172 13.746 15.041 13.8322C14.6749 14.067 14.1199 14.4433 13.7963 14.6747C13.4571 14.9163 13.4456 14.9232 13.4841 14.8715C13.7384 14.5228 13.8656 14.326 14.0005 14.0739C14.1199 13.8496 14.2394 13.5837 14.3242 13.3524C14.355 13.2522 14.3936 13.1763 14.4012 13.1763ZM15.7 14.0877C15.7192 14.0843 15.7424 14.1153 15.8464 14.2535C16.0661 14.5469 16.2357 14.9405 16.2781 15.2581L16.2857 15.3272L15.7578 15.5102C14.8136 15.8382 13.9427 16.1627 13.353 16.4044C13.1873 16.4734 12.8983 16.5977 12.7095 16.6806C12.5206 16.7669 12.3665 16.8325 12.3665 16.829C12.3665 16.8256 12.4859 16.7462 12.6323 16.6495C13.7847 15.9003 14.7828 15.0786 15.5304 14.2569C15.6114 14.1706 15.6846 14.0912 15.6923 14.0877L15.7 14.0877ZM15.1027 14.2189C15.1181 14.2327 14.6788 14.6781 14.3782 14.9508C13.6344 15.631 12.8983 16.1627 11.9849 16.6806C11.8693 16.7462 11.7653 16.8049 11.7537 16.8118C11.7267 16.8256 11.7614 16.7911 12.1622 16.4009C12.4166 16.1558 12.6092 15.9486 12.8289 15.6932C12.9753 15.524 13.0023 15.4999 13.2143 15.3652C13.7809 14.9992 15.0873 14.2051 15.1027 14.2189Z" fill="url(#paint2_radial_1203_30260)"/>
</g>
</g>
<defs>
<linearGradient id="paint0_linear_1203_30260" x1="10.5666" y1="23.8805" x2="12.2999" y2="22.7373" gradientUnits="userSpaceOnUse">
<stop stop-color="#909CA9"/>
<stop offset="1" stop-color="#EDEDEE"/>
</linearGradient>
<linearGradient id="paint1_linear_1203_30260" x1="10.6078" y1="5.48208" x2="12.0912" y2="5.48208" gradientUnits="userSpaceOnUse">
<stop stop-color="#939FAB"/>
<stop offset="1" stop-color="#DCDEE1"/>
</linearGradient>
<radialGradient id="paint2_radial_1203_30260" cx="0" cy="0" r="1" gradientUnits="userSpaceOnUse" gradientTransform="translate(18.0927 11.5776) rotate(-172.336) scale(1.90841 3.43517)">
<stop stop-color="#EE352C"/>
<stop offset="1" stop-color="#A91D22"/>
</radialGradient>
</defs>
</svg>
