<svg viewBox="0 0 37 30" fill="none" xmlns="http://www.w3.org/2000/svg">
<g id="database-logo">
<path id="Vector" fill-rule="evenodd" clip-rule="evenodd" d="M29.0377 21.9529C27.653 21.9183 26.5788 22.0455 25.6784 22.3848C25.4192 22.478 25.0032 22.478 24.969 22.7703C25.1076 22.893 25.1242 23.0937 25.2457 23.2637C25.4533 23.5723 25.8174 23.9879 26.1461 24.2035L27.254 24.9129C27.9293 25.2826 28.6911 25.4985 29.3489 25.8686C29.73 26.0845 30.1107 26.362 30.4918 26.5935C30.6859 26.7168 30.8034 26.9176 31.046 26.9943L31.046 26.9476C30.9249 26.8094 30.89 26.609 30.7693 26.4542L30.2493 26.0075C29.7475 25.4063 29.1238 24.8818 28.4486 24.4506C27.8944 24.1113 26.6828 23.649 26.4577 23.0789L26.4235 23.0443C26.8039 23.0098 27.254 22.8899 27.6181 22.7973C28.2072 22.6591 28.7435 22.6895 29.3489 22.5509L30.1806 22.335L30.1806 22.1968C29.8689 21.9193 29.6439 21.5493 29.3151 21.2874C28.4323 20.6092 27.4621 19.9461 26.4577 19.3912C25.921 19.083 25.2283 18.8823 24.657 18.6207C24.4486 18.5281 24.1028 18.4818 23.9817 18.3277C23.6693 17.9891 23.4966 17.5417 23.2715 17.1405L21.8519 14.4583C21.5403 13.8571 21.3494 13.2559 20.9691 12.701C19.1854 10.0803 17.2458 8.49264 14.2676 6.9354C13.6273 6.61166 12.8655 6.47241 12.0556 6.30311L10.7571 6.24092C10.4796 6.13312 10.2029 5.84012 9.96032 5.70122C8.97343 5.14633 6.428 3.94394 5.70035 5.52847C5.23271 6.53046 6.39307 7.5169 6.78698 8.02585C7.08192 8.38035 7.46224 8.78114 7.67064 9.18194C7.78706 9.44384 7.82587 9.72164 7.94734 9.99908C8.22405 10.6773 8.48406 11.433 8.84769 12.0653C9.04173 12.389 9.24548 12.7287 9.48803 13.0213C9.62657 13.1941 9.86912 13.268 9.92074 13.5454C9.67819 13.854 9.6615 14.3159 9.52296 14.7019C8.89931 16.444 9.14186 18.6021 10.0247 19.8846C10.3022 20.2699 10.9561 21.1181 11.8433 20.794C12.6226 20.5166 12.4487 19.6379 12.6738 18.8671C12.7262 18.6822 12.6913 18.5589 12.7949 18.4352L12.7949 18.4697L13.5051 19.7492C14.0418 20.5045 14.9771 21.2909 15.7559 21.8153C16.1712 22.0928 16.5003 22.571 17.0195 22.7403L17.0195 22.6936L16.9854 22.6936C16.8814 22.5554 16.7254 22.4932 16.5868 22.3854C16.2752 22.108 15.929 21.7687 15.6865 21.4605C14.9596 20.5974 14.3193 19.6414 13.7476 18.6549C13.4701 18.1771 13.2276 17.6529 13.0033 17.1751C12.8985 16.9899 12.8985 16.7121 12.7258 16.6202C12.4658 16.9588 12.0855 17.2525 11.8941 17.6685C11.565 18.3312 11.5309 19.1483 11.4098 19.9962C11.34 20.0118 11.371 19.9962 11.34 20.0308C10.7866 19.9078 10.5956 19.3985 10.388 18.9673C9.86874 17.8727 9.7818 16.1154 10.232 14.8511C10.3531 14.5274 10.8731 13.5099 10.6655 13.2017C10.5607 12.9087 10.2153 12.7394 10.0244 12.5079C9.79927 12.2149 9.55749 11.8452 9.40148 11.5214C8.98624 10.6576 8.77861 9.70229 8.32805 8.83884C8.11965 8.43805 7.75641 8.0217 7.46185 7.652C7.13276 7.23566 6.7699 6.94266 6.50989 6.44961C6.42334 6.27685 6.30226 6.00251 6.44081 5.81732C6.47496 5.69397 6.54481 5.64456 6.68258 5.61692C6.90767 5.44416 7.54878 5.66322 7.77387 5.75513C8.4142 5.98662 8.95092 6.20222 9.48764 6.52562C9.73019 6.67972 9.99021 6.97272 10.3018 7.05012L10.6659 7.05012C11.22 7.15792 11.8429 7.08467 12.3618 7.22287C13.2796 7.48546 14.1105 7.87037 14.8556 8.28706C17.1235 9.5665 18.9941 11.3856 20.2577 13.5596C20.4653 13.9141 20.5519 14.2379 20.7428 14.6079C21.1068 15.3635 21.557 16.134 21.9199 16.8745C22.2839 17.599 22.63 18.3395 23.1493 18.9407C23.4093 19.2644 24.4478 19.4337 24.9151 19.6034C25.2616 19.7416 25.798 19.8659 26.1104 20.0353C26.6987 20.359 27.2874 20.729 27.8412 21.0835C28.1179 21.2681 28.9841 21.6536 29.0357 21.9612L29.0377 21.9529ZM11.3799 8.55656C11.1407 8.55467 10.9022 8.58058 10.6705 8.63361L10.6705 8.66816L10.7047 8.66816C10.8432 8.91486 11.0858 9.08451 11.2588 9.30045L11.6574 10.0405L11.6916 10.006C11.9341 9.85189 12.0556 9.6052 12.0556 9.2355C11.9516 9.12769 11.9345 9.01955 11.848 8.91175C11.7439 8.75765 11.5189 8.68025 11.3799 8.55725L11.3799 8.55656Z" fill="#00678C"/>
</g>
</svg>
