<svg viewBox="0 0 37 30" fill="none" xmlns="http://www.w3.org/2000/svg">
<g id="database-logo">
<g id="Group">
<g id="Vector">
<path d="M24.9644 20.787C25.1265 19.5779 25.0778 19.4015 26.0822 19.5967L26.3378 19.6172C27.1105 19.6483 28.1209 19.5058 28.7246 19.259C30.0025 18.728 30.7603 17.8406 29.5003 18.074C26.6262 18.605 26.4174 17.7328 26.4174 17.7328C29.4536 13.6969 30.7235 8.57397 29.6266 7.32042C26.6391 3.89921 21.4668 5.51716 21.3802 5.55992L21.3524 5.56438C20.7855 5.45747 20.159 5.3951 19.433 5.38619C18.1322 5.36837 17.1457 5.69178 16.3958 6.20051C16.3958 6.20051 7.16984 2.79534 7.59847 10.4833C7.68996 12.119 10.214 22.8673 13.2273 19.6154C14.3302 18.4269 15.3943 17.4228 15.3943 17.4228C15.9214 17.7373 16.5549 17.8976 17.2183 17.8397L17.27 17.8005C17.2547 17.9545 17.2617 18.1097 17.2909 18.262C16.5151 19.0389 16.7439 19.1752 15.1925 19.4612C13.6231 19.7508 14.546 20.2666 15.1467 20.4021C15.8767 20.566 17.5653 20.7976 18.707 19.3668L18.6613 19.5298C18.9656 19.7481 18.9447 21.0979 18.9895 22.0619C19.0342 23.0259 19.1048 23.9266 19.3246 24.4567C19.5444 24.9868 19.802 26.3544 21.8407 25.9713C23.5443 25.6444 24.8471 25.173 24.9664 20.795" fill="black"/>
<path d="M24.9644 20.787C25.1265 19.5779 25.0778 19.4015 26.0822 19.5967L26.3378 19.6172C27.1105 19.6483 28.1209 19.5058 28.7246 19.259C30.0025 18.728 30.7603 17.8406 29.5003 18.074C26.6262 18.605 26.4174 17.7328 26.4174 17.7328C29.4536 13.6969 30.7235 8.57397 29.6266 7.32042C26.6391 3.89921 21.4668 5.51716 21.3802 5.55992L21.3524 5.56438C20.7855 5.45747 20.159 5.3951 19.433 5.38619C18.1322 5.36837 17.1457 5.69178 16.3958 6.20051C16.3958 6.20051 7.16984 2.79534 7.59847 10.4833C7.68996 12.119 10.214 22.8673 13.2273 19.6154C14.3302 18.4269 15.3943 17.4228 15.3943 17.4228C15.9214 17.7373 16.5549 17.8976 17.2183 17.8397L17.27 17.8005C17.2547 17.9545 17.2617 18.1097 17.2909 18.262C16.5151 19.0389 16.7439 19.1752 15.1925 19.4612C13.6231 19.7508 14.546 20.2666 15.1467 20.4021C15.8767 20.566 17.5653 20.7976 18.707 19.3668L18.6613 19.5298C18.9656 19.7481 18.9447 21.0979 18.9895 22.0619C19.0342 23.0259 19.1048 23.9266 19.3246 24.4567C19.5444 24.9868 19.802 26.3544 21.8407 25.9713C23.5443 25.6443 24.8471 25.173 24.9664 20.795" stroke="black" stroke-width="3.00964"/>
</g>
<path id="Vector_2" d="M29.4925 18.082C26.6184 18.613 26.4096 17.7408 26.4096 17.7408C29.4458 13.7048 30.7158 8.58193 29.6198 7.32838C26.6323 3.90717 21.46 5.52601 21.3734 5.56788L21.3456 5.57234C20.7138 5.45878 20.0715 5.39882 19.4272 5.39326C18.1264 5.37544 17.1399 5.69885 16.39 6.20758C16.39 6.20758 7.16305 2.80241 7.59268 10.4903C7.68417 12.1261 10.2082 22.8744 13.2215 19.6224C14.3314 18.4268 15.3955 17.4227 15.3955 17.4227C15.9226 17.7372 16.5561 17.8976 17.2194 17.8397L17.2711 17.8005C17.2559 17.9545 17.263 18.1096 17.292 18.262C16.5163 19.0389 16.745 19.1752 15.1936 19.4612C13.6243 19.7507 14.5472 20.2666 15.1479 20.402C15.8778 20.5659 17.5665 20.7976 18.7082 19.3667L18.6624 19.5298C18.9668 19.7481 19.1796 20.949 19.1438 22.0378C19.108 23.1265 19.0841 23.8731 19.3228 24.4576C19.5615 25.042 19.8001 26.3553 21.8389 25.9722C23.5424 25.6452 24.4246 24.7961 24.5489 23.3831C24.6364 22.3781 24.8333 22.526 24.8472 21.6279L25.0063 21.2021C25.1883 19.8389 25.0362 19.3997 26.0854 19.6046L26.341 19.6251C27.1137 19.6563 28.1251 19.5137 28.7178 19.267C29.9957 18.736 30.7526 17.8486 29.4925 18.082Z" fill="#336791"/>
<g id="Group_2">
<g id="Group_3">
<path id="Vector_3" d="M18.8363 18.8563C18.7567 21.3919 18.8562 23.9453 19.1327 24.5583C19.4091 25.1713 20.0028 26.3847 22.0426 25.9945C23.7461 25.6675 24.3667 25.0341 24.6352 23.6362L25.2647 19.1663M16.3918 6.14527C16.3918 6.14527 7.15889 2.76327 7.58852 10.4512C7.68001 12.0869 10.204 22.8352 13.2174 19.5833C14.3173 18.3957 15.3118 17.4664 15.3118 17.4664M21.3782 5.52785C21.06 5.61694 26.5138 3.74152 29.6147 7.29013C30.7086 8.54368 29.4406 13.6666 26.4044 17.7025" stroke="white" stroke-width="1.00274" stroke-linecap="round" stroke-linejoin="round"/>
<path id="Vector_4" d="M26.4063 17.7012C26.4063 17.7012 26.6052 18.5743 29.4892 18.0415C30.7492 17.8081 29.9904 18.6955 28.7135 19.2265C27.6653 19.663 25.3143 19.7744 25.2755 19.173C25.1761 17.6183 26.5127 18.0905 26.4162 17.7012C26.3287 17.3502 25.73 17.0063 25.3362 16.1474C24.9911 15.399 20.6024 9.65245 26.5535 10.5051C26.7722 10.465 25.002 5.42672 19.4329 5.35367C13.8637 5.28061 14.0397 11.4878 14.0397 11.4878" stroke="white" stroke-width="1.00274" stroke-linecap="round" stroke-linejoin="bevel"/>
</g>
<g id="Group_4">
<path id="Vector_5" d="M17.2778 18.2299C16.5021 19.0068 16.7308 19.1431 15.1794 19.4291C13.6101 19.7187 14.533 20.2345 15.1337 20.3699C15.8636 20.5339 17.5523 20.7655 18.694 19.3338C19.0421 18.8972 18.692 18.2023 18.2146 18.0259C17.9839 17.9403 17.6756 17.8334 17.2798 18.2308L17.2778 18.2299Z" stroke="white" stroke-width="1.00274" stroke-linejoin="round"/>
<path id="Vector_6" d="M17.2272 18.2188C17.1477 17.7617 17.3943 17.2191 17.6578 16.583C18.0537 15.6297 18.9666 14.6764 18.2366 11.6499C17.6927 9.39579 14.0399 11.1803 14.0399 11.4859C14.0399 11.7915 14.2049 13.0362 13.9802 14.4839C13.6848 16.3745 15.3228 17.9729 17.2083 17.8098" stroke="white" stroke-width="1.00274" stroke-linecap="round" stroke-linejoin="round"/>
</g>
</g>
<g id="Group_5">
<path id="Vector_7" d="M16.3529 11.4425C16.336 11.5467 16.5667 11.8256 16.8661 11.863C17.1654 11.9004 17.421 11.683 17.4379 11.5779C17.4548 11.4728 17.2241 11.3587 16.9248 11.3213C16.6254 11.2839 16.3678 11.3391 16.3529 11.4425Z" fill="white" stroke="white" stroke-width="0.334715"/>
<path id="Vector_8" d="M25.4675 11.231C25.4834 11.3353 25.2537 11.6141 24.9544 11.6516C24.655 11.689 24.3974 11.4716 24.3825 11.3665C24.3676 11.2613 24.5963 11.1473 24.8957 11.1099C25.195 11.0725 25.4526 11.1277 25.4675 11.231Z" fill="white" stroke="white" stroke-width="0.166657"/>
</g>
<path id="Vector_9" d="M26.5372 10.5068C26.5869 11.3265 26.3403 11.8833 26.3084 12.7556C26.2627 14.0225 26.9827 15.4729 25.8977 16.9252" stroke="white" stroke-width="1.00274" stroke-linecap="round" stroke-linejoin="round"/>
</g>
</g>
</svg>
