<svg viewBox="0 0 37 30" fill="none" xmlns="http://www.w3.org/2000/svg">
<g id="database-logo" clip-path="url(#clip0_1203_30289)">
<g id="Group">
<path id="Vector" d="M34.6592 14.7277C34.6592 15.8285 33.7668 16.721 32.6658 16.721C31.565 16.721 30.6726 15.8285 30.6726 14.7277C30.6726 13.6268 31.565 12.7344 32.6658 12.7344C33.7668 12.7344 34.6592 13.6268 34.6592 14.7277Z" fill="#669CFE"/>
<path id="Vector_2" d="M30.549 18.7895C30.549 19.8903 29.6566 20.7827 28.5556 20.7827C27.4547 20.7827 26.5623 19.8903 26.5623 18.7895C26.5623 17.6886 27.4547 16.7961 28.5556 16.7961C29.6566 16.7961 30.549 17.6886 30.549 18.7895Z" fill="#3FE7FE"/>
<path id="Vector_3" d="M26.4321 22.9351C26.4321 24.0361 25.5397 24.9285 24.4389 24.9285C23.338 24.9285 22.4456 24.0361 22.4456 22.9351C22.4456 21.8343 23.338 20.9419 24.4389 20.9419C25.5397 20.9419 26.4321 21.8343 26.4321 22.9351Z" fill="#F6E8FA"/>
<path id="Vector_4" d="M30.4221 10.6369C30.4221 11.6674 29.5867 12.5027 28.5563 12.5027C27.5258 12.5027 26.6904 11.6674 26.6904 10.6369C26.6904 9.6064 27.5258 8.771 28.5563 8.771C29.5867 8.771 30.4221 9.6064 30.4221 10.6369Z" fill="#669CFE"/>
<path id="Vector_5" d="M26.3208 14.6923C26.3208 15.7228 25.4854 16.5582 24.455 16.5582C23.4245 16.5582 22.5891 15.7228 22.5891 14.6923C22.5891 13.6618 23.4245 12.8264 24.455 12.8264C25.4854 12.8264 26.3208 13.6618 26.3208 14.6923Z" fill="#3FE7FE"/>
<path id="Vector_6" d="M22.2329 18.8067C22.2329 19.8372 21.3976 20.6726 20.3671 20.6726C19.3366 20.6726 18.5012 19.8372 18.5012 18.8067C18.5012 17.7762 19.3366 16.9409 20.3671 16.9409C21.3976 16.9409 22.2329 17.7762 22.2329 18.8067Z" fill="#F6E8FA"/>
<path id="Vector_7" d="M26.1653 6.55921C26.1653 7.49505 25.4066 8.25391 24.4706 8.25391C23.5346 8.25391 22.7759 7.49505 22.7759 6.55921C22.7759 5.62321 23.5346 4.8645 24.4706 4.8645C25.4066 4.8645 26.1653 5.62321 26.1653 6.55921Z" fill="#669CFE"/>
<path id="Vector_8" d="M22.0695 10.6133C22.0695 11.5492 21.3106 12.308 20.3746 12.308C19.4388 12.308 18.6799 11.5492 18.6799 10.6133C18.6799 9.67732 19.4388 8.91846 20.3746 8.91846C21.3106 8.91846 22.0695 9.67732 22.0695 10.6133Z" fill="#3FE7FE"/>
<path id="Vector_9" d="M17.9661 14.7418C17.9661 15.6778 17.2074 16.4365 16.2714 16.4365C15.3354 16.4365 14.5767 15.6778 14.5767 14.7418C14.5767 13.806 15.3354 13.0471 16.2714 13.0471C17.2074 13.0471 17.9661 13.806 17.9661 14.7418Z" fill="#F6E8FA"/>
<path id="Vector_10" d="M21.928 2.46222C21.928 3.30356 21.246 3.98556 20.4047 3.98556C19.5634 3.98556 18.8813 3.30356 18.8813 2.46222C18.8813 1.62073 19.5634 0.938721 20.4047 0.938721C21.246 0.938721 21.928 1.62073 21.928 2.46222Z" fill="#669CFE"/>
<path id="Vector_11" d="M17.8167 6.53579C17.8167 7.37713 17.1347 8.05929 16.2934 8.05929C15.452 8.05929 14.77 7.37713 14.77 6.53579C14.77 5.69446 15.452 5.01245 16.2934 5.01245C17.1347 5.01245 17.8167 5.69446 17.8167 6.53579Z" fill="#3FE7FE"/>
<path id="Vector_12" d="M13.7182 10.6575C13.7182 11.4989 13.0361 12.1809 12.1947 12.1809C11.3534 12.1809 10.6714 11.4989 10.6714 10.6575C10.6714 9.81619 11.3534 9.13403 12.1947 9.13403C13.0361 9.13403 13.7182 9.81619 13.7182 10.6575Z" fill="#F6E8FA"/>
<path id="Vector_13" d="M13.5619 18.8188C13.5619 19.5665 12.9555 20.1728 12.2077 20.1728C11.4598 20.1728 10.8535 19.5665 10.8535 18.8188C10.8535 18.0708 11.4598 17.4646 12.2077 17.4646C12.9555 17.4646 13.5619 18.0708 13.5619 18.8188Z" fill="#6A9EFE"/>
<path id="Vector_14" d="M17.6429 22.9006C17.6429 23.6483 17.0365 24.2546 16.2887 24.2546C15.5408 24.2546 14.9346 23.6483 14.9346 22.9006C14.9346 22.1526 15.5408 21.5464 16.2887 21.5464C17.0365 21.5464 17.6429 22.1526 17.6429 22.9006Z" fill="#6A9EFE"/>
<path id="Vector_15" d="M21.7171 26.9743C21.7171 27.7222 21.1109 28.3285 20.363 28.3285C19.615 28.3285 19.0088 27.7222 19.0088 26.9743C19.0088 26.2264 19.615 25.6201 20.363 25.6201C21.1109 25.6201 21.7171 26.2264 21.7171 26.9743Z" fill="#6A9EFE"/>
<path id="Vector_16" d="M13.5816 26.9743C13.5816 27.7222 12.9752 28.3285 12.2275 28.3285C11.4795 28.3285 10.8733 27.7222 10.8733 26.9743C10.8733 26.2264 11.4795 25.6201 12.2275 25.6201C12.9752 25.6201 13.5816 26.2264 13.5816 26.9743Z" fill="#6A9EFE"/>
<path id="Vector_17" d="M5.36752 26.9743C5.36752 27.7222 4.76127 28.3285 4.01335 28.3285C3.26558 28.3285 2.65918 27.7222 2.65918 26.9743C2.65918 26.2264 3.26558 25.6201 4.01335 25.6201C4.76127 25.6201 5.36752 26.2264 5.36752 26.9743Z" fill="#6A9EFE"/>
<path id="Vector_18" d="M9.44857 22.8937C9.44857 23.6416 8.84233 24.2479 8.0944 24.2479C7.34663 24.2479 6.74023 23.6416 6.74023 22.8937C6.74023 22.1458 7.34663 21.5396 8.0944 21.5396C8.84233 21.5396 9.44857 22.1458 9.44857 22.8937Z" fill="#6A9EFE"/>
<path id="Vector_19" d="M13.5794 2.46652C13.5794 3.24803 12.9459 3.88161 12.1644 3.88161C11.3828 3.88161 10.7493 3.24803 10.7493 2.46652C10.7493 1.68485 11.3828 1.05127 12.1644 1.05127C12.9459 1.05127 13.5794 1.68485 13.5794 2.46652Z" fill="#3FE7FE"/>
<path id="Vector_20" d="M9.45973 6.60625C9.45973 7.38792 8.82615 8.0215 8.04448 8.0215C7.26297 8.0215 6.62939 7.38792 6.62939 6.60625C6.62939 5.82474 7.26297 5.19116 8.04448 5.19116C8.82615 5.19116 9.45973 5.82474 9.45973 6.60625Z" fill="#F6E8FA"/>
<path id="Vector_21" d="M5.14469 2.40808C5.14469 3.0387 4.63342 3.54997 4.00281 3.54997C3.37235 3.54997 2.86108 3.0387 2.86108 2.40808C2.86108 1.77763 3.37235 1.26636 4.00281 1.26636C4.63342 1.26636 5.14469 1.77763 5.14469 2.40808Z" fill="#F6E8FA"/>
</g>
</g>
<defs>
<clipPath id="clip0_1203_30289">
<rect width="36.1818" height="28.6677" fill="white" transform="translate(0.65918 0.938965)"/>
</clipPath>
</defs>
</svg>
