<svg viewBox="0 0 37 29" fill="none" xmlns="http://www.w3.org/2000/svg">
<g id="database-logo">
<path id="Vector" d="M16.5308 10.7134C16.8206 10.4238 16.9658 10.0855 16.9658 9.65056L16.9658 4.09333C16.9658 3.32028 16.3375 2.69214 15.5643 2.69214C14.7911 2.69214 14.163 3.32028 14.163 4.09333L14.163 7.28288L11.4569 5.68806C10.7805 5.25334 9.91055 5.44649 9.52417 6.12297C9.08926 6.79964 9.28241 7.66936 9.95889 8.05593C10.0072 8.05593 10.0072 8.10417 10.0557 8.10417L14.888 10.9068C15.3711 11.2451 16.0959 11.1486 16.5308 10.7134ZM14.453 14.0961C14.453 13.5645 14.2112 13.0813 13.728 12.8395L8.89593 10.0368C8.21926 9.60213 7.34954 9.79527 6.96297 10.4718C6.52796 11.1485 6.72139 12.0181 7.39787 12.4047C7.44621 12.4047 7.44621 12.453 7.49445 12.453L10.2488 14.0477L7.49445 15.6425C6.81797 16.0289 6.52796 16.8505 6.91463 17.5755C7.3013 18.3003 8.12269 18.5417 8.8474 18.1551C8.89593 18.1551 8.89593 18.1551 8.94398 18.1551L13.7765 15.3526C14.2112 15.1109 14.453 14.6277 14.453 14.0961ZM16.9658 18.4935L16.9658 24.099C16.9658 24.8721 16.3375 25.5002 15.5643 25.5002C14.7911 25.5002 14.163 24.872 14.163 24.099L14.163 20.958L11.4086 22.5527C10.7321 22.9874 9.86222 22.7942 9.47584 22.1178C9.04083 21.4412 9.23407 20.5714 9.91055 20.1848C9.95879 20.1848 9.95879 20.1365 10.0071 20.1365L14.8396 17.3338C15.5161 16.9471 16.4343 17.1888 16.8207 17.9136C16.9173 18.0584 17.0139 18.3003 16.9658 18.4935ZM19.4784 18.6385L19.4784 24.0989C19.4784 24.872 20.1066 25.5001 20.8798 25.5001C21.6529 25.5001 22.281 24.8719 22.281 24.0989L22.281 20.9579L24.987 22.5042C25.6635 22.939 26.5334 22.7458 26.92 22.0693C27.355 21.3926 27.1615 20.5229 26.4851 20.1364C26.4367 20.1364 26.4367 20.088 26.3885 20.088L21.5562 17.2854C20.8797 16.8987 20.0098 17.1404 19.6232 17.8169C19.5267 18.0584 19.4301 18.3968 19.4784 18.6385ZM21.9913 14.0961C21.9913 13.5645 22.2328 13.0813 22.716 12.8395L27.5483 10.0368C28.2248 9.60213 29.0947 9.79527 29.4813 10.4718C29.916 11.1485 29.7228 12.0181 29.0463 12.4047C28.998 12.4047 28.998 12.453 28.9497 12.453L26.1952 14.0477L28.9497 15.6424C29.6262 16.0288 29.916 16.8504 29.5295 17.5754C29.1429 18.2518 28.3213 18.5416 27.5965 18.155C27.5483 18.155 27.5483 18.1066 27.5 18.1066L22.6678 15.304C22.2328 15.1109 21.9429 14.6277 21.9913 14.0961ZM19.4784 9.55389L19.4784 4.09333C19.4784 3.32028 20.1066 2.69214 20.8798 2.69214C21.6529 2.69214 22.281 3.32028 22.281 4.09333L22.281 7.23435L24.987 5.68796C25.6635 5.25325 26.5334 5.44639 26.92 6.12287C27.355 6.79954 27.1615 7.66926 26.4851 8.05583C26.4367 8.05583 26.4367 8.10407 26.3885 8.10407L21.5562 10.9068C20.8797 11.2934 20.0098 11.0518 19.6232 10.3753C19.5267 10.1338 19.4301 9.8437 19.4784 9.55389ZM18.8019 11.5833C18.7054 11.4869 18.6085 11.4383 18.4636 11.4383L17.9804 11.4383C17.8355 11.4383 17.7388 11.4869 17.6422 11.5833L15.7092 13.5163C15.6127 13.6129 15.5643 13.7095 15.5643 13.8543L15.5643 14.3378C15.5643 14.4828 15.6127 14.5793 15.7092 14.6759L17.6422 16.6089C17.7388 16.7054 17.8355 16.7538 17.9804 16.7538L18.4636 16.7538C18.6085 16.7538 18.7054 16.7054 18.8019 16.6089L20.7347 14.6759C20.783 14.5793 20.8315 14.4343 20.8315 14.3378L20.8315 13.8543C20.8315 13.7094 20.783 13.6128 20.6864 13.5163L18.8019 11.5833ZM18.5119 13.2748C18.4636 13.2263 18.367 13.178 18.2704 13.178C18.1735 13.178 18.0769 13.2263 18.0288 13.2748L17.4488 13.8544C17.4004 13.9028 17.3521 13.9996 17.3521 14.0962C17.3521 14.1929 17.4004 14.2896 17.4488 14.338L18.0288 14.9177C18.0768 14.9659 18.1735 15.0144 18.2704 15.0144C18.3669 15.0144 18.4636 14.9659 18.5119 14.9177L19.0917 14.338C19.14 14.2896 19.1885 14.1929 19.1885 14.0962C19.1885 13.9996 19.14 13.9028 19.0917 13.8544L18.5119 13.2748Z" fill="#31BEF0"/>
</g>
</svg>
