<svg viewBox="0 0 37 37" fill="none" xmlns="http://www.w3.org/2000/svg">
<g id="database-logo">
<g id="Group 243">
<path id="Vector" d="M24.7681 17.6412C24.7681 17.3541 24.654 17.0786 24.451 16.8756C24.2479 16.6725 23.9725 16.5584 23.6853 16.5584C23.3981 16.5584 23.1227 16.6725 22.9197 16.8756C22.7166 17.0786 22.6025 17.3541 22.6025 17.6412C22.6082 17.8471 22.6775 18.0461 22.801 18.2109C22.9244 18.3758 23.0959 18.4983 23.2919 18.5616L23.2919 20.2111C22.8199 19.0025 21.9368 17.9992 20.7978 17.3778C20.9639 17.0168 21.1335 16.7064 21.2959 16.4213C21.9163 15.5036 22.6002 14.6304 23.3424 13.8081C23.7503 13.3245 24.1365 12.8697 24.4505 12.4726C25.3312 11.3682 26.2985 9.73676 26.118 8.76946C26.0961 8.63388 26.0442 8.50489 25.9662 8.39188C25.8881 8.27887 25.7859 8.18468 25.6668 8.11617C24.4433 7.3943 22.7794 9.74037 21.1443 12.0034C20.0615 13.4977 19.5021 15.6128 19.2458 16.8003C18.7443 16.6904 18.2325 16.6347 17.7191 16.6342C16.9726 16.6319 16.231 16.7539 15.5246 16.9952C15.4786 15.6705 15.5184 14.3444 15.6437 13.0249C16.0046 9.59239 15.8458 7.57837 15.1781 6.88899C15.0924 6.78536 14.984 6.70282 14.8614 6.64775C14.7387 6.59267 14.605 6.56654 14.4706 6.57137C12.4999 6.66882 12.7237 12.5557 12.7562 13.227C12.8356 14.8368 13.4781 16.793 13.8679 17.8758C12.9583 18.5954 12.2959 19.5808 11.973 20.6947L11.8322 20.6947C11.6839 20.688 11.5357 20.7107 11.3962 20.7616C11.2567 20.8125 11.1288 20.8905 11.0197 20.9913C10.9106 21.092 10.8225 21.2133 10.7606 21.3483C10.6988 21.4833 10.6643 21.6292 10.6592 21.7775L10.6592 23.6436C10.6648 23.7918 10.6996 23.9375 10.7616 24.0722C10.8236 24.207 10.9117 24.3281 11.0207 24.4287C11.1297 24.5294 11.2575 24.6075 11.3968 24.6585C11.536 24.7096 11.684 24.7327 11.8322 24.7264L12.0704 24.7264C12.3417 25.3622 12.7467 25.9322 13.2579 26.3975L12.897 26.7151C12.8128 26.7878 12.7607 26.8906 12.7519 27.0015C12.7431 27.1123 12.7784 27.2221 12.8501 27.3071C13.9329 28.6245 15.705 29.3788 17.6938 29.3788C19.6825 29.3788 21.462 28.6245 22.5375 27.3071C22.6092 27.2221 22.6445 27.1123 22.6357 27.0015C22.6269 26.8906 22.5748 26.7878 22.4906 26.7151L22.1297 26.3975C22.6424 25.9222 23.0473 25.3425 23.3172 24.6975L23.5879 24.6975C23.7361 24.7038 23.8841 24.6807 24.0233 24.6297C24.1626 24.5786 24.2904 24.5005 24.3994 24.3999C24.5084 24.2993 24.5964 24.1781 24.6585 24.0434C24.7205 23.9086 24.7553 23.7629 24.7609 23.6147L24.7609 21.7631C24.7556 21.5515 24.6871 21.3463 24.5642 21.174C24.4414 21.0016 24.2698 20.8699 24.0715 20.7958L24.0715 18.5616C24.2691 18.5 24.4425 18.3781 24.5674 18.2131C24.6923 18.0481 24.7625 17.8481 24.7681 17.6412Z" fill="#CDCCCC"/>
<path id="Vector_2" d="M15.9361 26.6889C16.2681 26.4687 15.3947 26.5517 15.3225 26.4037C14.9736 26.3729 14.6282 26.3113 14.2902 26.2197C13.6766 26.0572 12.204 25.0683 12.0452 24.119C11.8864 23.1698 12.0452 21.3687 12.7093 20.2859C13.1251 19.6262 13.6614 19.0507 14.2902 18.5895C14.2902 18.5895 13.0017 15.5252 12.8934 13.2116C12.7851 10.898 12.9656 6.77973 14.4743 6.70754C15.983 6.63536 15.7628 10.4901 15.5066 12.9986C15.3544 14.6643 15.3303 16.3391 15.4344 18.0084C16.077 17.8043 16.7454 17.6925 17.4195 17.6763C18.0135 17.6626 18.607 17.7183 19.1881 17.8424C19.1881 17.8424 19.6681 14.2908 21.249 12.0674C22.8299 9.84406 24.4974 7.57379 25.5802 8.21986C26.663 8.86593 25.2843 11.1723 24.3278 12.3742C23.3713 13.5761 21.7146 15.3808 21.1624 16.3445C20.8004 16.9858 20.4809 17.6501 20.2059 18.3332C21.1908 18.8387 21.996 19.6351 22.5123 20.6144C23.2919 22.17 23.3497 24.0829 22.931 24.895C22.7208 25.2701 22.4302 25.594 22.0802 25.8436C21.7301 26.0931 21.3292 26.2623 20.9061 26.3388C20.4261 26.3604 18.4085 26.8621 18.4085 26.8621L15.9361 26.6889Z" fill="white"/>
<path id="Vector_3" d="M19.4697 17.8764C19.4697 17.8764 20.6752 14.7327 21.7544 12.9677C22.8336 11.2027 24.281 9.86728 24.7358 10.138C25.1905 10.4087 23.8082 12.0582 22.5954 13.6788C21.6075 15.1098 20.7118 16.6022 19.9137 18.1471L19.4697 17.8764Z" fill="#DD00A1"/>
<path id="Vector_4" d="M14.6292 18.4146L14.9902 18.1475C14.9902 18.1475 14.9397 15.0038 14.9902 13.0944C15.0407 11.1851 15.1382 8.79929 14.4993 8.82095C13.8605 8.8426 13.4165 10.687 13.6656 13.2893C13.8449 15.0214 14.1672 16.7357 14.6292 18.4146Z" fill="#DD00A1"/>
<path id="Vector_5" d="M13.554 25.1524C13.9407 25.1524 14.2542 24.8389 14.2542 24.4522C14.2542 24.0655 13.9407 23.752 13.554 23.752C13.1673 23.752 12.8538 24.0655 12.8538 24.4522C12.8538 24.8389 13.1673 25.1524 13.554 25.1524Z" fill="#F9D8D2"/>
<path id="Vector_6" d="M21.8299 25.1524C22.2166 25.1524 22.5301 24.8389 22.5301 24.4522C22.5301 24.0655 22.2166 23.752 21.8299 23.752C21.4431 23.752 21.1296 24.0655 21.1296 24.4522C21.1296 24.8389 21.4431 25.1524 21.8299 25.1524Z" fill="#F9D8D2"/>
<path id="Vector_7" d="M18.8523 24.3933C18.8448 24.3889 18.8364 24.386 18.8278 24.3849C18.8191 24.3838 18.8103 24.3844 18.8018 24.3868C18.7934 24.3891 18.7855 24.3932 18.7787 24.3986C18.7719 24.4041 18.7662 24.4109 18.7621 24.4186C18.7621 24.4186 18.5528 24.7795 18.2496 24.8012C18.1469 24.7982 18.0459 24.7742 17.9528 24.7308C17.8597 24.6873 17.7765 24.6253 17.7082 24.5485L17.7082 24.0144C17.9031 23.9061 18.2171 23.5812 18.2171 23.4694C18.1897 23.3501 18.1203 23.2446 18.0215 23.1724C17.9228 23.1001 17.8013 23.0659 17.6793 23.0759C17.3184 23.0759 17.0657 23.3105 17.0657 23.5054C17.0657 23.7004 17.4627 23.953 17.5746 24.0252L17.5746 24.5522C17.5177 24.6245 17.4461 24.684 17.3647 24.7269C17.2832 24.7698 17.1937 24.7951 17.1018 24.8012C16.8167 24.8012 16.6001 24.4114 16.5965 24.4078C16.5881 24.3923 16.574 24.3806 16.5572 24.3753C16.5404 24.3699 16.5221 24.3712 16.5063 24.3789C16.4905 24.388 16.4788 24.4028 16.4734 24.4202C16.4681 24.4376 16.4695 24.4564 16.4774 24.4728C16.4774 24.4728 16.7336 24.9384 17.1018 24.9384C17.2058 24.9338 17.3078 24.9081 17.4015 24.8628C17.4952 24.8175 17.5787 24.7536 17.6468 24.6749C17.7966 24.8319 18.0005 24.926 18.2171 24.9384L18.2604 24.9384C18.3904 24.9128 18.5132 24.8587 18.6199 24.7801C18.7266 24.7015 18.8146 24.6002 18.8776 24.4836C18.882 24.476 18.8849 24.4677 18.886 24.459C18.8872 24.4503 18.8865 24.4415 18.8842 24.4331C18.8818 24.4247 18.8778 24.4168 18.8723 24.41C18.8668 24.4031 18.86 24.3975 18.8523 24.3933Z" fill="#10110E"/>
<path id="Vector_8" d="M14.29 18.5968C14.29 18.5968 13.2902 16.0702 13.0989 14.7492C12.9076 13.4282 12.738 11.2229 12.9907 9.75387C13.0992 9.07712 13.2462 8.4071 13.431 7.74707C13.431 7.74707 12.9654 11.1723 13.1386 12.6702C13.3119 14.1681 14.29 18.5968 14.29 18.5968Z" fill="#E5E5E5"/>
<path id="Vector_9" d="M19.188 17.8423C19.188 17.8423 19.9099 14.02 20.9602 12.5185C22.0105 11.017 23.3135 9.19431 23.974 8.73592L24.6345 8.27393C24.6345 8.27393 21.9852 11.0531 20.9602 13.327C19.9351 15.6009 19.188 17.8423 19.188 17.8423Z" fill="#E5E5E5"/>
<path id="Vector_10" d="M14.9905 22.1743C14.8818 22.1736 14.7754 22.2052 14.6847 22.265C14.594 22.3249 14.5231 22.4103 14.481 22.5105C14.439 22.6107 14.4276 22.7211 14.4483 22.8277C14.4691 22.9344 14.5211 23.0325 14.5976 23.1096C14.6742 23.1867 14.772 23.2393 14.8785 23.2607C14.985 23.2822 15.0955 23.2716 15.196 23.2301C15.2964 23.1887 15.3823 23.1184 15.4428 23.0281C15.5032 22.9378 15.5355 22.8316 15.5355 22.7229C15.5355 22.5781 15.4782 22.4391 15.3761 22.3363C15.274 22.2335 15.1353 22.1753 14.9905 22.1743ZM15.1457 22.6832C15.1064 22.6832 15.0688 22.6677 15.041 22.6399C15.0133 22.6122 14.9977 22.5745 14.9977 22.5353C14.9977 22.496 15.0133 22.4584 15.041 22.4306C15.0688 22.4029 15.1064 22.3873 15.1457 22.3873C15.1849 22.3873 15.2226 22.4029 15.2503 22.4306C15.2781 22.4584 15.2936 22.496 15.2936 22.5353C15.2937 22.5553 15.2896 22.5752 15.2817 22.5936C15.2739 22.6121 15.2623 22.6287 15.2478 22.6425C15.2333 22.6564 15.2161 22.6671 15.1973 22.6741C15.1785 22.6811 15.1585 22.6842 15.1384 22.6832L15.1457 22.6832Z" fill="#10110E"/>
<path id="Vector_11" d="M20.3755 22.1743C20.267 22.1743 20.1609 22.2065 20.0707 22.2668C19.9805 22.3271 19.9102 22.4127 19.8687 22.513C19.8271 22.6132 19.8163 22.7235 19.8374 22.83C19.8586 22.9364 19.9109 23.0341 19.9876 23.1109C20.0643 23.1876 20.1621 23.2398 20.2685 23.261C20.3749 23.2822 20.4852 23.2713 20.5855 23.2298C20.6857 23.1883 20.7714 23.118 20.8317 23.0277C20.892 22.9375 20.9241 22.8314 20.9241 22.7229C20.9241 22.5774 20.8663 22.4379 20.7635 22.335C20.6606 22.2321 20.521 22.1743 20.3755 22.1743ZM20.5307 22.6832C20.4918 22.6823 20.4547 22.6664 20.4271 22.6389C20.3995 22.6113 20.3837 22.5742 20.3827 22.5353C20.3883 22.4995 20.4065 22.467 20.4339 22.4434C20.4614 22.4199 20.4964 22.407 20.5325 22.407C20.5687 22.407 20.6037 22.4199 20.6311 22.4434C20.6586 22.467 20.6768 22.4995 20.6823 22.5353C20.6814 22.5748 20.665 22.6125 20.6367 22.6401C20.6083 22.6678 20.5703 22.6832 20.5307 22.6832Z" fill="#10110E"/>
<path id="Vector_12" opacity="0.2" d="M17.7803 26.5964C20.591 26.5964 22.8695 24.9546 22.8695 22.9293C22.8695 20.904 20.591 19.2622 17.7803 19.2622C14.9697 19.2622 12.6912 20.904 12.6912 22.9293C12.6912 24.9546 14.9697 26.5964 17.7803 26.5964Z" fill="#8ACCCE"/>
<path id="Vector_13" d="M23.9416 20.8895L23.9416 18.482C24.1315 18.4401 24.3023 18.3368 24.4276 18.1881C24.5529 18.0393 24.6256 17.8534 24.6346 17.6591C24.6095 17.4243 24.4985 17.2072 24.3229 17.0494C24.1473 16.8915 23.9196 16.8042 23.6835 16.8042C23.4474 16.8042 23.2197 16.8915 23.0441 17.0494C22.8685 17.2072 22.7575 17.4243 22.7324 17.6591C22.7406 17.8531 22.8126 18.0389 22.9373 18.1877C23.0619 18.3366 23.2323 18.44 23.4218 18.482L23.4218 20.8281L23.3532 20.8281C22.6314 18.3232 20.4983 16.7676 17.7155 16.7676C14.9326 16.7676 12.7851 18.3088 12.074 20.8281L11.8322 20.8281C11.5707 20.8153 11.3147 20.9064 11.12 21.0814C10.9253 21.2565 10.8076 21.5015 10.7927 21.7629L10.7927 23.6289C10.8086 23.8897 10.9266 24.1338 11.1212 24.3081C11.3158 24.4824 11.5713 24.573 11.8322 24.5602L12.1607 24.5602C12.4398 25.2681 12.8855 25.8983 13.46 26.3973L12.9908 26.816C12.962 26.8403 12.9382 26.8701 12.9209 26.9036C12.9036 26.9371 12.8932 26.9737 12.8902 27.0113C12.8872 27.0489 12.8916 27.0868 12.9033 27.1226C12.915 27.1585 12.9337 27.1917 12.9583 27.2202C14.0123 28.4943 15.7411 29.2415 17.6974 29.2415C19.6537 29.2415 21.3825 28.5196 22.4365 27.2202C22.4611 27.1917 22.4798 27.1585 22.4915 27.1226C22.5032 27.0868 22.5077 27.0489 22.5046 27.0113C22.5016 26.9737 22.4912 26.9371 22.4739 26.9036C22.4566 26.8701 22.4329 26.8403 22.404 26.816L21.9348 26.3973C22.5069 25.8962 22.9522 25.2666 23.2341 24.5602L23.5951 24.5602C23.856 24.573 24.1115 24.4824 24.3061 24.3081C24.5007 24.1338 24.6187 23.8897 24.6346 23.6289L24.6346 21.7629C24.6265 21.5627 24.555 21.3702 24.4305 21.2132C24.3059 21.0562 24.1347 20.9428 23.9416 20.8895ZM17.7155 19.4277C20.2925 19.4277 22.3859 21.1241 22.3859 23.2067C22.3859 25.4625 20.0327 26.4551 17.7155 26.4551C15.3983 26.4551 13.045 25.4444 13.045 23.2067C13.045 21.1241 15.1384 19.4277 17.7155 19.4277Z" fill="white"/>
<path id="Vector_14" d="M24.1148 23.0049L23.4218 23.0049C23.4218 22.8966 23.4218 22.7883 23.4218 22.6656C23.4214 22.205 23.3755 21.7456 23.2847 21.2941L23.577 21.2941C23.6422 21.2897 23.7076 21.2984 23.7693 21.3198C23.831 21.3412 23.8878 21.3748 23.9363 21.4186C23.9848 21.4623 24.024 21.5154 24.0516 21.5746C24.0791 21.6338 24.0945 21.698 24.0968 21.7633L24.1148 23.0049Z" fill="#515151"/>
<path id="Vector_15" d="M23.5951 24.0944L23.2341 24.0944C23.3028 23.8394 23.3547 23.5802 23.3893 23.3184L24.1112 23.3184L24.1112 23.6288C24.1089 23.6936 24.0937 23.7573 24.0663 23.816C24.0389 23.8748 24 23.9275 23.9518 23.9709C23.9037 24.0144 23.8473 24.0477 23.786 24.0689C23.7247 24.0901 23.6598 24.0988 23.5951 24.0944Z" fill="#515151"/>
<path id="Vector_16" d="M17.7153 28.7611C15.9829 28.7611 14.4453 28.1367 13.4744 27.0322L13.9616 26.5991C15.0707 27.3397 16.3822 27.718 17.7153 27.6819C19.0484 27.7173 20.3597 27.339 21.4691 26.5991L21.9527 27.0322C20.9854 28.1367 19.4442 28.7611 17.7153 28.7611Z" fill="#515151"/>
<path id="Vector_17" d="M11.8326 21.2947L12.143 21.2947C12.0529 21.7463 12.0069 22.2057 12.0058 22.6662C11.9972 22.7792 11.9972 22.8926 12.0058 23.0055L11.3309 23.0055L11.3309 21.7639C11.3296 21.6991 11.342 21.6348 11.3672 21.5752C11.3924 21.5155 11.4299 21.4618 11.4772 21.4175C11.5245 21.3733 11.5806 21.3395 11.6419 21.3183C11.7031 21.2972 11.7681 21.2891 11.8326 21.2947Z" fill="#515151"/>
<path id="Vector_18" d="M17.7159 19.1172C17.1296 19.1189 16.5464 19.2027 15.9834 19.3662L15.9834 17.4857C16.5469 17.3259 17.1302 17.2469 17.7159 17.2511C18.3004 17.2472 18.8825 17.3262 19.4448 17.4857L19.4448 19.3807C18.8852 19.2056 18.3022 19.1167 17.7159 19.1172Z" fill="black"/>
<path id="Vector_19" d="M15.6399 17.5942L15.6399 19.4928C13.9074 20.128 12.6983 21.5609 12.6983 23.2068C12.6983 25.3399 14.7231 26.7836 17.7153 26.7836C20.7074 26.7836 22.7323 25.3399 22.7323 23.2068C22.7323 21.5609 21.5195 20.128 19.7907 19.4928L19.7907 17.5942C21.8155 18.3161 23.0788 20.1894 23.0788 22.6798C23.0788 25.4807 20.9312 27.372 17.7153 27.372C14.4994 27.372 12.3518 25.4915 12.3518 22.6798C12.3518 20.1894 13.6151 18.3233 15.6399 17.5942Z" fill="#515151"/>
<path id="Vector_20" d="M11.3122 23.3184L12.0341 23.3184C12.067 23.5804 12.1189 23.8398 12.1893 24.0944L11.8283 24.0944C11.7635 24.0988 11.6984 24.0901 11.6369 24.069C11.5754 24.0478 11.5187 24.0145 11.4703 23.9711C11.4219 23.9278 11.3826 23.8751 11.3548 23.8163C11.3271 23.7575 11.3113 23.6937 11.3086 23.6288L11.3122 23.3184Z" fill="#515151"/>
<path id="Vector_21" d="M23.6814 18.0306C23.9206 18.0306 24.1145 17.8561 24.1145 17.6408C24.1145 17.4255 23.9206 17.251 23.6814 17.251C23.4422 17.251 23.2483 17.4255 23.2483 17.6408C23.2483 17.8561 23.4422 18.0306 23.6814 18.0306Z" fill="#515151"/>
</g>
</g>
</svg>
