<svg xmlns="http://www.w3.org/2000/svg" height="800" width="1200" viewBox="-64.905 -21.2 562.51 127.2"><path d="M77.6 2.9L46.2 58.4 14.9 2.9H0l46.3 81.9 38.9-68.9h48.2v-13H77.6z"/><path d="M78 35.9v45.3h55.4v-13H91V48.9h42.4v-13zm192.5-33h13v78.3h-13zm-5.1 0H199v.2c4.1 3.3 7.2 7.7 9 12.8h17.7v65.3h13V15.9h26.7zm-69.6 78.3h13L189.6 46c8.2-3.3 14-11.4 14-20.7 0-12.4-10-22.4-22.4-22.4h-42.4v78.3h13V47.6h25.7zm-44-65.3h29.4c5.2 0 9.4 4.2 9.4 9.4s-4.2 9.4-9.4 9.4h-29.4zM383.9 0l-33.4 55.6v.1c-4.7 7.8-13.2 13-22.9 13-14.8 0-26.8-12-26.8-26.8s12-26.8 26.8-26.8c9.1 0 17.1 4.5 22 11.5l7-11.7c-7.2-7.8-17.5-12.6-29-12.6C305.7 2.3 288 20 288 41.9c0 21.9 17.7 39.6 39.6 39.6 14.4 0 27-7.7 34-19.2l22.3-37.2 33.8 56.3 15-.2z"/></svg>