<svg width="18" height="18" viewBox="0 0 18 18" fill="none" xmlns="http://www.w3.org/2000/svg">
<g id="Iconex">
<g id="Lock open">
<rect id="Rectangle 2" x="2.99805" y="6.75" width="12" height="9" rx="3" stroke="#A31BCB" stroke-width="1.125"/>
<path id="Line" d="M8.99707 12L8.99707 10.5" stroke="#A31BCB" stroke-width="1.125" stroke-linecap="round" stroke-linejoin="round"/>
<path id="Vector" d="M10.9991 3.85672C11.1766 4.11162 11.5272 4.17431 11.7821 3.99674C12.037 3.81917 12.0997 3.46857 11.9222 3.21367L10.9991 3.85672ZM6.20767 3.03647C6.01464 3.27988 6.05549 3.63369 6.2989 3.82671C6.54232 4.01974 6.89612 3.97889 7.08915 3.73548L6.20767 3.03647ZM6.56152 6.75V5.25H5.43652V6.75H6.56152ZM6.56152 5.25C6.56152 3.90381 7.65283 2.8125 8.99902 2.8125V1.6875C7.03151 1.6875 5.43652 3.28249 5.43652 5.25H6.56152ZM11.9222 3.21367C11.4973 2.60377 10.8923 2.14205 10.1919 1.89316L9.81522 2.95321C10.2944 3.12351 10.7084 3.43942 10.9991 3.85672L11.9222 3.21367ZM10.1919 1.89316C9.49154 1.64427 8.73085 1.62068 8.0164 1.8257L8.3267 2.90706C8.81554 2.76678 9.33601 2.78292 9.81522 2.95321L10.1919 1.89316ZM8.0164 1.8257C7.30194 2.03072 6.6695 2.45407 6.20767 3.03647L7.08915 3.73548C7.40514 3.337 7.83786 3.04733 8.3267 2.90706L8.0164 1.8257Z" fill="#A31BCB"/>
</g>
</g>
</svg>
