<svg width="18" height="16" viewBox="0 0 18 16" fill="none" xmlns="http://www.w3.org/2000/svg">
<g id="Danger">
<path id="Rectangle 74" d="M1.50098 12.4451C1.50098 11.9895 1.61707 11.5415 1.83829 11.1433L6.47772 2.79234C6.88897 2.0521 7.60453 1.52978 8.43489 1.36371V1.36371C8.80858 1.28897 9.19337 1.28897 9.56707 1.36371V1.36371C10.3974 1.52978 11.113 2.0521 11.5242 2.79234L16.1637 11.1433C16.3849 11.5415 16.501 11.9895 16.501 12.4451V12.4451C16.501 13.9254 15.3009 15.1255 13.8205 15.1255H4.18141C2.70105 15.1255 1.50098 13.9254 1.50098 12.4451V12.4451Z" stroke="#470D69" stroke-width="1.125"/>
<g id="Group 231">
<path id="Line" d="M9.00293 5.75049L9.00293 8.75049" stroke="#470D69" stroke-width="1.125" stroke-linecap="round" stroke-linejoin="round"/>
<path id="Line_2" d="M9.00293 10.9992L9.00293 11.376" stroke="#470D69" stroke-width="1.125" stroke-linecap="round" stroke-linejoin="round"/>
</g>
</g>
</svg>
