<svg width="17" height="16" viewBox="0 0 17 16" fill="none" xmlns="http://www.w3.org/2000/svg">
<g id="Danger">
<path id="Rectangle 74" d="M1.00195 12.4451C1.00195 11.9895 1.11804 11.5415 1.33927 11.1433L5.9787 2.79234C6.38995 2.0521 7.1055 1.52978 7.93587 1.36371V1.36371C8.30956 1.28897 8.69435 1.28897 9.06804 1.36371V1.36371C9.89841 1.52978 10.614 2.0521 11.0252 2.79234L15.6646 11.1433C15.8859 11.5415 16.002 11.9895 16.002 12.4451V12.4451C16.002 13.9254 14.8019 15.1255 13.3215 15.1255H3.68238C2.20202 15.1255 1.00195 13.9254 1.00195 12.4451V12.4451Z" stroke="#A5A5A5" stroke-width="1.125"/>
<g id="Group 231">
<path id="Line" d="M8.50391 5.75049L8.50391 8.75049" stroke="#A5A5A5" stroke-width="1.125" stroke-linecap="round" stroke-linejoin="round"/>
<path id="Line_2" d="M8.50391 10.9992L8.50391 11.376" stroke="#A5A5A5" stroke-width="1.125" stroke-linecap="round" stroke-linejoin="round"/>
</g>
</g>
</svg>
