<svg width="15" height="8" viewBox="0 0 15 8" fill="none" xmlns="http://www.w3.org/2000/svg">
<path d="M13.6562 2.15625L7.90625 7.65625C7.65625 7.88542 7.36458 8 7.03125 8C6.69792 8 6.40625 7.88542 6.15625 7.65625L0.40625 2.15625C0.15625 1.90625 0.03125 1.61458 0.03125 1.28125C0.03125 0.927083 0.145833 0.625 0.375 0.375C0.625 0.125 0.916667 0 1.25 0C1.60417 0 1.90625 0.114583 2.15625 0.34375L7.03125 5.03125L11.9062 0.34375C12.1562 0.114583 12.4479 0 12.7812 0C13.1354 0 13.4271 0.125 13.6562 0.375C13.9062 0.625 14.0312 0.927083 14.0312 1.28125C14.0312 1.61458 13.9062 1.90625 13.6562 2.15625Z" fill="currentColor"/>
</svg>
