<svg width="13" height="14" viewBox="0 0 13 14" fill="none" xmlns="http://www.w3.org/2000/svg">
<path id="&#239;&#132;&#166;" opacity="0.5" d="M12.75 2.1875C12.75 2.625 12.6315 3.02604 12.3945 3.39062C12.1576 3.75521 11.8385 4.01953 11.4375 4.18359V5.25C11.4375 5.97917 11.1823 6.59896 10.6719 7.10938C10.1615 7.61979 9.54167 7.875 8.8125 7.875H4.4375C4.20052 7.875 3.99089 7.96615 3.80859 8.14844C3.64453 8.3125 3.5625 8.51302 3.5625 8.75V9.81641C3.96354 9.98047 4.28255 10.2448 4.51953 10.6094C4.75651 10.974 4.875 11.375 4.875 11.8125C4.875 12.4141 4.65625 12.9245 4.21875 13.3438C3.79948 13.7812 3.28906 14 2.6875 14C2.08594 14 1.56641 13.7812 1.12891 13.3438C0.709635 12.9245 0.5 12.4141 0.5 11.8125C0.5 11.375 0.61849 10.974 0.855469 10.6094C1.09245 10.2448 1.41146 9.98047 1.8125 9.81641V4.18359C1.41146 4.01953 1.09245 3.75521 0.855469 3.39062C0.61849 3.02604 0.5 2.625 0.5 2.1875C0.5 1.58594 0.709635 1.07552 1.12891 0.65625C1.56641 0.21875 2.08594 0 2.6875 0C3.28906 0 3.79948 0.21875 4.21875 0.65625C4.65625 1.07552 4.875 1.58594 4.875 2.1875C4.875 2.47917 4.82031 2.76172 4.71094 3.03516C4.60156 3.29036 4.44661 3.51823 4.24609 3.71875C4.04557 3.91927 3.81771 4.07422 3.5625 4.18359V6.28906C3.8724 6.17969 4.16406 6.125 4.4375 6.125H8.8125C9.04948 6.125 9.25 6.04297 9.41406 5.87891C9.59635 5.69661 9.6875 5.48698 9.6875 5.25V4.18359C9.28646 4.01953 8.96745 3.75521 8.73047 3.39062C8.49349 3.02604 8.375 2.625 8.375 2.1875C8.375 1.58594 8.58464 1.07552 9.00391 0.65625C9.44141 0.21875 9.96094 0 10.5625 0C11.1641 0 11.6745 0.21875 12.0938 0.65625C12.5312 1.07552 12.75 1.58594 12.75 2.1875ZM3.15234 1.72266C3.02474 1.59505 2.86979 1.53125 2.6875 1.53125C2.50521 1.53125 2.35026 1.59505 2.22266 1.72266C2.09505 1.85026 2.03125 2.00521 2.03125 2.1875C2.03125 2.36979 2.09505 2.52474 2.22266 2.65234C2.35026 2.77995 2.50521 2.84375 2.6875 2.84375C2.86979 2.84375 3.02474 2.77995 3.15234 2.65234C3.27995 2.52474 3.34375 2.36979 3.34375 2.1875C3.34375 2.00521 3.27995 1.85026 3.15234 1.72266ZM2.22266 12.2773C2.35026 12.4049 2.50521 12.4688 2.6875 12.4688C2.86979 12.4688 3.02474 12.4049 3.15234 12.2773C3.27995 12.1497 3.34375 11.9948 3.34375 11.8125C3.34375 11.6302 3.27995 11.4753 3.15234 11.3477C3.02474 11.2201 2.86979 11.1562 2.6875 11.1562C2.50521 11.1562 2.35026 11.2201 2.22266 11.3477C2.09505 11.4753 2.03125 11.6302 2.03125 11.8125C2.03125 11.9948 2.09505 12.1497 2.22266 12.2773ZM11.0273 1.72266C10.8997 1.59505 10.7448 1.53125 10.5625 1.53125C10.3802 1.53125 10.2253 1.59505 10.0977 1.72266C9.97005 1.85026 9.90625 2.00521 9.90625 2.1875C9.90625 2.36979 9.97005 2.52474 10.0977 2.65234C10.2253 2.77995 10.3802 2.84375 10.5625 2.84375C10.7448 2.84375 10.8997 2.77995 11.0273 2.65234C11.1549 2.52474 11.2188 2.36979 11.2188 2.1875C11.2188 2.00521 11.1549 1.85026 11.0273 1.72266Z" fill="black"/>
</svg>
