<svg width="13" height="15" viewBox="0 0 13 15" fill="none" xmlns="http://www.w3.org/2000/svg">
<path d="M12.75 2.6875C12.75 3.125 12.6315 3.52604 12.3945 3.89062C12.1576 4.25521 11.8385 4.51953 11.4375 4.68359V5.75C11.4375 6.47917 11.1823 7.09896 10.6719 7.60938C10.1615 8.11979 9.54167 8.375 8.8125 8.375H4.4375C4.20052 8.375 3.99089 8.46615 3.80859 8.64844C3.64453 8.8125 3.5625 9.01302 3.5625 9.25V10.3164C3.96354 10.4805 4.28255 10.7448 4.51953 11.1094C4.75651 11.474 4.875 11.875 4.875 12.3125C4.875 12.9141 4.65625 13.4245 4.21875 13.8438C3.79948 14.2812 3.28906 14.5 2.6875 14.5C2.08594 14.5 1.56641 14.2812 1.12891 13.8438C0.709635 13.4245 0.5 12.9141 0.5 12.3125C0.5 11.875 0.61849 11.474 0.855469 11.1094C1.09245 10.7448 1.41146 10.4805 1.8125 10.3164V4.68359C1.41146 4.51953 1.09245 4.25521 0.855469 3.89062C0.61849 3.52604 0.5 3.125 0.5 2.6875C0.5 2.08594 0.709635 1.57552 1.12891 1.15625C1.56641 0.71875 2.08594 0.5 2.6875 0.5C3.28906 0.5 3.79948 0.71875 4.21875 1.15625C4.65625 1.57552 4.875 2.08594 4.875 2.6875C4.875 2.97917 4.82031 3.26172 4.71094 3.53516C4.60156 3.79036 4.44661 4.01823 4.24609 4.21875C4.04557 4.41927 3.81771 4.57422 3.5625 4.68359V6.78906C3.8724 6.67969 4.16406 6.625 4.4375 6.625H8.8125C9.04948 6.625 9.25 6.54297 9.41406 6.37891C9.59635 6.19661 9.6875 5.98698 9.6875 5.75V4.68359C9.28646 4.51953 8.96745 4.25521 8.73047 3.89062C8.49349 3.52604 8.375 3.125 8.375 2.6875C8.375 2.08594 8.58464 1.57552 9.00391 1.15625C9.44141 0.71875 9.96094 0.5 10.5625 0.5C11.1641 0.5 11.6745 0.71875 12.0938 1.15625C12.5312 1.57552 12.75 2.08594 12.75 2.6875ZM3.15234 2.22266C3.02474 2.09505 2.86979 2.03125 2.6875 2.03125C2.50521 2.03125 2.35026 2.09505 2.22266 2.22266C2.09505 2.35026 2.03125 2.50521 2.03125 2.6875C2.03125 2.86979 2.09505 3.02474 2.22266 3.15234C2.35026 3.27995 2.50521 3.34375 2.6875 3.34375C2.86979 3.34375 3.02474 3.27995 3.15234 3.15234C3.27995 3.02474 3.34375 2.86979 3.34375 2.6875C3.34375 2.50521 3.27995 2.35026 3.15234 2.22266ZM2.22266 12.7773C2.35026 12.9049 2.50521 12.9688 2.6875 12.9688C2.86979 12.9688 3.02474 12.9049 3.15234 12.7773C3.27995 12.6497 3.34375 12.4948 3.34375 12.3125C3.34375 12.1302 3.27995 11.9753 3.15234 11.8477C3.02474 11.7201 2.86979 11.6562 2.6875 11.6562C2.50521 11.6562 2.35026 11.7201 2.22266 11.8477C2.09505 11.9753 2.03125 12.1302 2.03125 12.3125C2.03125 12.4948 2.09505 12.6497 2.22266 12.7773ZM11.0273 2.22266C10.8997 2.09505 10.7448 2.03125 10.5625 2.03125C10.3802 2.03125 10.2253 2.09505 10.0977 2.22266C9.97005 2.35026 9.90625 2.50521 9.90625 2.6875C9.90625 2.86979 9.97005 3.02474 10.0977 3.15234C10.2253 3.27995 10.3802 3.34375 10.5625 3.34375C10.7448 3.34375 10.8997 3.27995 11.0273 3.15234C11.1549 3.02474 11.2188 2.86979 11.2188 2.6875C11.2188 2.50521 11.1549 2.35026 11.0273 2.22266Z" fill="#470D69"/>
</svg>
