<svg width="13" height="15" viewBox="0 0 13 15" fill="none" xmlns="http://www.w3.org/2000/svg">
<path d="M12.25 2.66797C12.25 3.10547 12.1315 3.50651 11.8945 3.87109C11.6576 4.23568 11.3385 4.5 10.9375 4.66406V5.73047C10.9375 6.45964 10.6823 7.07943 10.1719 7.58984C9.66146 8.10026 9.04167 8.35547 8.3125 8.35547H3.9375C3.70052 8.35547 3.49089 8.44661 3.30859 8.62891C3.14453 8.79297 3.0625 8.99349 3.0625 9.23047V10.2969C3.46354 10.4609 3.78255 10.7253 4.01953 11.0898C4.25651 11.4544 4.375 11.8555 4.375 12.293C4.375 12.8945 4.15625 13.4049 3.71875 13.8242C3.29948 14.2617 2.78906 14.4805 2.1875 14.4805C1.58594 14.4805 1.06641 14.2617 0.628906 13.8242C0.209635 13.4049 0 12.8945 0 12.293C0 11.8555 0.11849 11.4544 0.355469 11.0898C0.592448 10.7253 0.911458 10.4609 1.3125 10.2969V4.66406C0.911458 4.5 0.592448 4.23568 0.355469 3.87109C0.11849 3.50651 0 3.10547 0 2.66797C0 2.06641 0.209635 1.55599 0.628906 1.13672C1.06641 0.699219 1.58594 0.480469 2.1875 0.480469C2.78906 0.480469 3.29948 0.699219 3.71875 1.13672C4.15625 1.55599 4.375 2.06641 4.375 2.66797C4.375 2.95964 4.32031 3.24219 4.21094 3.51562C4.10156 3.77083 3.94661 3.9987 3.74609 4.19922C3.54557 4.39974 3.31771 4.55469 3.0625 4.66406V6.76953C3.3724 6.66016 3.66406 6.60547 3.9375 6.60547H8.3125C8.54948 6.60547 8.75 6.52344 8.91406 6.35938C9.09635 6.17708 9.1875 5.96745 9.1875 5.73047V4.66406C8.78646 4.5 8.46745 4.23568 8.23047 3.87109C7.99349 3.50651 7.875 3.10547 7.875 2.66797C7.875 2.06641 8.08464 1.55599 8.50391 1.13672C8.94141 0.699219 9.46094 0.480469 10.0625 0.480469C10.6641 0.480469 11.1745 0.699219 11.5938 1.13672C12.0312 1.55599 12.25 2.06641 12.25 2.66797ZM2.65234 2.20312C2.52474 2.07552 2.36979 2.01172 2.1875 2.01172C2.00521 2.01172 1.85026 2.07552 1.72266 2.20312C1.59505 2.33073 1.53125 2.48568 1.53125 2.66797C1.53125 2.85026 1.59505 3.00521 1.72266 3.13281C1.85026 3.26042 2.00521 3.32422 2.1875 3.32422C2.36979 3.32422 2.52474 3.26042 2.65234 3.13281C2.77995 3.00521 2.84375 2.85026 2.84375 2.66797C2.84375 2.48568 2.77995 2.33073 2.65234 2.20312ZM1.72266 12.7578C1.85026 12.8854 2.00521 12.9492 2.1875 12.9492C2.36979 12.9492 2.52474 12.8854 2.65234 12.7578C2.77995 12.6302 2.84375 12.4753 2.84375 12.293C2.84375 12.1107 2.77995 11.9557 2.65234 11.8281C2.52474 11.7005 2.36979 11.6367 2.1875 11.6367C2.00521 11.6367 1.85026 11.7005 1.72266 11.8281C1.59505 11.9557 1.53125 12.1107 1.53125 12.293C1.53125 12.4753 1.59505 12.6302 1.72266 12.7578ZM10.5273 2.20312C10.3997 2.07552 10.2448 2.01172 10.0625 2.01172C9.88021 2.01172 9.72526 2.07552 9.59766 2.20312C9.47005 2.33073 9.40625 2.48568 9.40625 2.66797C9.40625 2.85026 9.47005 3.00521 9.59766 3.13281C9.72526 3.26042 9.88021 3.32422 10.0625 3.32422C10.2448 3.32422 10.3997 3.26042 10.5273 3.13281C10.6549 3.00521 10.7188 2.85026 10.7188 2.66797C10.7188 2.48568 10.6549 2.33073 10.5273 2.20312Z" fill="black"/>
</svg>
