<svg width="20" height="20" viewBox="0 0 64 64" xmlns="http://www.w3.org/2000/svg">

 <g>
  <rect fill="none" id="canvas_background" height="20" width="20" y="-1" x="-1"/>
 </g>
 <g fill="#A5A5A5">
  <path id="svg_1" d="m53.5542,10.21191c-4.99365,-0.29 -10.65283,-3.583 -12.854,-4.98535a6.98313,6.98313 0 0 0 -3.75635,-1.09375l-9.88721,0a6.93083,6.93083 0 0 0 -3.73682,1.082c-2.2041,1.40528 -7.8706,4.707 -12.874,4.99707a2.98666,2.98666 0 0 0 -2.8081,2.9834l0,19.0918a18.41449,18.41449 0 0 0 1.146,6.49414a34.56338,34.56338 0 0 0 21.15915,20.73441a6.22659,6.22659 0 0 0 4.11475,0a34.56268,34.56268 0 0 0 21.15674,-20.73047a18.44,18.44 0 0 0 1.14794,-6.50391l0,-19.08105a2.98949,2.98949 0 0 0 -2.8081,-2.98829zm0.8081,22.06934c-0.27594,8.58115 -7.0706,20.2677 -20.96793,25.34786a4.21414,4.21414 0 0 1 -2.78792,-0.0002a32.588,32.588 0 0 1 -19.9502,-19.55078a16.42527,16.42527 0 0 1 -1.01855,-5.791l0,-19.09182a0.98607,0.98607 0 0 1 0.92334,-0.9873c5.27636,-0.30469 10.93261,-3.45601 13.83396,-5.30762a4.94175,4.94175 0 0 1 2.66162,-0.76758l9.88721,0a4.98828,4.98828 0 0 1 2.68213,0.78125c2.898,1.84571 8.54638,4.98828 13.8125,5.294a0.98863,0.98863 0 0 1 0.92382,0.99219l0.00002,19.081z"/>
  <path id="svg_2" d="m32.32324,11.02637c-11.55543,-0.1647 -14.92262,15.33539 -4.52324,20.05281l-0.551,17.81633a1.854,1.854 0 0 0 0.49854,1.3164l2.05469,2.18653a1.83539,1.83539 0 0 0 2.46777,0.19531l2.53369,-1.959c0.87359,-0.56163 0.71258,-1.92806 0.75582,-2.81352c0.12428,-1.16586 -1.51925,-2.20373 -2.19427,-2.9834c0.63005,-0.69994 2.32131,-1.7687 2.25192,-2.8554l0.05616,-1.81936c0.13555,-1.04472 -1.36117,-2.13583 -1.93506,-2.83792l1.60693,-1.51169a1.84772,1.84772 0 0 0 0.58057,-1.28418l0.10437,-3.37232c10.24905,-4.39327 7.58311,-19.63619 -3.70689,-20.13059zm1.60547,23.374c-0.65258,0.727 -2.31722,1.75541 -2.25587,2.86325c-0.141,1.05644 1.42395,2.1926 1.99952,2.90533l-0.05224,1.68455c-0.754,0.82763 -2.38936,1.80133 -2.32521,2.96286c-0.08455,1.16748 1.52068,2.1609 2.26365,3.01276l-0.039,1.27047l-2.35889,1.82422l-1.91067,-2.03318l0.53094,-17.16944a10.26227,10.26227 0 0 0 4.22925,0.04932l-0.08148,2.62986zm-2.19043,-4.43848a8.48174,8.48174 0 0 1 -8.20654,-8.72949c0.72659,-11.2026 16.90274,-10.69543 16.93653,0.5226a8.49707,8.49707 0 0 1 -8.72999,8.20691l0,-0.00002z"/>
  <path id="svg_3" d="m31.43848,14.75977a4.088,4.088 0 0 0 -0.25236,8.17188a4.088,4.088 0 0 0 0.25236,-8.17188zm-0.19092,6.17187a2.08715,2.08715 0 0 1 0.12948,-4.17187a2.08715,2.08715 0 0 1 -0.12948,4.17187z"/>
 </g>
</svg>