<svg width="12" height="17" viewBox="0 0 12 17" fill="none" xmlns="http://www.w3.org/2000/svg">
<path d="M11.4062 3.05078C11.8021 3.44661 12 3.92578 12 4.48828V14.1445C12 14.6862 11.8021 15.1549 11.4062 15.5508C11.0104 15.9466 10.5417 16.1445 10 16.1445H2C1.45833 16.1445 0.989583 15.9466 0.59375 15.5508C0.197917 15.1758 0 14.707 0 14.1445V2.14453C0 1.58203 0.1875 1.11328 0.5625 0.738281C0.958333 0.342448 1.4375 0.144531 2 0.144531H7.65625C8.21875 0.144531 8.69792 0.342448 9.09375 0.738281L11.4062 3.05078ZM10.5 14.1445V5.14453H8C7.72917 5.14453 7.48958 5.05078 7.28125 4.86328C7.09375 4.65495 7 4.41536 7 4.14453V1.64453H2C1.85417 1.64453 1.72917 1.69661 1.625 1.80078C1.54167 1.88411 1.5 1.9987 1.5 2.14453V14.1445C1.5 14.2904 1.54167 14.4049 1.625 14.4883C1.72917 14.5924 1.85417 14.6445 2 14.6445H10C10.1458 14.6445 10.2604 14.5924 10.3438 14.4883C10.4479 14.4049 10.5 14.2904 10.5 14.1445ZM5.625 9.45703L6.28125 10.0508C6.57292 10.3008 6.71875 10.5924 6.71875 10.9258C6.71875 11.0924 6.67708 11.2487 6.59375 11.3945C6.53125 11.5404 6.4375 11.6758 6.3125 11.8008C6.20833 11.9049 6.07292 11.9883 5.90625 12.0508C5.73958 12.1133 5.5625 12.1445 5.375 12.1445H5.25C5.10417 12.1445 4.97917 12.1029 4.875 12.0195C4.79167 11.9154 4.75 11.7904 4.75 11.6445C4.75 11.4987 4.79167 11.3841 4.875 11.3008C4.97917 11.1966 5.10417 11.1445 5.25 11.1445H5.375C5.60417 11.1445 5.71875 11.0716 5.71875 10.9258C5.71875 10.8841 5.6875 10.8529 5.625 10.832L4.96875 10.2383C4.67708 9.98828 4.53125 9.69661 4.53125 9.36328C4.53125 9.13411 4.59375 8.92578 4.71875 8.73828C4.84375 8.55078 5 8.40495 5.1875 8.30078C5.39583 8.19661 5.625 8.14453 5.875 8.14453H6C6.14583 8.14453 6.26042 8.19661 6.34375 8.30078C6.44792 8.38411 6.5 8.4987 6.5 8.64453C6.5 8.79036 6.44792 8.91536 6.34375 9.01953C6.26042 9.10286 6.14583 9.14453 6 9.14453H5.875C5.64583 9.14453 5.53125 9.21745 5.53125 9.36328C5.53125 9.40495 5.5625 9.4362 5.625 9.45703ZM3.84375 9.01953C3.76042 9.10286 3.64583 9.14453 3.5 9.14453C3.35417 9.14453 3.22917 9.19661 3.125 9.30078C3.04167 9.38411 3 9.4987 3 9.64453V10.6445C3 10.7904 3.04167 10.9154 3.125 11.0195C3.22917 11.1029 3.35417 11.1445 3.5 11.1445C3.64583 11.1445 3.76042 11.1966 3.84375 11.3008C3.94792 11.3841 4 11.4987 4 11.6445C4 11.7904 3.94792 11.9154 3.84375 12.0195C3.76042 12.1029 3.64583 12.1445 3.5 12.1445C3.08333 12.1445 2.72917 11.9987 2.4375 11.707C2.14583 11.4154 2 11.0612 2 10.6445V9.64453C2 9.22786 2.14583 8.8737 2.4375 8.58203C2.72917 8.29036 3.08333 8.14453 3.5 8.14453C3.64583 8.14453 3.76042 8.19661 3.84375 8.30078C3.94792 8.38411 4 8.4987 4 8.64453C4 8.79036 3.94792 8.91536 3.84375 9.01953ZM8 8.64453V9.05078C8 9.69661 8.16667 10.2904 8.5 10.832C8.83333 10.2904 9 9.69661 9 9.05078V8.64453C9 8.4987 9.04167 8.38411 9.125 8.30078C9.22917 8.19661 9.35417 8.14453 9.5 8.14453C9.64583 8.14453 9.76042 8.19661 9.84375 8.30078C9.94792 8.38411 10 8.4987 10 8.64453V9.05078C10 10.1966 9.625 11.1758 8.875 11.9883C8.77083 12.0924 8.64583 12.1445 8.5 12.1445C8.35417 12.1445 8.22917 12.0924 8.125 11.9883C7.375 11.1758 7 10.1966 7 9.05078V8.64453C7 8.4987 7.04167 8.38411 7.125 8.30078C7.22917 8.19661 7.35417 8.14453 7.5 8.14453C7.64583 8.14453 7.76042 8.19661 7.84375 8.30078C7.94792 8.38411 8 8.4987 8 8.64453Z" fill="#470D69"/>
</svg>
