<svg width="19" height="18" viewBox="0 0 19 18" fill="none" xmlns="http://www.w3.org/2000/svg">
<g id="Iconex">
<g id="Cloud">
<path id="Union" d="M14.001 13.6502C15.6854 13.483 17.001 12.0618 17.001 10.3333C17.001 8.32866 15.1599 6.75187 13.1908 7.03386C13.1876 7.03431 13.1844 7.03267 13.183 7.02979C12.4299 5.52958 10.8773 4.5 9.08431 4.5C6.69578 4.5 4.73399 6.32707 4.52028 8.65985C4.51993 8.66373 4.51663 8.66672 4.51274 8.66672C3.14628 8.66554 2.00098 9.79542 2.00098 11.1667C2.00098 12.5474 3.12026 13.6667 4.50098 13.6667H5.00098" stroke="black" stroke-opacity="0.5" stroke-width="1.125" stroke-linecap="round"/>
<g id="Down">
<path id="Vector 140" d="M7.625 12.3755L9.23482 10.7657C9.38127 10.6192 9.61871 10.6192 9.76515 10.7657L11.375 12.3755" stroke="black" stroke-opacity="0.5" stroke-width="1.125" stroke-linecap="round"/>
<path id="Vector 141" d="M9.50098 11.25L9.50098 15.75" stroke="black" stroke-opacity="0.5" stroke-width="1.125" stroke-linecap="round"/>
</g>
</g>
</g>
</svg>
