<svg width="26" height="20" viewBox="0 0 26 20" fill="none" xmlns="http://www.w3.org/2000/svg">
<path d="M22.0496 1.67506C20.3772 0.892561 18.5889 0.323876 16.7193 6.10352e-05C16.4897 0.41518 16.2215 0.973523 16.0365 1.41768C14.0491 1.1188 12.08 1.1188 10.1291 1.41768C9.9442 0.973523 9.66986 0.41518 9.4382 6.10352e-05C7.56661 0.323876 5.7763 0.89465 4.10385 1.6792C0.730517 6.77675 -0.18394 11.7477 0.27329 16.6481C2.51066 18.3189 4.67895 19.3339 6.81064 19.998C7.33697 19.2737 7.80638 18.5036 8.21077 17.6921C7.4406 17.3995 6.70294 17.0383 6.00594 16.619C6.19085 16.4821 6.37172 16.3388 6.54647 16.1915C10.7977 18.1799 15.4167 18.1799 19.6172 16.1915C19.794 16.3388 19.9748 16.4821 20.1577 16.619C19.4586 17.0404 18.719 17.4015 17.9488 17.6942C18.3532 18.5036 18.8206 19.2758 19.3489 20.0001C21.4827 19.3359 23.653 18.321 25.8903 16.6481C26.4268 10.9673 24.9739 6.042 22.0496 1.67506ZM8.78994 13.6344C7.51377 13.6344 6.4672 12.443 6.4672 10.9922C6.4672 9.54138 7.49142 8.34794 8.78994 8.34794C10.0885 8.34794 11.135 9.53929 11.1127 10.9922C11.1147 12.443 10.0885 13.6344 8.78994 13.6344ZM17.3737 13.6344C16.0975 13.6344 15.051 12.443 15.051 10.9922C15.051 9.54138 16.0751 8.34794 17.3737 8.34794C18.6722 8.34794 19.7188 9.53929 19.6964 10.9922C19.6964 12.443 18.6722 13.6344 17.3737 13.6344Z" fill="#463854"/>
</svg>
