<svg width="15" height="21" viewBox="0 0 15 21" fill="none" xmlns="http://www.w3.org/2000/svg">
<path d="M7.24609 0.1521C6.96484 0.1521 6.71484 0.24585 6.52734 0.43335L0.527344 6.43335C0.121094 6.80835 0.121094 7.4646 0.527344 7.8396C0.902344 8.24585 1.55859 8.24585 1.93359 7.8396L7.24609 2.55835L12.5273 7.8396C12.9023 8.24585 13.5586 8.24585 13.9336 7.8396C14.3398 7.4646 14.3398 6.80835 13.9336 6.43335L7.93359 0.43335C7.74609 0.24585 7.49609 0.1521 7.24609 0.1521Z" fill="#A5A5A5"/>
<path d="M7.24609 20.1365C6.96484 20.1365 6.71484 20.0427 6.52734 19.8552L0.527344 13.8552C0.121094 13.4802 0.121094 12.824 0.527344 12.449C0.902344 12.0427 1.55859 12.0427 1.93359 12.449L7.24609 17.7302L12.5273 12.449C12.9023 12.0427 13.5586 12.0427 13.9336 12.449C14.3398 12.824 14.3398 13.4802 13.9336 13.8552L7.93359 19.8552C7.74609 20.0427 7.49609 20.1365 7.24609 20.1365Z" fill="#A5A5A5"/>
</svg>
