<svg xmlns="http://www.w3.org/2000/svg" width="16.9" height="18" viewBox="0 0 14 15" fill="currentColor">
<path fill-rule="evenodd" clip-rule="evenodd" d="M7.84805 2.74614C8.45169 2.14159 9.43074 2.14121 10.0348 2.74531L11.4365 4.14697C12.0354 4.74591 12.0417 5.71553 11.4505 6.32211L6.25682 11.6508C5.85996 12.058 5.31565 12.2876 4.74728 12.2876L3.1992 12.2875C2.47962 12.2875 1.90496 11.6876 1.93522 10.9682L2.00169 9.38808C2.0239 8.85987 2.24344 8.35924 2.61684 7.98527L7.84805 2.74614ZM9.43867 3.34238C9.16408 3.06779 8.71905 3.06796 8.44467 3.34276L7.50924 4.27961L9.91662 6.68699L10.8467 5.73275C11.1154 5.45703 11.1126 5.01629 10.8403 4.74405L9.43867 3.34238ZM3.21347 8.58189L6.91307 4.87669L9.32765 7.29127L5.65304 11.0615C5.41492 11.3058 5.08834 11.4435 4.74732 11.4435L3.19923 11.4434C2.95937 11.4434 2.76782 11.2435 2.77791 11.0037L2.84437 9.42358C2.8577 9.10665 2.98942 8.80628 3.21347 8.58189ZM11.7874 12.2462C12.0204 12.2462 12.2092 12.0573 12.2092 11.8242C12.2092 11.5911 12.0204 11.4022 11.7874 11.4022H8.34399C8.11108 11.4022 7.92227 11.5911 7.92227 11.8242C7.92227 12.0573 8.11108 12.2462 8.34399 12.2462H11.7874Z" fill="currentColor"/>
</svg>