<svg width="22" height="22" viewBox="0 0 22 22" fill="none" xmlns="http://www.w3.org/2000/svg">
<g id="Compas">
<path id="Subtract" opacity="0.3" fill-rule="evenodd" clip-rule="evenodd" d="M11 0.25C5.06294 0.25 0.25 5.06294 0.25 11C0.25 16.9371 5.06294 21.75 11 21.75C16.9371 21.75 21.75 16.9371 21.75 11C21.75 5.06294 16.9371 0.25 11 0.25Z" fill="#A5A5A5"/>
<g id="Vector">
<path d="M9.40884 9.40933L13.8283 8.17189L12.5908 12.5913L8.1714 13.8287L9.40884 9.40933Z" fill="white"/>
<path fill-rule="evenodd" clip-rule="evenodd" d="M13.313 12.7935C13.2424 13.0458 13.0453 13.2429 12.793 13.3135L8.37363 14.551C8.11271 14.624 7.83267 14.5507 7.64107 14.3591C7.44948 14.1675 7.37612 13.8874 7.44918 13.6265L8.68662 9.20711C8.75725 8.95486 8.95437 8.75774 9.20662 8.68711L13.626 7.44967C13.887 7.37661 14.167 7.44997 14.3586 7.64156C14.5502 7.83316 14.6235 8.1132 14.5505 8.37412L13.313 12.7935ZM12.7465 9.25362L10.0173 10.0178L9.25313 12.747L11.9823 11.9828L12.7465 9.25362Z" fill="#A5A5A5"/>
</g>
</g>
</svg>
