<svg width="24" height="25" viewBox="0 0 24 25" fill="none" xmlns="http://www.w3.org/2000/svg">
<path opacity="0.3" fill-rule="evenodd" clip-rule="evenodd" d="M12 1.89453C6.06294 1.89453 1.25 6.70747 1.25 12.6445C1.25 18.5816 6.06294 23.3945 12 23.3945C17.9371 23.3945 22.75 18.5816 22.75 12.6445C22.75 6.70747 17.9371 1.89453 12 1.89453Z" fill="white"/>
<path d="M10.4093 11.0539L14.8287 9.81642L13.5913 14.2358L9.17189 15.4733L10.4093 11.0539Z" fill="white"/>
<path fill-rule="evenodd" clip-rule="evenodd" d="M14.3135 14.4381C14.2429 14.6903 14.0458 14.8874 13.7935 14.9581L9.37412 16.1955C9.11319 16.2686 8.83316 16.1952 8.64156 16.0036C8.44997 15.812 8.37661 15.532 8.44967 15.2711L9.68711 10.8516C9.75774 10.5994 9.95486 10.4023 10.2071 10.3316L14.6265 9.0942C14.8874 9.02114 15.1675 9.0945 15.3591 9.28609C15.5507 9.47769 15.624 9.75773 15.551 10.0186L14.3135 14.4381ZM13.747 10.8982L11.0178 11.6623L10.2536 14.3915L12.9828 13.6274L13.747 10.8982Z" fill="white"/>
</svg>
