<svg width="16" height="13" viewBox="0 0 16 13" fill="none" xmlns="http://www.w3.org/2000/svg">
<path id="field-placeholder" d="M15.918 5.89099C15.9727 6.03682 16 6.19177 16 6.35583C16 6.5199 15.9727 6.67485 15.918 6.82068C15.1523 8.53422 14.0768 9.91052 12.6914 10.9496C11.306 11.9704 9.78385 12.4808 8.125 12.4808C6.46615 12.4808 4.94401 11.9704 3.55859 10.9496C2.17318 9.91052 1.09766 8.53422 0.332031 6.82068C0.277344 6.67485 0.25 6.5199 0.25 6.35583C0.25 6.19177 0.277344 6.03682 0.332031 5.89099C1.09766 4.17745 2.17318 2.81026 3.55859 1.78943C4.94401 0.750366 6.46615 0.230835 8.125 0.230835C9.78385 0.230835 11.306 0.750366 12.6914 1.78943C14.0768 2.81026 15.1523 4.17745 15.918 5.89099ZM4.32422 9.88318C5.49089 10.7399 6.75781 11.1683 8.125 11.1683C9.49219 11.1683 10.7591 10.7399 11.9258 9.88318C13.0924 9.00818 14.013 7.8324 14.6875 6.35583C14.013 4.87927 13.0924 3.71261 11.9258 2.85583C10.7591 1.98083 9.49219 1.54333 8.125 1.54333C6.75781 1.54333 5.49089 1.98083 4.32422 2.85583C3.15755 3.71261 2.23698 4.87927 1.5625 6.35583C2.23698 7.8324 3.15755 9.00818 4.32422 9.88318ZM5.63672 3.8949C6.32943 3.20219 7.15885 2.85583 8.125 2.85583C9.09115 2.85583 9.91146 3.20219 10.5859 3.8949C11.2786 4.56938 11.625 5.38969 11.625 6.35583C11.625 6.99386 11.4701 7.5863 11.1602 8.13318C10.8503 8.66182 10.4219 9.0811 9.875 9.39099C9.34635 9.70089 8.76302 9.85583 8.125 9.85583C7.15885 9.85583 6.32943 9.5186 5.63672 8.84412C4.96224 8.15141 4.625 7.32198 4.625 6.35583C4.625 5.38969 4.96224 4.56938 5.63672 3.8949ZM6.56641 7.91443C7.00391 8.3337 7.52344 8.54333 8.125 8.54333C8.72656 8.54333 9.23698 8.3337 9.65625 7.91443C10.0938 7.47693 10.3125 6.9574 10.3125 6.35583C10.3125 5.95479 10.2122 5.59021 10.0117 5.26208C9.82943 4.91573 9.5651 4.65141 9.21875 4.46912C8.89062 4.2686 8.52604 4.16833 8.125 4.16833C8.125 4.16833 8.11589 4.16833 8.09766 4.16833C8.07943 4.16833 8.07031 4.16833 8.07031 4.16833C8.10677 4.3324 8.125 4.47823 8.125 4.60583C8.125 5.09802 7.95182 5.51729 7.60547 5.86365C7.27734 6.19177 6.86719 6.35583 6.375 6.35583C6.2474 6.35583 6.10156 6.33761 5.9375 6.30115C5.9375 6.30115 5.9375 6.31026 5.9375 6.32849C5.9375 6.34672 5.9375 6.35583 5.9375 6.35583C5.9375 6.9574 6.14714 7.47693 6.56641 7.91443Z" fill="#470D69"/>
</svg>
