<svg width="16" height="19" viewBox="0 0 16 19" fill="none" xmlns="http://www.w3.org/2000/svg">
<path d="M13.0625 8.9375H0.6875C0.378125 8.9375 0.125 9.19063 0.125 9.5V15.125C0.125 15.4344 0.378125 15.6875 0.6875 15.6875H13.0625C13.3724 15.6875 13.625 15.4344 13.625 15.125V9.5C13.625 9.19063 13.3724 8.9375 13.0625 8.9375ZM6.40604 12.9341C6.40604 13.64 6.06854 14.0676 5.29119 14.0676C4.90876 14.0676 4.58919 13.9635 4.31071 13.6046C4.08119 13.3302 4.5126 12.9347 4.74663 13.2222C4.93559 13.4562 5.13761 13.5102 5.33561 13.5007C5.58761 13.4917 5.80808 13.3792 5.81261 12.9343V11.1579C5.81261 10.7798 6.40661 10.7798 6.40661 11.1579L6.40649 12.9342L6.40604 12.9341ZM7.16316 13.7751C7.01463 13.6542 7.01914 13.4567 7.10013 13.3347C7.21715 13.2183 7.3471 13.1777 7.50066 13.3032C7.86905 13.5552 8.81865 13.7441 8.88557 13.1047C8.82706 12.4392 6.95626 12.8397 7.09573 11.5623C7.19919 10.6899 8.51654 10.533 9.13706 11.01C9.44367 11.2569 9.11961 11.6484 8.84903 11.4504C8.51654 11.239 7.76119 11.1399 7.66665 11.6074C7.54511 12.3454 9.50156 11.9229 9.47003 13.1188C9.43952 14.2611 7.78419 14.2882 7.16316 13.7751Z" fill="#470D69"/>
<path d="M15.3124 4.76696L11.6079 1.0625C11.2827 0.736314 10.7113 0.5 10.25 0.5H4.0625C3.13212 0.5 2.375 1.25713 2.375 2.1875V7.8125C2.375 8.12351 2.62649 8.375 2.9375 8.375C3.24851 8.375 3.5 8.12351 3.5 7.8125V2.1875C3.5 1.87762 3.75199 1.625 4.0625 1.625H9.125C9.74651 1.625 10.25 2.129 10.25 2.75V4.85938C10.25 5.55572 10.8204 6.125 11.5156 6.125H13.625C14.2465 6.125 14.75 6.629 14.75 7.25V16.8125C14.75 17.1224 14.4985 17.375 14.1875 17.375H4.0625C3.75199 17.375 3.5 17.1224 3.5 16.8125C3.5 16.5015 3.24851 16.25 2.9375 16.25C2.62649 16.25 2.375 16.5015 2.375 16.8125C2.375 17.7429 3.13212 18.5 4.0625 18.5H14.1875C15.1179 18.5 15.875 17.7429 15.875 16.8125V6.125C15.875 5.66433 15.6387 5.0928 15.3125 4.76709L15.3124 4.76696Z" fill="#470D69"/>
</svg>
