<svg width="20" height="20" viewBox="0 0 20 20" fill="none" xmlns="http://www.w3.org/2000/svg">
<path fill-rule="evenodd" clip-rule="evenodd" d="M4.37526 2.1875C4.37526 3.39562 3.39588 4.375 2.18776 4.375C0.979641 4.375 0.000264486 3.39562 0.000264486 2.1875C0.000264486 0.979377 0.979641 0 2.18776 0C3.39588 0 4.37526 0.979377 4.37526 2.1875ZM0.000244141 6.25008H4.47274V20.0001H0.000244141V6.25008ZM16.6552 6.41133C16.6394 6.40633 16.6238 6.40119 16.6083 6.39605C16.5771 6.38578 16.546 6.3755 16.5127 6.36633C16.4527 6.35258 16.3927 6.34133 16.3314 6.33133C16.094 6.28383 15.8339 6.25008 15.5289 6.25008C12.9214 6.25008 11.2677 8.14633 10.7227 8.87883V6.25008H6.25024V20.0001H10.7227V12.5001C10.7227 12.5001 14.1027 7.79258 15.5289 11.2501V20.0001H20.0002V10.7213C20.0002 8.64383 18.5765 6.91258 16.6552 6.41133Z" fill="#463854"/>
</svg>
