<svg width="24" height="25" viewBox="0 0 24 25" fill="none" xmlns="http://www.w3.org/2000/svg">
<g id="Iconex">
<g id="Document 2">
<g id="Subtract" opacity="0.3">
<path fill-rule="evenodd" clip-rule="evenodd" d="M14.25 1.90087C14.1881 1.89666 14.1258 1.89453 14.0633 1.89453H8C5.37665 1.89453 3.25 4.02118 3.25 6.64453V18.6445C3.25 21.2679 5.37665 23.3945 8 23.3945H16C18.6234 23.3945 20.75 21.2679 20.75 18.6445V9.39453H17C15.4812 9.39453 14.25 8.16331 14.25 6.64453V1.90087Z" fill="white"/>
<path d="M20.3215 7.89453C20.2584 7.79512 20.1887 7.69943 20.1126 7.60812L16.1759 2.88402C16.048 2.73054 15.905 2.5929 15.75 2.47255V6.64453C15.75 7.33489 16.3096 7.89453 17 7.89453H20.3215Z" fill="white"/>
</g>
<g id="LOG">
<path d="M7 17.5733C6.44772 17.5733 6 17.1256 6 16.5733V14.2597C6 13.9593 6.24355 13.7157 6.54398 13.7157C6.84441 13.7157 7.08796 13.9593 7.08796 14.2597V15.8427C7.08796 16.3265 7.48019 16.7187 7.96402 16.7187H8.41279C8.64878 16.7187 8.84009 16.91 8.84009 17.146C8.84009 17.382 8.64878 17.5733 8.41279 17.5733H7Z" fill="white"/>
<path d="M12.3482 17.6445C12.0151 17.6445 11.722 17.5694 11.469 17.419C11.216 17.2687 11.0178 17.0451 10.8744 16.7484C10.7352 16.4477 10.6656 16.0738 10.6656 15.6267C10.6656 15.1915 10.7352 14.8275 10.8744 14.5347C11.0178 14.238 11.216 14.0164 11.469 13.8701C11.722 13.7197 12.0151 13.6445 12.3482 13.6445C12.6813 13.6445 12.9744 13.7197 13.2274 13.8701C13.4804 14.0164 13.6765 14.238 13.8157 14.5347C13.959 14.8275 14.0307 15.1915 14.0307 15.6267C14.0307 16.0738 13.959 16.4477 13.8157 16.7484C13.6765 17.0451 13.4804 17.2687 13.2274 17.419C12.9744 17.5694 12.6813 17.6445 12.3482 17.6445ZM12.3482 16.7662C12.4663 16.7662 12.5675 16.7247 12.6518 16.6416C12.7361 16.5585 12.8015 16.4338 12.8479 16.2677C12.8943 16.0975 12.9175 15.8839 12.9175 15.6267C12.9175 15.3814 12.8943 15.1777 12.8479 15.0155C12.8015 14.8493 12.7361 14.7266 12.6518 14.6475C12.5675 14.5644 12.4663 14.5229 12.3482 14.5229C12.2301 14.5229 12.1289 14.5644 12.0446 14.6475C11.9602 14.7266 11.8949 14.8493 11.8485 15.0155C11.8021 15.1777 11.7789 15.3814 11.7789 15.6267C11.7789 15.8839 11.8021 16.0975 11.8485 16.2677C11.8949 16.4338 11.9602 16.5585 12.0446 16.6416C12.1289 16.7247 12.2301 16.7662 12.3482 16.7662Z" fill="white"/>
<path d="M17.6907 17.6445C17.3406 17.6445 17.0181 17.5733 16.7229 17.4309C16.4319 17.2845 16.1979 17.0649 16.0208 16.7721C15.8479 16.4793 15.7614 16.1134 15.7614 15.6742C15.7614 15.239 15.8479 14.871 16.0208 14.5703C16.1979 14.2657 16.4319 14.0362 16.7229 13.8819C17.0181 13.7237 17.3428 13.6445 17.697 13.6445C17.9753 13.6445 18.2157 13.696 18.4181 13.7988C18.4746 13.8265 18.5285 13.8553 18.5798 13.8854C18.7858 14.0063 18.7921 14.2827 18.628 14.4563L18.5561 14.5324C18.4308 14.6649 18.2239 14.6628 18.0575 14.5882C17.9647 14.5446 17.8446 14.5229 17.697 14.5229C17.5494 14.5229 17.4123 14.5684 17.2858 14.6594C17.1635 14.7464 17.0644 14.873 16.9885 15.0392C16.9168 15.2054 16.881 15.4052 16.881 15.6386C16.881 15.8799 16.9126 16.0857 16.9759 16.2558C17.0391 16.422 17.1361 16.5486 17.2669 16.6356C17.3976 16.7227 17.5599 16.7662 17.7539 16.7662C17.8045 16.7662 17.8551 16.7603 17.9057 16.7484C17.9913 16.7299 18.0322 16.644 18.0322 16.5565V16.417C18.0322 16.2755 17.9175 16.1609 17.776 16.1609C17.6346 16.1609 17.5199 16.0462 17.5199 15.9047V15.7454C17.5199 15.516 17.7059 15.33 17.9353 15.33H18.2599C18.6687 15.33 19 15.6613 19 16.0701V16.7084C19 17.0011 18.8743 17.2873 18.6117 17.4168C18.5568 17.444 18.4986 17.4704 18.437 17.4962C18.2009 17.5951 17.9521 17.6445 17.6907 17.6445Z" fill="white"/>
</g>
</g>
</g>
</svg>
