<svg width="18" height="22" viewBox="0 0 18 22" fill="none" xmlns="http://www.w3.org/2000/svg">
<g id="Document 2">
<g id="Subtract" opacity="0.3">
<path fill-rule="evenodd" clip-rule="evenodd" d="M11.25 0.25634C11.1881 0.252128 11.1258 0.25 11.0633 0.25H5C2.37665 0.25 0.25 2.37665 0.25 5V17C0.25 19.6234 2.37665 21.75 5 21.75H13C15.6234 21.75 17.75 19.6234 17.75 17V7.75H14C12.4812 7.75 11.25 6.51878 11.25 5V0.25634Z" fill="black"/>
<path d="M17.3215 6.25C17.2584 6.15059 17.1887 6.0549 17.1126 5.96359L13.1759 1.23949C13.048 1.08601 12.905 0.94837 12.75 0.828021V5C12.75 5.69036 13.3096 6.25 14 6.25H17.3215Z" fill="black"/>
</g>
<g id="LOG">
<path d="M4 15.9288C3.44772 15.9288 3 15.4811 3 14.9288V12.6152C3 12.3148 3.24355 12.0712 3.54398 12.0712C3.84441 12.0712 4.08796 12.3148 4.08796 12.6152V14.1981C4.08796 14.682 4.48019 15.0742 4.96402 15.0742H5.41279C5.64878 15.0742 5.84009 15.2655 5.84009 15.5015C5.84009 15.7375 5.64878 15.9288 5.41279 15.9288H4Z" fill="white"/>
<path d="M9.34819 16C9.01506 16 8.72198 15.9248 8.46897 15.7745C8.21595 15.6241 8.01776 15.4006 7.87438 15.1039C7.73522 14.8032 7.66565 14.4293 7.66565 13.9822C7.66565 13.547 7.73522 13.183 7.87438 12.8902C8.01776 12.5935 8.21595 12.3719 8.46897 12.2255C8.72198 12.0752 9.01506 12 9.34819 12C9.68133 12 9.9744 12.0752 10.2274 12.2255C10.4804 12.3719 10.6765 12.5935 10.8157 12.8902C10.959 13.183 11.0307 13.547 11.0307 13.9822C11.0307 14.4293 10.959 14.8032 10.8157 15.1039C10.6765 15.4006 10.4804 15.6241 10.2274 15.7745C9.9744 15.9248 9.68133 16 9.34819 16ZM9.34819 15.1217C9.46626 15.1217 9.56747 15.0801 9.65181 14.997C9.73615 14.9139 9.80151 14.7893 9.84789 14.6231C9.89428 14.453 9.91747 14.2394 9.91747 13.9822C9.91747 13.7369 9.89428 13.5331 9.84789 13.3709C9.80151 13.2047 9.73615 13.0821 9.65181 13.003C9.56747 12.9199 9.46626 12.8783 9.34819 12.8783C9.23012 12.8783 9.12891 12.9199 9.04457 13.003C8.96024 13.0821 8.89487 13.2047 8.84849 13.3709C8.8021 13.5331 8.77891 13.7369 8.77891 13.9822C8.77891 14.2394 8.8021 14.453 8.84849 14.6231C8.89487 14.7893 8.96024 14.9139 9.04457 14.997C9.12891 15.0801 9.23012 15.1217 9.34819 15.1217Z" fill="white"/>
<path d="M14.6907 16C14.3406 16 14.0181 15.9288 13.7229 15.7864C13.4319 15.64 13.1979 15.4204 13.0208 15.1276C12.8479 14.8348 12.7614 14.4688 12.7614 14.0297C12.7614 13.5945 12.8479 13.2265 13.0208 12.9258C13.1979 12.6212 13.4319 12.3917 13.7229 12.2374C14.0181 12.0791 14.3428 12 14.697 12C14.9753 12 15.2157 12.0514 15.4181 12.1543C15.4746 12.1819 15.5285 12.2108 15.5798 12.2409C15.7858 12.3618 15.7921 12.6382 15.628 12.8118L15.5561 12.8878C15.4308 13.0204 15.2239 13.0183 15.0575 12.9436C14.9647 12.9001 14.8446 12.8783 14.697 12.8783C14.5494 12.8783 14.4123 12.9238 14.2858 13.0148C14.1635 13.1019 14.0644 13.2285 13.9885 13.3947C13.9168 13.5608 13.881 13.7606 13.881 13.9941C13.881 14.2354 13.9126 14.4411 13.9759 14.6113C14.0391 14.7774 14.1361 14.9041 14.2669 14.9911C14.3976 15.0781 14.5599 15.1217 14.7539 15.1217C14.8045 15.1217 14.8551 15.1157 14.9057 15.1039C14.9913 15.0853 15.0322 14.9995 15.0322 14.9119V14.7725C15.0322 14.631 14.9175 14.5163 14.776 14.5163C14.6346 14.5163 14.5199 14.4016 14.5199 14.2601V14.1009C14.5199 13.8715 14.7059 13.6855 14.9353 13.6855H15.2599C15.6687 13.6855 16 14.0168 16 14.4255V15.0638C16 15.3566 15.8743 15.6427 15.6117 15.7723C15.5568 15.7994 15.4986 15.8259 15.437 15.8516C15.2009 15.9505 14.9521 16 14.6907 16Z" fill="white"/>
</g>
</g>
</svg>
