<svg width="18" height="19" viewBox="0 0 18 19" fill="currentColor" xmlns="http://www.w3.org/2000/svg">
<g>
<path d="M16.3124 4.62243L12.6079 0.917969C12.2827 0.591783 11.7113 0.355469 11.25 0.355469H5.0625C4.13212 0.355469 3.375 1.11259 3.375 2.04297V7.66797C3.375 7.97898 3.62649 8.23047 3.9375 8.23047C4.24851 8.23047 4.5 7.97898 4.5 7.66797V2.04297C4.5 1.73309 4.75199 1.48047 5.0625 1.48047H10.125C10.7465 1.48047 11.25 1.98447 11.25 2.60547V4.71484C11.25 5.41119 11.8204 5.98047 12.5156 5.98047H14.625C15.2465 5.98047 15.75 6.48447 15.75 7.10547V16.668C15.75 16.9778 15.4985 17.2305 15.1875 17.2305H5.0625C4.75199 17.2305 4.5 16.9778 4.5 16.668C4.5 16.357 4.24851 16.1055 3.9375 16.1055C3.62649 16.1055 3.375 16.357 3.375 16.668C3.375 17.5983 4.13212 18.3555 5.0625 18.3555H15.1875C16.1179 18.3555 16.875 17.5983 16.875 16.668V5.98047C16.875 5.5198 16.6387 4.94827 16.3125 4.62256L16.3124 4.62243Z" fill="currentColor"/>
<path fill-rule="evenodd" clip-rule="evenodd" d="M13.9375 8.79297H1.5625C1.25313 8.79297 1 9.04609 1 9.35547V14.9805C1 15.2898 1.25313 15.543 1.5625 15.543H13.9375C14.2474 15.543 14.5 15.2898 14.5 14.9805V9.35547C14.5 9.04609 14.2474 8.79297 13.9375 8.79297ZM4.65 11.1255L5.51 13.9255H6.205L7.125 11.1305H7.145L7.13 11.4305C7.12667 11.5605 7.12167 11.6988 7.115 11.8455C7.11167 11.9921 7.11 12.1221 7.11 12.2355V13.9255H7.815V10.3555H6.785L5.89 13.0855H5.875L5.03 10.3555H4V13.9255H4.675V12.2655C4.675 12.1421 4.67167 12.0055 4.665 11.8555C4.65833 11.7021 4.65167 11.5588 4.645 11.4255L4.63 11.1255H4.65ZM11.4468 13.1105C11.6001 12.8405 11.6768 12.5055 11.6768 12.1055C11.6768 11.7221 11.6001 11.4021 11.4468 11.1455C11.2968 10.8855 11.0835 10.6888 10.8068 10.5555C10.5335 10.4221 10.2101 10.3555 9.8368 10.3555H8.7168V13.9255H9.7268C10.1368 13.9255 10.4868 13.8571 10.7768 13.7205C11.0701 13.5838 11.2935 13.3805 11.4468 13.1105ZM10.7768 11.4755C10.8535 11.6455 10.8918 11.8621 10.8918 12.1255C10.8918 12.5155 10.8018 12.8088 10.6218 13.0055C10.4418 13.2021 10.1668 13.3005 9.7968 13.3005H9.4718V10.9755H9.8768C10.0968 10.9755 10.2818 11.0171 10.4318 11.1005C10.5851 11.1805 10.7001 11.3055 10.7768 11.4755Z" fill="currentColor"/>
</g>
</svg>
