<svg width="18" height="19" viewBox="0 0 18 19" fill="none" xmlns="http://www.w3.org/2000/svg">
<path d="M12.9375 13.4375C12.1587 13.4375 11.3975 13.2066 10.7499 12.7739C10.1024 12.3413 9.59775 11.7263 9.29973 11.0068C9.00171 10.2873 8.92373 9.49563 9.07566 8.73183C9.22759 7.96803 9.6026 7.26644 10.1533 6.71577C10.7039 6.1651 11.4055 5.79009 12.1693 5.63816C12.9331 5.48623 13.7248 5.56421 14.4443 5.86223C15.1638 6.16025 15.7788 6.66493 16.2114 7.31244C16.6441 7.95996 16.875 8.72124 16.875 9.5C16.8738 10.5439 16.4586 11.5448 15.7204 12.2829C14.9823 13.0211 13.9814 13.4363 12.9375 13.4375ZM12.9375 6.6875C12.3812 6.6875 11.8375 6.85245 11.375 7.16149C10.9124 7.47054 10.552 7.90979 10.3391 8.4237C10.1262 8.93762 10.0705 9.50312 10.179 10.0487C10.2876 10.5943 10.5554 11.0954 10.9488 11.4887C11.3421 11.8821 11.8432 12.1499 12.3888 12.2585C12.9344 12.367 13.4999 12.3113 14.0138 12.0984C14.5277 11.8855 14.967 11.5251 15.276 11.0625C15.5851 10.6 15.75 10.0563 15.75 9.5C15.7491 8.75435 15.4525 8.0395 14.9253 7.51225C14.398 6.985 13.6831 6.68839 12.9375 6.6875Z" fill="#A31BCB"/>
<path d="M5.0625 13.4375C7.23712 13.4375 9 11.6746 9 9.5C9 7.32538 7.23712 5.5625 5.0625 5.5625C2.88788 5.5625 1.125 7.32538 1.125 9.5C1.125 11.6746 2.88788 13.4375 5.0625 13.4375Z" fill="#A31BCB"/>
</svg>
