<svg width="18" height="19" viewBox="0 0 18 19" fill="none" xmlns="http://www.w3.org/2000/svg">
<path d="M0.831543 14.435L4.00954 4.35498H6.48054L9.65854 14.435H7.92254L5.03854 5.39098H5.41654L2.56754 14.435H0.831543ZM2.60254 12.251V10.676H7.89454V12.251H2.60254Z" fill="#A31BCB"/>
<path d="M13.0381 14.645C12.4921 14.645 12.0301 14.5423 11.6521 14.337C11.2741 14.127 10.9871 13.8493 10.7911 13.504C10.5998 13.1586 10.5041 12.7783 10.5041 12.363C10.5041 11.999 10.5648 11.6723 10.6861 11.383C10.8075 11.089 10.9941 10.837 11.2461 10.627C11.4981 10.4123 11.8248 10.2373 12.2261 10.102C12.5295 10.004 12.8841 9.91531 13.2901 9.83598C13.7008 9.75665 14.1441 9.68431 14.6201 9.61898C15.1008 9.54898 15.6025 9.47431 16.1251 9.39498L15.5231 9.73798C15.5278 9.21531 15.4111 8.83031 15.1731 8.58298C14.9351 8.33565 14.5338 8.21198 13.9691 8.21198C13.6285 8.21198 13.2995 8.29131 12.9821 8.44998C12.6648 8.60865 12.4431 8.88165 12.3171 9.26898L10.7771 8.78598C10.9638 8.14665 11.3185 7.63331 11.8411 7.24598C12.3685 6.85865 13.0778 6.66498 13.9691 6.66498C14.6411 6.66498 15.2315 6.77465 15.7401 6.99398C16.2535 7.21331 16.6338 7.57265 16.8811 8.07198C17.0165 8.33798 17.0981 8.61098 17.1261 8.89098C17.1541 9.16631 17.1681 9.46731 17.1681 9.79398V14.435H15.6911V12.797L15.9361 13.063C15.5955 13.609 15.1965 14.0103 14.7391 14.267C14.2865 14.519 13.7195 14.645 13.0381 14.645ZM13.3741 13.301C13.7568 13.301 14.0835 13.2333 14.3541 13.098C14.6248 12.9626 14.8395 12.797 14.9981 12.601C15.1615 12.405 15.2711 12.2206 15.3271 12.048C15.4158 11.8333 15.4648 11.5883 15.4741 11.313C15.4881 11.033 15.4951 10.8066 15.4951 10.634L16.0131 10.788C15.5045 10.8673 15.0681 10.9373 14.7041 10.998C14.3401 11.0586 14.0275 11.117 13.7661 11.173C13.5048 11.2243 13.2738 11.2826 13.0731 11.348C12.8771 11.418 12.7115 11.4996 12.5761 11.593C12.4408 11.6863 12.3358 11.7936 12.2611 11.915C12.1911 12.0363 12.1561 12.1786 12.1561 12.342C12.1561 12.5286 12.2028 12.6943 12.2961 12.839C12.3895 12.979 12.5248 13.091 12.7021 13.175C12.8841 13.259 13.1081 13.301 13.3741 13.301Z" fill="#A31BCB"/>
</svg>
