<svg width="18" height="19" viewBox="0 0 18 19" fill="none" xmlns="http://www.w3.org/2000/svg">
<path d="M4.35586 15.26L3.23586 14.14L13.6439 3.74L14.7639 4.868L4.35586 15.26ZM12.3639 15.5C11.8359 15.5 11.3532 15.372 10.9159 15.116C10.4839 14.8547 10.1372 14.508 9.87586 14.076C9.61453 13.6387 9.48386 13.1533 9.48386 12.62C9.48386 12.0973 9.61719 11.6173 9.88386 11.18C10.1505 10.7427 10.5025 10.3933 10.9399 10.132C11.3772 9.87067 11.8519 9.74 12.3639 9.74C12.8919 9.74 13.3745 9.87067 13.8119 10.132C14.2492 10.388 14.5959 10.7347 14.8519 11.172C15.1132 11.604 15.2439 12.0867 15.2439 12.62C15.2439 13.1533 15.1132 13.6387 14.8519 14.076C14.5959 14.508 14.2492 14.8547 13.8119 15.116C13.3745 15.372 12.8919 15.5 12.3639 15.5ZM12.3639 14.052C12.6252 14.052 12.8625 13.988 13.0759 13.86C13.2945 13.7267 13.4679 13.5507 13.5959 13.332C13.7292 13.1133 13.7959 12.876 13.7959 12.62C13.7959 12.364 13.7292 12.1267 13.5959 11.908C13.4679 11.6893 13.2945 11.516 13.0759 11.388C12.8625 11.2547 12.6252 11.188 12.3639 11.188C12.1079 11.188 11.8705 11.2547 11.6519 11.388C11.4385 11.516 11.2652 11.6893 11.1319 11.908C11.0039 12.1267 10.9399 12.364 10.9399 12.62C10.9399 12.876 11.0039 13.1133 11.1319 13.332C11.2652 13.5507 11.4385 13.7267 11.6519 13.86C11.8705 13.988 12.1079 14.052 12.3639 14.052ZM5.63586 9.26C5.10786 9.26 4.62519 9.132 4.18786 8.876C3.75053 8.61467 3.40119 8.268 3.13986 7.836C2.88386 7.39867 2.75586 6.91333 2.75586 6.38C2.75586 5.85733 2.88919 5.37733 3.15586 4.94C3.42253 4.50267 3.77453 4.15333 4.21186 3.892C4.64919 3.63067 5.12386 3.5 5.63586 3.5C6.16386 3.5 6.64386 3.63067 7.07586 3.892C7.51319 4.148 7.86253 4.49467 8.12386 4.932C8.38519 5.364 8.51586 5.84667 8.51586 6.38C8.51586 6.91333 8.38519 7.39867 8.12386 7.836C7.86253 8.268 7.51319 8.61467 7.07586 8.876C6.64386 9.132 6.16386 9.26 5.63586 9.26ZM5.63586 7.812C5.89186 7.812 6.12919 7.748 6.34786 7.62C6.56653 7.48667 6.73986 7.31067 6.86786 7.092C7.00119 6.87333 7.06786 6.636 7.06786 6.38C7.06786 6.124 7.00119 5.88667 6.86786 5.668C6.73986 5.44933 6.56653 5.276 6.34786 5.148C6.12919 5.01467 5.89186 4.948 5.63586 4.948C5.37986 4.948 5.14253 5.01467 4.92386 5.148C4.71053 5.276 4.53719 5.44933 4.40386 5.668C4.27053 5.88667 4.20386 6.124 4.20386 6.38C4.20386 6.636 4.27053 6.87333 4.40386 7.092C4.53719 7.31067 4.71053 7.48667 4.92386 7.62C5.13719 7.748 5.37453 7.812 5.63586 7.812Z" fill="#A31BCB"/>
</svg>
