<svg width="19" height="18" viewBox="0 0 19 18" fill="none" xmlns="http://www.w3.org/2000/svg">
<g id="Iconex">
<g id="Users">
<g id="Group 222">
<circle id="Ellipse 33" cx="2.55319" cy="2.55319" r="2.55319" transform="matrix(-1 0 0 1 12.21 3.75)" stroke="#A5A5A5" stroke-width="1.125"/>
<path id="Rectangle 2" d="M5.18848 12.6443C5.18848 12.0951 5.5337 11.6053 6.05088 11.4206V11.4206C8.38255 10.5878 10.9306 10.5878 13.2622 11.4206V11.4206C13.7794 11.6053 14.1246 12.0951 14.1246 12.6443V13.484C14.1246 14.2419 13.4533 14.8241 12.703 14.717L12.4529 14.6812C10.5981 14.4163 8.71505 14.4163 6.86026 14.6812L6.6101 14.717C5.85978 14.8241 5.18848 14.2419 5.18848 13.484V12.6443Z" stroke="#A5A5A5" stroke-width="1.125"/>
</g>
<g id="Group 223">
<path id="Ellipse 33_2" d="M13.49 8.92671C14.5979 8.92671 15.4961 8.02856 15.4961 6.92063C15.4961 5.8127 14.5979 4.91455 13.49 4.91455" stroke="#A5A5A5" stroke-width="1.125" stroke-linecap="round"/>
<path id="Rectangle 2_2" d="M15.6873 13.5037L15.8838 13.5317C16.4734 13.616 17.0008 13.1585 17.0008 12.563V11.9032C17.0008 11.4717 16.7296 11.0868 16.3232 10.9417C15.9179 10.797 15.5042 10.6842 15.0859 10.6035" stroke="#A5A5A5" stroke-width="1.125" stroke-linecap="round"/>
</g>
<g id="Group 224">
<path id="Ellipse 33_3" d="M5.50901 8.9272C4.40108 8.9272 3.50293 8.02904 3.50293 6.92112C3.50293 5.81319 4.40108 4.91504 5.50901 4.91504" stroke="#A5A5A5" stroke-width="1.125" stroke-linecap="round"/>
<path id="Rectangle 2_3" d="M3.31174 13.5046L3.11518 13.5327C2.52564 13.6169 1.99819 13.1595 1.99819 12.564V11.9042C1.99819 11.4727 2.26944 11.0878 2.67579 10.9427C3.08113 10.7979 3.49479 10.6852 3.91309 10.6045" stroke="#A5A5A5" stroke-width="1.125" stroke-linecap="round"/>
</g>
</g>
</g>
</svg>
