<svg width="18" height="19" viewBox="0 0 18 19" fill="none" xmlns="http://www.w3.org/2000/svg">
<path d="M8.22406 16.852V14.9799H9.89606V16.852H8.22406ZM8.22406 4.02795V2.14795H9.89606V4.02795H8.22406ZM9.14406 15.4999C8.34406 15.4999 7.6294 15.356 7.00006 15.068C6.37073 14.78 5.8534 14.3719 5.44806 13.8439C5.04806 13.3106 4.78673 12.6813 4.66406 11.9559L6.32006 11.6919C6.48006 12.3746 6.8214 12.9186 7.34406 13.3239C7.86673 13.7239 8.4934 13.9239 9.22406 13.9239C9.9494 13.9239 10.5387 13.7506 10.9921 13.4039C11.4507 13.0573 11.6801 12.6146 11.6801 12.0759C11.6801 11.6919 11.5627 11.3799 11.3281 11.1399C11.0987 10.8999 10.7227 10.6973 10.2001 10.5319L7.49606 9.69995C5.89606 9.20395 5.09606 8.24395 5.09606 6.81995C5.09606 6.14795 5.25606 5.56395 5.57606 5.06795C5.9014 4.57195 6.3574 4.18795 6.94406 3.91595C7.53073 3.64395 8.21606 3.50795 9.00006 3.50795C9.75206 3.51862 10.4187 3.65728 11.0001 3.92395C11.5867 4.19062 12.0721 4.57462 12.4561 5.07595C12.8454 5.57728 13.1147 6.17995 13.2641 6.88395L11.5601 7.18795C11.4854 6.77728 11.3281 6.41462 11.0881 6.09995C10.8534 5.78528 10.5547 5.53995 10.1921 5.36395C9.83473 5.18795 9.43206 5.09728 8.98406 5.09195C8.56273 5.08128 8.18406 5.14795 7.84806 5.29195C7.5174 5.43062 7.2534 5.62795 7.05606 5.88395C6.86406 6.13462 6.76806 6.41995 6.76806 6.73995C6.76806 7.09195 6.90406 7.39062 7.17606 7.63595C7.44806 7.88128 7.8774 8.09195 8.46406 8.26795L10.5841 8.88395C11.5547 9.17195 12.2561 9.55862 12.6881 10.044C13.1201 10.5293 13.3361 11.1746 13.3361 11.9799C13.3361 12.6839 13.1601 13.2999 12.8081 13.8279C12.4614 14.3506 11.9734 14.7613 11.3441 15.0599C10.7147 15.3533 9.9814 15.4999 9.14406 15.4999Z" fill="#A31BCB"/>
</svg>
