<svg width="18" height="19" viewBox="0 0 18 19" fill="none" xmlns="http://www.w3.org/2000/svg">
<path d="M10.7206 15.46C9.91526 15.46 9.21926 15.26 8.63259 14.86C8.05126 14.46 7.60059 13.916 7.28059 13.228C6.96593 12.5346 6.80859 11.756 6.80859 10.892C6.80859 10.0226 6.96859 9.24662 7.28859 8.56395C7.60859 7.87595 8.06193 7.33462 8.64859 6.93995C9.24059 6.53995 9.94193 6.33995 10.7526 6.33995C11.5686 6.33995 12.2539 6.53995 12.8086 6.93995C13.3686 7.33462 13.7899 7.87595 14.0726 8.56395C14.3606 9.25195 14.5046 10.028 14.5046 10.892C14.5046 11.756 14.3606 12.532 14.0726 13.22C13.7846 13.908 13.3606 14.4546 12.8006 14.86C12.2406 15.26 11.5473 15.46 10.7206 15.46ZM10.9526 13.948C11.5019 13.948 11.9499 13.8173 12.2966 13.556C12.6433 13.2946 12.8966 12.9346 13.0566 12.476C13.2166 12.0173 13.2966 11.4893 13.2966 10.892C13.2966 10.2946 13.2139 9.76662 13.0486 9.30795C12.8886 8.84928 12.6379 8.49195 12.2966 8.23595C11.9606 7.97995 11.5313 7.85195 11.0086 7.85195C10.4539 7.85195 9.99793 7.98795 9.64059 8.25995C9.28326 8.53195 9.01659 8.89728 8.84059 9.35595C8.66993 9.81462 8.58459 10.3266 8.58459 10.892C8.58459 11.4626 8.66993 11.98 8.84059 12.444C9.01659 12.9026 9.27793 13.268 9.62459 13.54C9.97659 13.812 10.4193 13.948 10.9526 13.948ZM13.2966 15.22V9.00395H13.1046V3.69995H14.7846V15.22H13.2966Z" fill="#A31BCB"/>
<path d="M3.21484 5.16404V3.54004H4.88684V5.16404H3.21484ZM3.21484 15.22V6.58004H4.88684V15.22H3.21484Z" fill="#A31BCB"/>
</svg>
