<svg width="24" height="25" viewBox="0 0 24 25" fill="none" xmlns="http://www.w3.org/2000/svg">
<path d="M23.7671 15.457C23.7671 15.7695 23.6265 16.2539 23.3452 16.9102C23.0952 17.5664 22.7671 18.2383 22.3608 18.9258C21.9858 19.6133 21.5483 20.207 21.0483 20.707C20.5796 21.207 20.1733 21.457 19.8296 21.457C19.6108 21.457 19.4077 21.4102 19.2202 21.3164L17.7202 20.4258C17.2202 20.7695 16.689 21.082 16.1265 21.3633V23.1445C16.1265 23.7383 15.8296 24.0977 15.2358 24.2227C14.2358 24.5039 13.2046 24.6445 12.1421 24.6445C11.0796 24.6445 10.0483 24.5039 9.04834 24.2227C8.48584 24.0977 8.20459 23.7383 8.20459 23.1445V21.3633C7.64209 21.082 7.11084 20.7695 6.61084 20.4258L5.06396 21.3164C4.87646 21.4102 4.68896 21.457 4.50146 21.457C3.75146 21.457 2.89209 20.6289 1.92334 18.9727C0.98584 17.2852 0.51709 16.1133 0.51709 15.457C0.51709 15.0195 0.70459 14.6914 1.07959 14.4727L2.62646 13.582C2.59521 13.2695 2.57959 12.957 2.57959 12.6445C2.57959 12.332 2.59521 12.0195 2.62646 11.707L1.07959 10.8164C0.70459 10.5977 0.51709 10.2695 0.51709 9.83203C0.51709 9.11328 1.00146 7.94141 1.97021 6.31641C2.93896 4.66016 3.78271 3.83203 4.50146 3.83203C4.68896 3.83203 4.87646 3.87891 5.06396 3.97266L6.61084 4.86328C7.11084 4.51953 7.64209 4.20703 8.20459 3.92578V2.14453C8.20459 1.55078 8.48584 1.19141 9.04834 1.06641C10.0483 0.785156 11.0796 0.644531 12.1421 0.644531C13.2046 0.644531 14.2358 0.785156 15.2358 1.06641C15.8296 1.19141 16.1265 1.55078 16.1265 2.14453V3.92578C16.689 4.20703 17.2202 4.51953 17.7202 4.86328L19.2202 3.97266C19.4077 3.87891 19.6108 3.83203 19.8296 3.83203C20.5483 3.83203 21.3765 4.67578 22.314 6.36328C23.2827 8.01953 23.7671 9.17578 23.7671 9.83203C23.7671 10.2695 23.5796 10.5977 23.2046 10.8164L21.6577 11.707C21.689 12.0195 21.7046 12.332 21.7046 12.6445C21.7046 12.957 21.689 13.2695 21.6577 13.582L23.2046 14.4727C23.5796 14.6914 23.7671 15.0195 23.7671 15.457ZM19.5952 18.9258C20.3452 18.0508 20.9233 17.0664 21.3296 15.9727C20.7671 15.6602 20.0796 15.2695 19.2671 14.8008C19.3921 13.582 19.4546 12.8633 19.4546 12.6445C19.4546 12.4258 19.3921 11.707 19.2671 10.4883C20.1421 9.98828 20.8296 9.59766 21.3296 9.31641C20.9233 8.22266 20.3452 7.23828 19.5952 6.36328C19.3765 6.48828 19.2046 6.59766 19.0796 6.69141C18.9546 6.75391 18.8608 6.80078 18.7983 6.83203C18.7671 6.86328 18.6421 6.94141 18.4233 7.06641C18.2046 7.19141 17.9233 7.34766 17.5796 7.53516C16.5796 6.84766 15.9858 6.44141 15.7983 6.31641C15.6108 6.19141 14.9702 5.87891 13.8765 5.37891V3.03516C13.314 2.94141 12.7358 2.89453 12.1421 2.89453C11.5796 2.89453 11.0171 2.94141 10.4546 3.03516V5.37891C10.2983 5.47266 10.0952 5.58203 9.84521 5.70703C9.62646 5.80078 9.48584 5.86328 9.42334 5.89453C9.36084 5.89453 9.23584 5.94141 9.04834 6.03516C8.86084 6.12891 8.75146 6.17578 8.72021 6.17578C8.72021 6.17578 8.64209 6.22266 8.48584 6.31641C8.36084 6.41016 8.28271 6.45703 8.25146 6.45703C8.25146 6.45703 8.15771 6.51953 7.97021 6.64453C7.81396 6.76953 7.70459 6.84766 7.64209 6.87891C7.61084 6.91016 7.48584 7.00391 7.26709 7.16016C7.04834 7.31641 6.87646 7.44141 6.75146 7.53516C6.15771 7.22266 5.73584 6.98828 5.48584 6.83203C5.23584 6.67578 4.97021 6.51953 4.68896 6.36328C3.93896 7.23828 3.37646 8.22266 3.00146 9.31641C3.53271 9.62891 4.20459 10.0195 5.01709 10.4883C4.89209 11.707 4.82959 12.4258 4.82959 12.6445C4.82959 12.8633 4.89209 13.582 5.01709 14.8008C4.26709 15.2383 3.59521 15.6289 3.00146 15.9727C3.37646 17.0664 3.93896 18.0508 4.68896 18.9258C5.09521 18.707 5.78271 18.3164 6.75146 17.7539C7.72021 18.4414 8.29834 18.8477 8.48584 18.9727C8.70459 19.0977 9.36084 19.4102 10.4546 19.9102V22.2539C11.0171 22.3477 11.5796 22.3945 12.1421 22.3945C12.7046 22.3945 13.2827 22.3477 13.8765 22.2539V19.9102C14.9702 19.4102 15.6108 19.0977 15.7983 18.9727C15.9858 18.8477 16.5796 18.4414 17.5796 17.7539C18.0171 18.0039 18.314 18.1758 18.4702 18.2695C18.6577 18.3633 18.814 18.457 18.939 18.5508C19.0952 18.6445 19.314 18.7695 19.5952 18.9258ZM8.95459 9.45703C9.82959 8.58203 10.8921 8.14453 12.1421 8.14453C13.3921 8.14453 14.4546 8.58203 15.3296 9.45703C16.2046 10.332 16.6421 11.3945 16.6421 12.6445C16.6421 13.8945 16.2046 14.957 15.3296 15.832C14.4546 16.707 13.3921 17.1445 12.1421 17.1445C10.8921 17.1445 9.82959 16.707 8.95459 15.832C8.07959 14.957 7.64209 13.8945 7.64209 12.6445C7.64209 11.3945 8.07959 10.332 8.95459 9.45703ZM10.5483 14.2383C10.9858 14.6758 11.5171 14.8945 12.1421 14.8945C12.7671 14.8945 13.2983 14.6758 13.7358 14.2383C14.1733 13.8008 14.3921 13.2695 14.3921 12.6445C14.3921 12.0195 14.1733 11.4883 13.7358 11.0508C13.2983 10.6133 12.7671 10.3945 12.1421 10.3945C11.5171 10.3945 10.9858 10.6133 10.5483 11.0508C10.1108 11.4883 9.89209 12.0195 9.89209 12.6445C9.89209 13.2695 10.1108 13.8008 10.5483 14.2383Z" fill="#A5A5A5"/>
</svg>
