<svg width="18" height="18" viewBox="0 0 18 18" fill="none" xmlns="http://www.w3.org/2000/svg">
<path d="M1.5 4.50049C1.5 2.84363 2.84315 1.50049 4.5 1.50049H9H11.068C11.6648 1.50049 12.2371 1.73754 12.659 2.1595L15.841 5.34148C16.2629 5.76344 16.5 6.33573 16.5 6.93247V9.00049V13.5005C16.5 15.1573 15.1569 16.5005 13.5 16.5005H4.5C2.84315 16.5005 1.5 15.1573 1.5 13.5005V4.50049Z" stroke="#470D69" stroke-width="1.125"/>
<path d="M4.50049 11.2505C4.50049 10.4221 5.17206 9.75049 6.00049 9.75049H12.0005C12.8289 9.75049 13.5005 10.4221 13.5005 11.2505V16.5005H4.50049V11.2505Z" stroke="#470D69" stroke-width="1.125"/>
<path d="M6.00049 1.50049V4.50049C6.00049 4.9147 6.33627 5.25049 6.75049 5.25049H11.2505C11.6647 5.25049 12.0005 4.9147 12.0005 4.50049V1.50049" stroke="#470D69" stroke-width="1.125"/>
</svg>
