<svg width="24" height="25" viewBox="0 0 24 25" fill="none" xmlns="http://www.w3.org/2000/svg">
<g id="Iconex">
<g id="Settings">
<path id="Subtract" d="M14.4614 2.94962C14.7886 3.0324 15.0015 3.33087 15.0776 3.65964C15.2585 4.44146 15.7507 5.14914 16.5005 5.58203C17.1895 5.97982 17.9707 6.07325 18.6884 5.90403C19.0165 5.82668 19.3779 5.88529 19.5972 6.14124C20.3984 7.07623 21.0299 8.16086 21.4441 9.34742C21.5694 9.70623 21.3873 10.0864 21.094 10.3281C20.4262 10.8783 20.0004 11.7117 20.0004 12.6445C20.0004 13.5774 20.4262 14.4108 21.094 14.961C21.3873 15.2027 21.5694 15.5828 21.4441 15.9416C21.03 17.1281 20.3985 18.2126 19.5975 19.1475C19.3781 19.4035 19.0167 19.4621 18.6886 19.3847C17.9708 19.2154 17.1896 19.3089 16.5005 19.7067C15.7506 20.1396 15.2584 20.8474 15.0775 21.6294C15.0014 21.9582 14.7885 22.2567 14.4613 22.3395C13.674 22.5387 12.8496 22.6445 12.0004 22.6445C11.1513 22.6445 10.3269 22.5387 9.5397 22.3395C9.21251 22.2567 8.99953 21.9582 8.92347 21.6294C8.74262 20.8474 8.25036 20.1396 7.50047 19.7067C6.8114 19.3088 6.0301 19.2154 5.31231 19.3847C4.98421 19.4621 4.62277 19.4035 4.40343 19.1475C3.60239 18.2126 2.97093 17.1281 2.55674 15.9417C2.43147 15.5828 2.61356 15.2027 2.90687 14.961C3.57469 14.4108 4.00047 13.5774 4.00047 12.6445C4.00047 11.7117 3.57469 10.8783 2.90687 10.328C2.61356 10.0864 2.43148 9.70622 2.55674 9.3474C2.97098 8.16083 3.60253 7.0762 4.4037 6.14121C4.62302 5.88525 4.98443 5.82665 5.3125 5.90401C6.03023 6.07326 6.81146 5.97984 7.50048 5.58203C8.25028 5.14913 8.74251 4.44144 8.92342 3.65961C8.99949 3.33083 9.21247 3.03236 9.53963 2.94957C10.3269 2.75037 11.1513 2.64453 12.0004 2.64453C12.8496 2.64453 13.6741 2.75038 14.4614 2.94962Z" fill="white" fill-opacity="0.2"/>
<path id="Subtract (Stroke)" fill-rule="evenodd" clip-rule="evenodd" d="M9.35572 2.22249C10.2026 2.00819 11.0888 1.89453 12.0005 1.89453C12.9123 1.89453 13.7985 2.00821 14.6455 2.22254C15.3367 2.39745 15.6936 2.99436 15.8084 3.49056C15.9444 4.07834 16.3132 4.60783 16.8756 4.93251C17.3927 5.23103 17.9772 5.30117 18.5164 5.17405C19.0119 5.05722 19.7038 5.11288 20.1668 5.65324C21.0277 6.6579 21.7067 7.8239 22.1523 9.10022C22.4183 9.8622 22.0062 10.5483 21.571 10.9069C21.0687 11.3208 20.7505 11.9452 20.7505 12.6445C20.7505 13.3439 21.0687 13.9683 21.571 14.3822C22.0062 14.7407 22.4183 15.4269 22.1523 16.1888C21.7068 17.465 21.0278 18.6309 20.1671 19.6355C19.704 20.1759 19.0121 20.2316 18.5165 20.1147C17.9773 19.9875 17.3927 20.0576 16.8756 20.3562C16.3131 20.6809 15.9443 21.2105 15.8083 21.7984C15.6935 22.2946 15.3366 22.8916 14.6453 23.0666C13.7984 23.2809 12.9122 23.3945 12.0005 23.3945C11.0889 23.3945 10.2027 23.2809 9.3558 23.0666C8.66453 22.8917 8.30762 22.2946 8.19284 21.7984C8.05688 21.2105 7.688 20.6809 7.12555 20.3562C6.60843 20.0576 6.02378 19.9875 5.48457 20.1147C4.989 20.2316 4.29703 20.176 3.83397 19.6355C2.97324 18.6309 2.29425 17.465 1.84872 16.1889C1.58271 15.4269 1.99487 14.7407 2.43003 14.3822C2.93235 13.9683 3.25054 13.3439 3.25054 12.6445C3.25054 11.9452 2.93235 11.3207 2.43004 10.9069C1.99487 10.5483 1.58271 9.86219 1.84873 9.1002C2.2943 7.82387 2.97339 6.65787 3.83426 5.6532C4.29729 5.11283 4.98917 5.05718 5.48471 5.17403C6.02388 5.30117 6.60848 5.23105 7.12556 4.93251C7.68794 4.60782 8.05679 4.07832 8.1928 3.49054C8.30761 2.99433 8.66452 2.39739 9.35572 2.22249ZM9.72956 3.67517C9.727 3.67732 9.72271 3.68144 9.71677 3.68866C9.69625 3.71362 9.6698 3.76121 9.65419 3.82868C9.42839 4.80456 8.81278 5.69045 7.87556 6.23155C7.01459 6.72863 6.03674 6.84534 5.14044 6.63399C5.07322 6.61814 5.01895 6.62074 4.9875 6.62807C4.97821 6.63023 4.97255 6.6323 4.96949 6.63365C4.23126 7.4963 3.64941 8.49579 3.26713 9.58823C3.26783 9.59204 3.26953 9.59858 3.27339 9.60847C3.28759 9.64477 3.32298 9.69904 3.38387 9.74921C4.21718 10.4358 4.75054 11.4782 4.75054 12.6445C4.75054 13.8109 4.21718 14.8533 3.38387 15.5399C3.32298 15.59 3.28759 15.6443 3.27339 15.6806C3.26953 15.6905 3.26783 15.697 3.26713 15.7008C3.64937 16.7932 4.23113 17.7925 4.96924 18.6551C4.97231 18.6565 4.97797 18.6585 4.98725 18.6607C5.01871 18.668 5.07298 18.6706 5.14021 18.6548C6.03657 18.4434 7.01451 18.56 7.87555 19.0572C8.81288 19.5983 9.42852 20.4844 9.65426 21.4604C9.66987 21.5279 9.69632 21.5755 9.71684 21.6004C9.72278 21.6076 9.72707 21.6118 9.72963 21.6139C10.4554 21.797 11.2161 21.8945 12.0005 21.8945C12.785 21.8945 13.5457 21.797 14.2715 21.6139C14.2741 21.6117 14.2784 21.6076 14.2843 21.6004C14.3048 21.5754 14.3313 21.5278 14.3469 21.4604C14.5726 20.4843 15.1882 19.5983 16.1256 19.0572C16.9866 18.5601 17.9645 18.4434 18.8608 18.6548C18.9281 18.6706 18.9823 18.668 19.0138 18.6607C19.0231 18.6585 19.0287 18.6565 19.0318 18.6551C19.7699 17.7925 20.3517 16.7931 20.7339 15.7008C20.7332 15.697 20.7315 15.6905 20.7276 15.6806C20.7134 15.6443 20.6781 15.59 20.6172 15.5398C19.7839 14.8533 19.2505 13.8109 19.2505 12.6445C19.2505 11.4782 19.7839 10.4358 20.6172 9.74922C20.6781 9.69906 20.7134 9.64479 20.7276 9.60849C20.7315 9.5986 20.7332 9.59205 20.7339 9.58825C20.3516 8.49581 19.7698 7.49632 19.0316 6.63368C19.0285 6.63233 19.0228 6.63026 19.0136 6.6281C18.9821 6.62078 18.9278 6.61817 18.8606 6.63402C17.9644 6.84533 16.9865 6.72861 16.1256 6.23155C15.1884 5.69045 14.5728 4.80458 14.347 3.82872C14.3314 3.76125 14.3049 3.71366 14.2844 3.6887C14.2785 3.68148 14.2742 3.67736 14.2716 3.67521C13.5458 3.49203 12.7851 3.39453 12.0005 3.39453C11.216 3.39453 10.4554 3.49202 9.72956 3.67517ZM14.2689 3.6732C14.2689 3.67316 14.2693 3.67338 14.2701 3.674L14.2689 3.6732ZM19.0345 6.63525C19.0345 6.63531 19.0341 6.63508 19.0332 6.63448L19.0345 6.63525ZM19.0348 18.6535C19.0348 18.6536 19.0344 18.6538 19.0335 18.6543L19.0348 18.6535ZM14.2687 21.6159C14.2688 21.6158 14.2692 21.6155 14.27 21.6151L14.2687 21.6159ZM9.7324 21.6159C9.73241 21.616 9.73199 21.6157 9.73115 21.6151L9.7324 21.6159ZM4.96629 18.6535C4.96635 18.6535 4.96681 18.6538 4.96756 18.6543L4.96629 18.6535ZM4.96653 6.63523C4.9665 6.63521 4.96689 6.63492 4.96781 6.63445L4.96653 6.63523ZM9.73108 3.67396C9.73191 3.67335 9.73233 3.67312 9.73233 3.67316L9.73108 3.67396Z" fill="white" fill-opacity="0.2"/>
<circle id="Ellipse 33" cx="3" cy="3" r="3" transform="matrix(-1 0 0 1 15.001 9.64453)" fill="white"/>
</g>
</g>
</svg>
