<svg width="24" height="24" viewBox="0 0 24 24" fill="none" xmlns="http://www.w3.org/2000/svg">
<g id="Iconex">
<g id="Settings">
<path id="Subtract" opacity="0.3" d="M14.4614 2.30508C14.7886 2.38787 15.0015 2.68633 15.0776 3.01511C15.2585 3.79693 15.7507 4.50461 16.5005 4.9375C17.1895 5.33529 17.9707 5.42872 18.6884 5.2595C19.0165 5.18215 19.3779 5.24076 19.5972 5.49671C20.3984 6.4317 21.0299 7.51632 21.4441 8.70289C21.5694 9.0617 21.3873 9.44185 21.094 9.68352C20.4262 10.2338 20.0004 11.0672 20.0004 12C20.0004 12.9328 20.4262 13.7662 21.094 14.3165C21.3873 14.5581 21.5694 14.9383 21.4441 15.2971C21.03 16.4835 20.3985 17.5681 19.5975 18.503C19.3781 18.759 19.0167 18.8176 18.6886 18.7402C17.9708 18.5709 17.1896 18.6643 16.5005 19.0621C15.7506 19.4951 15.2584 20.2029 15.0775 20.9848C15.0014 21.3136 14.7885 21.6122 14.4613 21.695C13.674 21.8942 12.8496 22 12.0004 22C11.1513 22 10.3269 21.8942 9.5397 21.695C9.21251 21.6122 8.99953 21.3137 8.92347 20.9848C8.74262 20.2029 8.25036 19.4951 7.50047 19.0621C6.8114 18.6643 6.0301 18.5709 5.31231 18.7402C4.98421 18.8176 4.62277 18.759 4.40343 18.503C3.60239 17.5681 2.97093 16.4836 2.55674 15.2971C2.43147 14.9383 2.61356 14.5582 2.90687 14.3165C3.57469 13.7663 4.00047 12.9329 4.00047 12C4.00047 11.0671 3.57469 10.2337 2.90687 9.68351C2.61356 9.44184 2.43148 9.06169 2.55674 8.70287C2.97098 7.5163 3.60253 6.43167 4.4037 5.49667C4.62302 5.24072 4.98443 5.18212 5.3125 5.25948C6.03023 5.42873 6.81146 5.33531 7.50048 4.9375C8.25028 4.5046 8.74251 3.79691 8.92342 3.01508C8.99949 2.6863 9.21247 2.38783 9.53963 2.30504C10.3269 2.10584 11.1513 2 12.0004 2C12.8496 2 13.6741 2.10585 14.4614 2.30508Z" fill="#A5A5A5"/>
<path id="Subtract (Stroke)" opacity="0.3" fill-rule="evenodd" clip-rule="evenodd" d="M9.35572 1.57796C10.2026 1.36366 11.0888 1.25 12.0005 1.25C12.9123 1.25 13.7985 1.36368 14.6455 1.578C15.3367 1.75292 15.6936 2.34983 15.8084 2.84603C15.9444 3.43381 16.3132 3.96329 16.8756 4.28798C17.3927 4.5865 17.9772 4.65663 18.5164 4.52952C19.0119 4.41269 19.7038 4.46835 20.1668 5.00871C21.0277 6.01337 21.7067 7.17937 22.1523 8.45569C22.4183 9.21767 22.0062 9.90381 21.571 10.2624C21.0687 10.6762 20.7505 11.3006 20.7505 12C20.7505 12.6994 21.0687 13.3238 21.571 13.7376C22.0062 14.0962 22.4183 14.7823 22.1523 15.5443C21.7068 16.8205 21.0278 17.9864 20.1671 18.991C19.704 19.5314 19.0121 19.587 18.5165 19.4702C17.9773 19.343 17.3927 19.4131 16.8756 19.7117C16.3131 20.0364 15.9443 20.566 15.8083 21.1538C15.6935 21.6501 15.3366 22.2471 14.6453 22.422C13.7984 22.6363 12.9122 22.75 12.0005 22.75C11.0889 22.75 10.2027 22.6363 9.3558 22.4221C8.66453 22.2471 8.30762 21.6501 8.19284 21.1538C8.05688 20.566 7.688 20.0364 7.12555 19.7117C6.60843 19.4131 6.02378 19.343 5.48457 19.4702C4.989 19.5871 4.29703 19.5314 3.83397 18.991C2.97324 17.9864 2.29425 16.8205 1.84872 15.5443C1.58271 14.7823 1.99487 14.0962 2.43003 13.7376C2.93235 13.3238 3.25054 12.6994 3.25054 12C3.25054 11.3006 2.93235 10.6762 2.43004 10.2623C1.99487 9.9038 1.58271 9.21766 1.84873 8.45567C2.2943 7.17934 2.97339 6.01334 3.83426 5.00867C4.29729 4.4683 4.98917 4.41265 5.48471 4.5295C6.02388 4.65664 6.60848 4.58651 7.12556 4.28798C7.68794 3.96329 8.05679 3.43379 8.1928 2.84601C8.30761 2.3498 8.66452 1.75286 9.35572 1.57796ZM9.72956 3.03064C9.727 3.03279 9.72271 3.03691 9.71677 3.04413C9.69625 3.06909 9.6698 3.11668 9.65419 3.18415C9.42839 4.16003 8.81278 5.04591 7.87556 5.58702C7.01459 6.0841 6.03674 6.20081 5.14044 5.98946C5.07322 5.97361 5.01895 5.97621 4.9875 5.98354C4.97821 5.9857 4.97255 5.98777 4.96949 5.98912C4.23126 6.85177 3.64941 7.85126 3.26713 8.9437C3.26783 8.94751 3.26953 8.95405 3.27339 8.96394C3.28759 9.00024 3.32298 9.05451 3.38387 9.10468C4.21718 9.79126 4.75054 10.8337 4.75054 12C4.75054 13.1663 4.21718 14.2087 3.38387 14.8953C3.32298 14.9455 3.28759 14.9998 3.27339 15.0361C3.26953 15.0459 3.26783 15.0525 3.26713 15.0563C3.64937 16.1486 4.23113 17.148 4.96924 18.0106C4.97231 18.0119 4.97797 18.014 4.98725 18.0162C5.01871 18.0235 5.07298 18.0261 5.14021 18.0102C6.03657 17.7988 7.01451 17.9155 7.87555 18.4126C8.81288 18.9538 9.42852 19.8398 9.65426 20.8158C9.66987 20.8833 9.69632 20.9309 9.71684 20.9559C9.72278 20.9631 9.72707 20.9672 9.72963 20.9694C10.4554 21.1525 11.2161 21.25 12.0005 21.25C12.785 21.25 13.5457 21.1525 14.2715 20.9694C14.2741 20.9672 14.2784 20.9631 14.2843 20.9559C14.3048 20.9309 14.3313 20.8833 14.3469 20.8158C14.5726 19.8398 15.1882 18.9538 16.1256 18.4126C16.9866 17.9155 17.9645 17.7988 18.8608 18.0102C18.9281 18.0261 18.9823 18.0235 19.0138 18.0161C19.0231 18.014 19.0287 18.0119 19.0318 18.0106C19.7699 17.148 20.3517 16.1486 20.7339 15.0563C20.7332 15.0525 20.7315 15.0459 20.7276 15.036C20.7134 14.9997 20.6781 14.9455 20.6172 14.8953C19.7839 14.2087 19.2505 13.1663 19.2505 12C19.2505 10.8337 19.7839 9.79128 20.6172 9.10469C20.6781 9.05453 20.7134 9.00025 20.7276 8.96395C20.7315 8.95406 20.7332 8.94752 20.7339 8.94372C20.3516 7.85128 19.7698 6.85179 19.0316 5.98915C19.0285 5.9878 19.0228 5.98573 19.0136 5.98357C18.9821 5.97624 18.9278 5.97364 18.8606 5.98949C17.9644 6.2008 16.9865 6.08408 16.1256 5.58702C15.1884 5.04592 14.5728 4.16005 14.347 3.18418C14.3314 3.11672 14.3049 3.06913 14.2844 3.04417C14.2785 3.03695 14.2742 3.03283 14.2716 3.03068C13.5458 2.8475 12.7851 2.75 12.0005 2.75C11.216 2.75 10.4554 2.84749 9.72956 3.03064ZM14.2689 3.02867C14.2689 3.02863 14.2693 3.02885 14.2701 3.02947L14.2689 3.02867ZM19.0345 5.99072C19.0345 5.99078 19.0341 5.99055 19.0332 5.98995L19.0345 5.99072ZM19.0348 18.009C19.0348 18.009 19.0344 18.0093 19.0335 18.0098L19.0348 18.009ZM14.2687 20.9713C14.2688 20.9713 14.2692 20.971 14.27 20.9706L14.2687 20.9713ZM9.7324 20.9714C9.73241 20.9714 9.73199 20.9712 9.73115 20.9706L9.7324 20.9714ZM4.96629 18.009C4.96635 18.009 4.96681 18.0092 4.96756 18.0098L4.96629 18.009ZM4.96653 5.9907C4.9665 5.99068 4.96689 5.99039 4.96781 5.98992L4.96653 5.9907ZM9.73108 3.02943C9.73191 3.02882 9.73233 3.02859 9.73233 3.02863L9.73108 3.02943Z" fill="#A5A5A5"/>
<circle id="Ellipse 33" cx="3" cy="3" r="3" transform="matrix(-1 0 0 1 15.001 9)" fill="#A5A5A5"/>
</g>
</g>
</svg>
