<svg width="29" height="29" viewBox="0 0 29 29" fill="none" xmlns="http://www.w3.org/2000/svg">
<g id="Group 248">
<path id="Vector" d="M10.3861 0.775879C8.8472 0.775879 7.58983 2.03325 7.58983 3.57212C7.58983 5.111 8.8472 6.36837 10.3861 6.36837L13.1823 6.36837L13.1823 3.57212C13.1823 2.03325 11.9437 0.775879 10.3861 0.775879ZM10.3861 8.22628L2.95445 8.22628C1.41557 8.22628 0.158203 9.48365 0.158203 11.0225C0.158203 12.5614 1.41557 13.8188 2.95445 13.8188L10.4048 13.8188C11.9437 13.8188 13.2011 12.5614 13.2011 11.0225C13.1823 9.48365 11.9437 8.22628 10.3861 8.22628Z" fill="#36C5F0"/>
<path id="Vector_2" d="M28.0839 11.0225C28.0839 9.48362 26.8265 8.22625 25.2877 8.22625C23.7488 8.22625 22.4914 9.48362 22.4914 11.0225L22.4914 13.8187L25.2877 13.8187C26.8265 13.8375 28.0839 12.5801 28.0839 11.0225ZM20.6335 11.0225L20.6335 3.55332C20.6335 2.01445 19.3761 0.75708 17.8373 0.75708C16.2984 0.75708 15.041 2.01445 15.041 3.55332L15.041 11.0225C15.041 12.5614 16.2984 13.8187 17.8373 13.8187C19.3949 13.8375 20.6335 12.5801 20.6335 11.0225Z" fill="#2EB67D"/>
<path id="Vector_3" d="M17.8373 28.757C19.3761 28.757 20.6335 27.4996 20.6335 25.9607C20.6335 24.4219 19.3761 23.1645 17.8373 23.1645L15.041 23.1645L15.041 25.9607C15.041 27.4996 16.2984 28.757 17.8373 28.757ZM17.8373 21.2878L25.2877 21.2878C26.8265 21.2878 28.0839 20.0304 28.0839 18.4916C28.0839 16.9527 26.8265 15.6953 25.2877 15.6953L17.8373 15.6953C16.2984 15.6953 15.041 16.9527 15.041 18.4916C15.041 20.0304 16.2984 21.2878 17.8373 21.2878Z" fill="#ECB22E"/>
<path id="Vector_4" d="M0.158203 18.4916C0.158203 20.0304 1.41557 21.2878 2.95445 21.2878C4.49332 21.2878 5.75069 20.0304 5.75069 18.4916L5.75069 15.6953L2.95445 15.6953C1.39681 15.6953 0.158203 16.9527 0.158203 18.4916ZM7.6086 18.4916L7.6086 25.9607C7.6086 27.4996 8.86597 28.757 10.4048 28.757C11.9437 28.757 13.2011 27.4996 13.2011 25.9607L13.2011 18.4916C13.2011 16.9527 11.9437 15.6953 10.4048 15.6953C8.84721 15.6953 7.6086 16.9527 7.6086 18.4916Z" fill="#E01E5A"/>
</g>
</svg>
