<svg width="19" height="18" viewBox="0 0 19 18" fill="none" xmlns="http://www.w3.org/2000/svg">
<circle cx="2.55319" cy="2.55319" r="2.55319" transform="matrix(-1 0 0 1 12.1885 3.75)" stroke="#A5A5A5" stroke-width="1.125"/>
<path d="M5.16699 12.6443C5.16699 12.0951 5.51222 11.6053 6.02939 11.4206V11.4206C8.36106 10.5878 10.9091 10.5878 13.2408 11.4206V11.4206C13.7579 11.6053 14.1032 12.0951 14.1032 12.6443V13.484C14.1032 14.2419 13.4319 14.8241 12.6815 14.717L12.4314 14.6812C10.5766 14.4163 8.69356 14.4163 6.83878 14.6812L6.58861 14.717C5.83829 14.8241 5.16699 14.2419 5.16699 13.484V12.6443Z" stroke="#A5A5A5" stroke-width="1.125"/>
<path d="M13.4685 8.92671C14.5765 8.92671 15.4746 8.02856 15.4746 6.92063C15.4746 5.8127 14.5765 4.91455 13.4685 4.91455" stroke="#A5A5A5" stroke-width="1.125" stroke-linecap="round"/>
<path d="M15.6658 13.5037L15.8624 13.5317C16.4519 13.616 16.9793 13.1585 16.9793 12.563V11.9032C16.9793 11.4717 16.7081 11.0868 16.3017 10.9417C15.8964 10.797 15.4828 10.6842 15.0645 10.6035" stroke="#A5A5A5" stroke-width="1.125" stroke-linecap="round"/>
<path d="M5.48752 8.9272C4.3796 8.9272 3.48145 8.02904 3.48145 6.92112C3.48145 5.81319 4.3796 4.91504 5.48752 4.91504" stroke="#A5A5A5" stroke-width="1.125" stroke-linecap="round"/>
<path d="M3.29025 13.5046L3.0937 13.5327C2.50416 13.6169 1.97671 13.1595 1.97671 12.564V11.9042C1.97671 11.4727 2.24796 11.0878 2.65431 10.9427C3.05964 10.7979 3.4733 10.6852 3.8916 10.6045" stroke="#A5A5A5" stroke-width="1.125" stroke-linecap="round"/>
</svg>
