<svg width="14" height="16" viewBox="0 0 14 16" fill="none" xmlns="http://www.w3.org/2000/svg">
<path d="M1.53797 5.1561C0.904294 4.31119 1.50716 3.10547 2.56329 3.10547H10.9367C11.9928 3.10547 12.5957 4.31119 11.962 5.1561V5.1561C11.4998 5.77235 11.25 6.52187 11.25 7.29218V12.1055C11.25 13.7623 9.90685 15.1055 8.25 15.1055H5.25C3.59315 15.1055 2.25 13.7623 2.25 12.1055V7.29218C2.25 6.52187 2.00016 5.77235 1.53797 5.1561V5.1561Z" stroke="currentColor" stroke-width="1.125"/>
<path d="M8.25049 11.3555L8.25049 6.85547" stroke="currentColor" stroke-width="1.125" stroke-linecap="round" stroke-linejoin="round"/>
<path d="M5.25 11.3555L5.25 6.85547" stroke="currentColor" stroke-width="1.125" stroke-linecap="round" stroke-linejoin="round"/>
<path d="M9.74902 3.10547L9.34091 1.88113C9.13674 1.26861 8.56353 0.855469 7.91788 0.855469H5.58016C4.93452 0.855469 4.36131 1.26861 4.15714 1.88113L3.74902 3.10547" stroke="currentColor" stroke-width="1.125" stroke-linecap="round"/>
</svg>
