<svg width="14" height="16" viewBox="0 0 14 16" fill="none" xmlns="http://www.w3.org/2000/svg">
<g opacity="0.54">
<path d="M1.53797 4.9061C0.904294 4.06119 1.50716 2.85547 2.56329 2.85547H10.9367C11.9928 2.85547 12.5957 4.06119 11.962 4.9061V4.9061C11.4998 5.52235 11.25 6.27187 11.25 7.04218V11.8555C11.25 13.5123 9.90685 14.8555 8.25 14.8555H5.25C3.59315 14.8555 2.25 13.5123 2.25 11.8555V7.04218C2.25 6.27187 2.00016 5.52235 1.53797 4.9061V4.9061Z" stroke="black" stroke-width="1.125"/>
<path d="M8.25049 11.1055L8.25049 6.60547" stroke="black" stroke-width="1.125" stroke-linecap="round" stroke-linejoin="round"/>
<path d="M5.25 11.1055L5.25 6.60547" stroke="black" stroke-width="1.125" stroke-linecap="round" stroke-linejoin="round"/>
<path d="M9.74902 2.85547L9.34091 1.63113C9.13674 1.01861 8.56353 0.605469 7.91788 0.605469H5.58016C4.93452 0.605469 4.36131 1.01861 4.15714 1.63113L3.74902 2.85547" stroke="black" stroke-width="1.125" stroke-linecap="round"/>
</g>
</svg>
