<svg width="18" height="18" viewBox="0 0 18 18" fill="none" xmlns="http://www.w3.org/2000/svg">
<g id="Iconex">
<g id="Trash can">
<path id="Rectangle 74" d="M3.78504 6.55063C3.15136 5.70573 3.75423 4.5 4.81036 4.5H13.1838C14.2399 4.5 14.8428 5.70573 14.2091 6.55063V6.55063C13.7469 7.16688 13.4971 7.9164 13.4971 8.68671V13.5C13.4971 15.1569 12.1539 16.5 10.4971 16.5H7.49707C5.84022 16.5 4.49707 15.1569 4.49707 13.5V8.68671C4.49707 7.9164 4.24723 7.16688 3.78504 6.55063V6.55063Z" stroke="currentColor" stroke-width="1.125"/>
<path id="Line" d="M10.498 12.75L10.498 8.25" stroke="currentColor" stroke-width="1.125" stroke-linecap="round" stroke-linejoin="round"/>
<path id="Line_2" d="M7.49707 12.75L7.49707 8.25" stroke="currentColor" stroke-width="1.125" stroke-linecap="round" stroke-linejoin="round"/>
<path id="Rectangle 4" d="M11.9961 4.5L11.588 3.27566C11.3838 2.66315 10.8106 2.25 10.165 2.25H7.82723C7.18159 2.25 6.60838 2.66314 6.40421 3.27566L5.99609 4.5" stroke="currentColor" stroke-width="1.125" stroke-linecap="round"/>
</g>
</g>
</svg>
