<svg width="26" height="20" viewBox="0 0 26 20" fill="none" xmlns="http://www.w3.org/2000/svg">
<path d="M25.1637 2.36775C24.2483 2.76929 23.273 3.03545 22.256 3.16467C23.3022 2.54006 24.1007 1.55853 24.476 0.375446C23.5007 0.956984 22.4237 1.36775 21.276 1.59698C20.3499 0.61083 19.0299 6.10352e-05 17.5899 6.10352e-05C14.796 6.10352e-05 12.5468 2.26775 12.5468 5.04775C12.5468 5.44775 12.5807 5.83237 12.6637 6.19853C8.46834 5.99391 4.75603 3.98314 2.26218 0.920061C1.82681 1.67545 1.57142 2.54006 1.57142 3.47083C1.57142 5.21853 2.47142 6.76775 3.81295 7.66467C3.00218 7.64929 2.20681 7.41391 1.53296 7.04314C1.53296 7.05853 1.53296 7.07853 1.53296 7.09853C1.53296 9.55083 3.28218 11.5877 5.57603 12.057C5.16526 12.1693 4.71757 12.2232 4.25295 12.2232C3.92988 12.2232 3.60373 12.2047 3.29757 12.137C3.95142 14.1354 5.80681 15.6047 8.01295 15.6524C6.29603 16.9954 4.11603 17.8047 1.75603 17.8047C1.34219 17.8047 0.945263 17.7862 0.54834 17.7354C2.78373 19.177 5.43295 20.0001 8.28988 20.0001C17.576 20.0001 22.653 12.3077 22.653 5.64006C22.653 5.41698 22.6452 5.20159 22.6345 4.98775C23.636 4.27698 24.4776 3.38929 25.1637 2.36775Z" fill="#463854"/>
</svg>
