<svg width="31" height="29" viewBox="0 0 31 29" fill="none" xmlns="http://www.w3.org/2000/svg">
<path id="webhook" fill-rule="evenodd" clip-rule="evenodd" d="M15.81 10.5364C15.7496 10.5403 15.6891 10.5422 15.6287 10.5422C14.0792 10.5422 12.8211 9.28412 12.8211 7.73462C12.8211 6.18513 14.0792 4.92706 15.6287 4.92706C17.1782 4.92706 18.4362 6.18513 18.4362 7.73462C18.4371 8.37882 18.2154 9.00354 17.8087 9.50311L20.9121 15.2079C21.6769 14.93 22.4843 14.7878 23.2981 14.7878C27.1531 14.7878 30.2827 17.9174 30.2827 21.7724C30.2827 25.6274 27.1531 28.7571 23.2981 28.7571C21.9339 28.7566 20.5995 28.358 19.4584 27.6104C19.336 27.5308 19.2325 27.4253 19.1552 27.3015C19.0778 27.1776 19.0286 27.0383 19.0108 26.8933C18.9931 26.7484 19.0073 26.6013 19.0525 26.4624C19.0977 26.3236 19.1727 26.1963 19.2723 26.0895C19.2744 26.0873 19.2766 26.085 19.2807 26.0846C19.4482 25.905 19.6733 25.7899 19.9169 25.7591C20.1605 25.7284 20.4072 25.784 20.6141 25.9164C21.4135 26.4341 22.3456 26.7096 23.2981 26.7096C26.0231 26.7096 28.2353 24.4974 28.2353 21.7724C28.2353 19.0474 26.0231 16.8352 23.2981 16.8352C22.3545 16.8352 21.0152 17.248 20.21 17.759C20.1686 17.7901 20.121 17.812 20.0703 17.8231C20.0197 17.8341 19.9673 17.8342 19.9166 17.8232C19.8659 17.8122 19.8182 17.7905 19.7767 17.7594C19.7352 17.7284 19.7009 17.6888 19.6761 17.6433L15.81 10.5364ZM14.521 22.6725C14.3793 23.4737 14.0987 24.244 13.6919 24.9487C11.7644 28.2873 7.4892 29.433 4.15067 27.5055C0.812141 25.578 -0.333343 21.3027 1.59401 17.964C2.27661 16.7828 3.28897 15.8264 4.50703 15.212C4.63716 15.1459 4.78021 15.109 4.92612 15.104C5.07203 15.099 5.21727 15.126 5.35162 15.1831C5.48605 15.2402 5.60634 15.326 5.70406 15.4346C5.80178 15.5431 5.87454 15.6717 5.91724 15.8114C5.91806 15.8144 5.91889 15.8172 5.91724 15.8209C5.98905 16.0558 5.97624 16.3084 5.88106 16.5348C5.78587 16.7612 5.61432 16.947 5.39627 17.06C4.5481 17.4934 3.8434 18.1629 3.36716 18.9877C2.00474 21.3475 2.81441 24.3696 5.17427 25.7322C7.53412 27.0946 10.5563 26.2848 11.9187 23.9249C12.3905 23.1077 12.7026 21.7415 12.6628 20.7887C12.6564 20.7372 12.6613 20.685 12.677 20.6356C12.6926 20.5861 12.7188 20.5407 12.7537 20.5023C12.7885 20.4639 12.8312 20.4335 12.8789 20.4131C12.9266 20.3927 12.9781 20.3829 13.03 20.3843L21.1176 20.5895C21.1444 20.5356 21.1728 20.4823 21.2034 20.4296C21.9781 19.0877 23.6966 18.6271 25.0385 19.4019C26.3807 20.1768 26.841 21.8953 26.0662 23.2371C25.2915 24.579 23.573 25.0395 22.2309 24.2647C21.6726 23.9434 21.2425 23.4391 21.0131 22.8371L14.521 22.6725ZM11.1311 13.0905C10.5079 12.5671 9.98098 11.9388 9.57405 11.2341C7.64656 7.89555 8.79205 3.62025 12.1306 1.69289C15.4691 -0.234462 19.7444 0.911023 21.6718 4.24942C22.3534 5.43109 22.6755 6.78594 22.5987 8.14795C22.5909 8.29376 22.5513 8.43611 22.4827 8.56499C22.414 8.69387 22.318 8.80617 22.2014 8.89401C22.0847 8.98184 21.9503 9.04308 21.8074 9.07342C21.6646 9.10376 21.5169 9.10248 21.3746 9.06965C21.3716 9.06897 21.3685 9.06815 21.3661 9.06486C21.1268 9.00962 20.9145 8.87225 20.7661 8.67665C20.6176 8.48104 20.5425 8.23958 20.5537 7.99429C20.6025 7.04299 20.375 6.09789 19.8986 5.27301C18.5362 2.91329 15.5142 2.10348 13.1543 3.4659C10.7946 4.82846 9.98464 7.85049 11.3472 10.2103C11.819 11.0275 12.8462 11.981 13.6912 12.4228C13.7389 12.4431 13.7817 12.4734 13.8166 12.5117C13.8516 12.55 13.8779 12.5954 13.8937 12.6448C13.9095 12.6942 13.9145 12.7464 13.9084 12.7979C13.9022 12.8493 13.885 12.8989 13.858 12.9431L9.63623 19.8447C9.66965 19.8946 9.70156 19.946 9.7321 19.9987C10.5067 21.3407 10.0463 23.0592 8.70426 23.834C7.36238 24.6087 5.64388 24.1483 4.86913 22.8063C4.09438 21.4644 4.55482 19.7459 5.8967 18.9712C6.45416 18.6483 7.10602 18.528 7.74202 18.6304L11.1311 13.0905Z" fill="#470D69"/>
</svg>
