<svg width="17" height="19" viewBox="0 0 17 19" fill="none" xmlns="http://www.w3.org/2000/svg">
<g id="Frame 1003">
<g id="Group 150">
<g id="Group 149">
<g id="Group">
<path id="Vector" d="M15.8124 4.76696L12.1079 1.0625C11.7827 0.736314 11.2113 0.5 10.75 0.5H4.5625C3.63212 0.5 2.875 1.25713 2.875 2.1875V7.8125C2.875 8.12351 3.12649 8.375 3.4375 8.375C3.74851 8.375 4 8.12351 4 7.8125V2.1875C4 1.87762 4.25199 1.625 4.5625 1.625H9.625C10.2465 1.625 10.75 2.129 10.75 2.75V4.85938C10.75 5.55572 11.3204 6.125 12.0156 6.125H14.125C14.7465 6.125 15.25 6.629 15.25 7.25V16.8125C15.25 17.1224 14.9985 17.375 14.6875 17.375H4.5625C4.25199 17.375 4 17.1224 4 16.8125C4 16.5015 3.74851 16.25 3.4375 16.25C3.12649 16.25 2.875 16.5015 2.875 16.8125C2.875 17.7429 3.63212 18.5 4.5625 18.5H14.6875C15.6179 18.5 16.375 17.7429 16.375 16.8125V6.125C16.375 5.66433 16.1387 5.0928 15.8125 4.76709L15.8124 4.76696Z" fill="#470D69"/>
</g>
</g>
<path id="Subtract" fill-rule="evenodd" clip-rule="evenodd" d="M13.5625 8.9375H1.1875C0.878125 8.9375 0.625 9.19063 0.625 9.5V15.125C0.625 15.4344 0.878125 15.6875 1.1875 15.6875H13.5625C13.8724 15.6875 14.125 15.4344 14.125 15.125V9.5C14.125 9.19063 13.8724 8.9375 13.5625 8.9375ZM2.17644 12.0446L3.07524 13.8871H3.22232V15.027H3.7902V13.8871H3.93728L4.76663 12.0446H4.20283L3.59546 13.4459H3.43983L2.77292 12.0446H2.17644ZM5.72588 12.0446L4.7086 15.027H5.28874L5.55168 14.2344H6.85141L7.12311 15.027H7.71959L6.67371 12.0446H5.72588ZM6.68334 13.7442L6.26738 12.5308H6.11687L5.71432 13.7442H6.68334ZM8.24432 15.027V12.0446H9.0369L9.78454 13.8259H9.85808L10.6016 12.0446H11.4065V15.027H10.8304V12.6661L10.0991 14.4183H9.50673L8.77543 12.675V15.027H8.24432ZM12.224 12.0446V15.027H12.7224H12.8041H14.0093V14.5163H12.8041V12.0446H12.224Z" fill="#470D69"/>
</g>
</g>
</svg>
